<svg width="36" height="36" viewBox="0 0 36 36" fill="none" xmlns="http://www.w3.org/2000/svg">
<circle cx="18" cy="18" r="17.5" fill="#DCECFB" stroke="#DCECFB"/>
<path d="M18 11.4458C20.1205 11.4458 20.4096 11.4458 21.2771 11.4458C22.0482 11.4458 22.4337 11.6386 22.7229 11.7349C23.1084 11.9277 23.3976 12.0241 23.6867 12.3133C23.9759 12.6024 24.1687 12.8916 24.2651 13.2771C24.3614 13.5663 24.4578 13.9518 24.5542 14.7229C24.5542 15.5904 24.5542 15.7831 24.5542 18C24.5542 20.2169 24.5542 20.4096 24.5542 21.2771C24.5542 22.0482 24.3614 22.4337 24.2651 22.7229C24.0723 23.1084 23.9759 23.3976 23.6867 23.6867C23.3976 23.9759 23.1084 24.1687 22.7229 24.2651C22.4337 24.3614 22.0482 24.4578 21.2771 24.5542C20.4096 24.5542 20.2169 24.5542 18 24.5542C15.7831 24.5542 15.5904 24.5542 14.7229 24.5542C13.9518 24.5542 13.5663 24.3614 13.2771 24.2651C12.8916 24.0723 12.6024 23.9759 12.3133 23.6867C12.0241 23.3976 11.8313 23.1084 11.7349 22.7229C11.6386 22.4337 11.5422 22.0482 11.4458 21.2771C11.4458 20.4096 11.4458 20.2169 11.4458 18C11.4458 15.7831 11.4458 15.5904 11.4458 14.7229C11.4458 13.9518 11.6386 13.5663 11.7349 13.2771C11.9277 12.8916 12.0241 12.6024 12.3133 12.3133C12.6024 12.0241 12.8916 11.8313 13.2771 11.7349C13.5663 11.6386 13.9518 11.5422 14.7229 11.4458C15.5904 11.4458 15.8795 11.4458 18 11.4458ZM18 10C15.7831 10 15.5904 10 14.7229 10C13.8554 10 13.2771 10.1928 12.7952 10.3855C12.3133 10.5783 11.8313 10.8675 11.3494 11.3494C10.8675 11.8313 10.6747 12.2169 10.3855 12.7952C10.1928 13.2771 10.0964 13.8554 10 14.7229C10 15.5904 10 15.8795 10 18C10 20.2169 10 20.4096 10 21.2771C10 22.1446 10.1928 22.7229 10.3855 23.2048C10.5783 23.6867 10.8675 24.1687 11.3494 24.6506C11.8313 25.1325 12.2169 25.3253 12.7952 25.6145C13.2771 25.8072 13.8554 25.9036 14.7229 26C15.5904 26 15.8795 26 18 26C20.1205 26 20.4096 26 21.2771 26C22.1446 26 22.7229 25.8072 23.2048 25.6145C23.6867 25.4217 24.1687 25.1325 24.6506 24.6506C25.1325 24.1687 25.3253 23.7831 25.6145 23.2048C25.8072 22.7229 25.9036 22.1446 26 21.2771C26 20.4096 26 20.1205 26 18C26 15.8795 26 15.5904 26 14.7229C26 13.8554 25.8072 13.2771 25.6145 12.7952C25.4217 12.3133 25.1325 11.8313 24.6506 11.3494C24.1687 10.8675 23.7831 10.6747 23.2048 10.3855C22.7229 10.1928 22.1446 10.0964 21.2771 10C20.4096 10 20.2169 10 18 10Z" fill="#23262F"/>
<path d="M18 13.8554C15.6867 13.8554 13.8554 15.6867 13.8554 18C13.8554 20.3133 15.6867 22.1446 18 22.1446C20.3133 22.1446 22.1446 20.3133 22.1446 18C22.1446 15.6867 20.3133 13.8554 18 13.8554ZM18 20.6988C16.5542 20.6988 15.3012 19.5422 15.3012 18C15.3012 16.5542 16.4578 15.3012 18 15.3012C19.4458 15.3012 20.6988 16.4578 20.6988 18C20.6988 19.4458 19.4458 20.6988 18 20.6988Z" fill="#23262F"/>
<path d="M22.241 14.7229C22.7733 14.7229 23.2048 14.2914 23.2048 13.759C23.2048 13.2267 22.7733 12.7952 22.241 12.7952C21.7086 12.7952 21.2771 13.2267 21.2771 13.759C21.2771 14.2914 21.7086 14.7229 22.241 14.7229Z" fill="#23262F"/>
</svg>
