<svg width="36" height="36" viewBox="0 0 36 36" fill="none" xmlns="http://www.w3.org/2000/svg">
<circle cx="18" cy="18" r="17.5" fill="#DCECFB" stroke="#DCECFB"/>
<path d="M22.0574 12.5075C21.471 11.8352 21.1184 10.9584 21.1184 10H20.3835C20.5727 11.0476 21.1963 11.9466 22.0574 12.5075Z" fill="#23262F"/>
<path d="M15.2574 17.9238C13.9843 17.9238 12.9487 18.9603 12.9487 20.2345C12.9487 21.1224 13.4535 21.895 14.1884 22.2814C13.9138 21.9025 13.7505 21.4381 13.7505 20.9329C13.7505 19.6587 14.786 18.6222 16.0592 18.6222C16.2967 18.6222 16.5269 18.6631 16.7421 18.7299V15.9215C16.5194 15.8918 16.293 15.8732 16.0592 15.8732C16.0183 15.8732 15.9812 15.8769 15.9404 15.8769V18.0316C15.7214 17.9647 15.495 17.9238 15.2574 17.9238Z" fill="#23262F"/>
<path d="M24.1396 13.7409V15.8769C22.7143 15.8769 21.3929 15.42 20.3165 14.6473V20.2382C20.3165 23.0281 18.0486 25.3016 15.2574 25.3016C14.181 25.3016 13.1788 24.9598 12.3585 24.384C13.2827 25.3759 14.6004 26 16.0591 26C18.8466 26 21.1182 23.7302 21.1182 20.9366V15.3457C22.1946 16.1184 23.516 16.5753 24.9413 16.5753V13.8263C24.6629 13.8263 24.3957 13.7966 24.1396 13.7409Z" fill="#23262F"/>
<path d="M20.3165 20.2382V14.6473C21.3929 15.42 22.7143 15.8769 24.1396 15.8769V13.7409C23.3156 13.5663 22.5919 13.1205 22.0574 12.5075C21.1963 11.9466 20.5763 11.0476 20.3796 10H18.3678L18.3641 21.022C18.3196 22.2554 17.3025 23.2473 16.0591 23.2473C15.2871 23.2473 14.6078 22.8646 14.1847 22.2851C13.4498 21.895 12.945 21.1261 12.945 20.2382C12.945 18.964 13.9805 17.9275 15.2537 17.9275C15.4912 17.9275 15.7213 17.9684 15.9366 18.0353V15.8806C13.2048 15.9401 11 18.1839 11 20.9366C11 22.2665 11.5159 23.4776 12.3585 24.384C13.1788 24.9598 14.181 25.3016 15.2574 25.3016C18.0449 25.3016 20.3165 23.0281 20.3165 20.2382Z" fill="#23262F"/>
</svg>
