<svg
      xmlns="http://www.w3.org/2000/svg"
      width="200"
      height="135"
      viewBox="0 0 200 135"
      fill="none"
    >
      <path
        d="M199.344 1.33264L199.377 22.9299L199.409 55.1787C199.409 56.306 198.102 56.9268 197.22 56.208L181.929 43.6123C181.357 43.1385 180.524 43.2202 180.05 43.792L123.41 112.505C122.953 113.076 122.104 113.158 121.532 112.684L73.1584 72.8062C72.5866 72.3487 71.7535 72.4304 71.2797 72.9858L20.6029 134.478C20.1292 135.033 19.2797 135.115 18.7242 134.657L11.0459 128.335L0.47599 119.627C-0.0794612 119.154 -0.161146 118.321 0.296284 117.732L67.7183 35.9667C68.1921 35.3949 69.0252 35.3132 69.597 35.787L117.97 75.6651C118.542 76.1389 119.375 76.0572 119.849 75.4854L159.76 27.0631C160.234 26.4913 160.152 25.6581 159.58 25.1844L144.305 12.5887C143.439 11.8699 143.782 10.4486 144.893 10.2362L197.743 0.0256876C198.576 -0.13768 199.344 0.49946 199.344 1.33264Z"
        fill="#1CD66E"
      />
      <path
        opacity="0.33"
        d="M199.361 22.9297L199.393 55.1786C199.393 56.3058 198.086 56.9266 197.204 56.2078L181.913 43.6121C181.341 43.1383 180.508 43.22 180.034 43.7918L123.394 112.504C122.937 113.076 122.087 113.158 121.516 112.684L73.1423 72.806C72.5705 72.3486 71.7374 72.4302 71.2636 72.9857L20.5868 134.477C20.113 135.033 19.2635 135.115 18.7081 134.657L11.0298 128.335C16.715 111.246 25.5369 92.4101 37.1033 90.9888C58.5862 88.3423 55.0902 49.6077 75.7072 59.3608C96.3243 69.1138 117.366 115.02 132.38 88.1299C147.05 61.9583 173.63 25.3475 199.361 22.9297Z"
        fill="#146D38"
      />
    </svg>