<svg width="30" height="30" viewBox="0 0 30 30" fill="none" xmlns="http://www.w3.org/2000/svg">
<circle cx="18" cy="12" r="12" fill="#ECE5FF"/>
<path d="M12 20.7898C11.8789 20.7883 11.7596 20.761 11.65 20.7098C11.5 20.6298 7.99997 18.7098 7.24997 16.1998C7.02043 15.5615 6.93984 14.8791 7.01437 14.2049C7.08889 13.5307 7.31656 12.8825 7.67997 12.3098C7.95034 11.954 8.30219 11.6684 8.70591 11.477C9.10964 11.2856 9.55344 11.1939 9.99997 11.2098C10.3748 11.1994 10.7475 11.27 11.0926 11.4167C11.4378 11.5634 11.7472 11.7827 12 12.0598C12.2527 11.7827 12.5622 11.5634 12.9073 11.4167C13.2524 11.27 13.6251 11.1994 14 11.2098C14.4432 11.1972 14.883 11.2904 15.283 11.4817C15.6829 11.673 16.0316 11.9568 16.3 12.3098C16.6634 12.8825 16.891 13.5307 16.9656 14.2049C17.0401 14.8791 16.9595 15.5615 16.73 16.1998C15.98 18.7598 12.48 20.6298 12.33 20.7098C12.2265 20.7583 12.1142 20.7856 12 20.7898V20.7898ZM9.99997 12.7098C9.78941 12.6943 9.57833 12.7319 9.38612 12.8193C9.19392 12.9067 9.02675 13.0409 8.89997 13.2098C8.67935 13.5971 8.54782 14.0288 8.51496 14.4733C8.48209 14.9179 8.54871 15.3642 8.70997 15.7798C9.12997 17.2198 11 18.5798 12.02 19.1798C13.02 18.5698 14.91 17.1798 15.33 15.7798C15.4912 15.3642 15.5578 14.9179 15.525 14.4733C15.4921 14.0288 15.3606 13.5971 15.14 13.2098C14.9724 12.9886 14.7399 12.8254 14.4749 12.743C14.21 12.6606 13.9259 12.6631 13.6625 12.7502C13.3991 12.8373 13.1694 13.0045 13.0058 13.2286C12.8422 13.4527 12.7527 13.7223 12.75 13.9998C12.75 14.1987 12.6709 14.3894 12.5303 14.5301C12.3896 14.6707 12.1989 14.7498 12 14.7498C11.8011 14.7498 11.6103 14.6707 11.4696 14.5301C11.329 14.3894 11.25 14.1987 11.25 13.9998C11.2567 13.8319 11.2294 13.6644 11.1695 13.5075C11.1095 13.3506 11.0184 13.2074 10.9015 13.0868C10.7846 12.9662 10.6444 12.8705 10.4894 12.8057C10.3345 12.7409 10.1679 12.7083 9.99997 12.7098Z" fill="#2D2D2D"/>
<path d="M18.76 23.7502H5.23999C4.17912 23.7502 3.16171 23.3288 2.41156 22.5787C1.66142 21.8285 1.23999 20.8111 1.23999 19.7502V12.2402C1.23999 11.1794 1.66142 10.162 2.41156 9.41181C3.16171 8.66166 4.17912 8.24023 5.23999 8.24023H18.76C19.8209 8.24023 20.8383 8.66166 21.5884 9.41181C22.3386 10.162 22.76 11.1794 22.76 12.2402V19.7602C22.7573 20.8194 22.3347 21.8342 21.5849 22.5822C20.835 23.3302 19.8191 23.7502 18.76 23.7502ZM5.23999 9.75023C4.58041 9.75287 3.9486 10.0161 3.4822 10.4824C3.01581 10.9488 2.75262 11.5807 2.74999 12.2402V19.7602C2.75262 20.4198 3.01581 21.0516 3.4822 21.518C3.9486 21.9844 4.58041 22.2476 5.23999 22.2502H18.76C19.4196 22.2476 20.0514 21.9844 20.5178 21.518C20.9842 21.0516 21.2474 20.4198 21.25 19.7602V12.2402C21.2474 11.5807 20.9842 10.9488 20.5178 10.4824C20.0514 10.0161 19.4196 9.75287 18.76 9.75023H5.23999Z" fill="#2D2D2D"/>
<path d="M12 27.75C11.8019 27.7474 11.6126 27.6676 11.4725 27.5275C11.3324 27.3874 11.2526 27.1981 11.25 27V23C11.25 22.8011 11.329 22.6103 11.4697 22.4697C11.6103 22.329 11.8011 22.25 12 22.25C12.1989 22.25 12.3897 22.329 12.5303 22.4697C12.671 22.6103 12.75 22.8011 12.75 23V27C12.7474 27.1981 12.6676 27.3874 12.5275 27.5275C12.3874 27.6676 12.1981 27.7474 12 27.75Z" fill="#2D2D2D"/>
<path d="M18 27.75H6C5.80109 27.75 5.61032 27.671 5.46967 27.5303C5.32902 27.3897 5.25 27.1989 5.25 27C5.25 26.8011 5.32902 26.6103 5.46967 26.4697C5.61032 26.329 5.80109 26.25 6 26.25H18C18.1989 26.25 18.3897 26.329 18.5303 26.4697C18.671 26.6103 18.75 26.8011 18.75 27C18.75 27.1989 18.671 27.3897 18.5303 27.5303C18.3897 27.671 18.1989 27.75 18 27.75Z" fill="#2D2D2D"/>
</svg>
