<svg width="1034" height="1021" viewBox="0 0 1034 1021" fill="none" xmlns="http://www.w3.org/2000/svg">
<g opacity="0.28" filter="url(#filter0_f_4989_1193)">
<path fill-rule="evenodd" clip-rule="evenodd" d="M515.115 246.16C564.418 251.123 619.334 227.48 661.012 254.281C702.661 281.063 708.246 338.559 728.835 383.591C747.488 424.392 765.396 463.528 776.545 506.983C790.739 562.303 838.533 628.446 803.159 673.285C765.494 721.028 681.66 674.789 625.59 698.331C579.85 717.535 562.527 779.627 515.115 794.223C463.654 810.064 406.93 800.909 356.883 781.048C302.796 759.584 235.617 733.343 220.266 677.214C204.069 617.991 279.94 568.348 281.93 506.983C283.817 448.798 217.3 399.564 231.103 343.008C244.749 287.095 296.74 241.673 351.214 223.097C404.338 204.982 459.269 240.539 515.115 246.16Z" fill="url(#paint0_linear_4989_1193)"/>
</g>
<g opacity="0.06">
<path d="M493.426 282H487.575V403H493.426V282Z" fill="#19223F"/>
<path d="M551 339.575H430V345.426H551V339.575Z" fill="#19223F"/>
<path d="M449.778 297.648L445.641 301.785L531.2 387.344L535.337 383.207L449.778 297.648Z" fill="#19223F"/>
<path d="M531.2 297.646L445.641 383.205L449.778 387.342L535.337 301.783L531.2 297.646Z" fill="#19223F"/>
<path d="M435.592 316.984L433.384 322.402L545.442 368.056L547.65 362.637L435.592 316.984Z" fill="#19223F"/>
<path d="M510.637 285.393L464.983 397.451L470.402 399.659L516.055 287.601L510.637 285.393Z" fill="#19223F"/>
<path d="M545.575 317.187L433.323 362.368L435.508 367.796L547.76 322.615L545.575 317.187Z" fill="#19223F"/>
<path d="M470.59 285.327L465.162 287.511L510.331 399.762L515.759 397.578L470.59 285.327Z" fill="#19223F"/>
</g>
<defs>
<filter id="filter0_f_4989_1193" x="0" y="0" width="1033.94" height="1020.28" filterUnits="userSpaceOnUse" color-interpolation-filters="sRGB">
<feFlood flood-opacity="0" result="BackgroundImageFix"/>
<feBlend mode="normal" in="SourceGraphic" in2="BackgroundImageFix" result="shape"/>
<feGaussianBlur stdDeviation="109" result="effect1_foregroundBlur_4989_1193"/>
</filter>
<linearGradient id="paint0_linear_4989_1193" x1="-49.5808" y1="513.139" x2="506.88" y2="1082.6" gradientUnits="userSpaceOnUse">
<stop stop-color="#17D86E"/>
<stop offset="1" stop-color="#DAFC05"/>
</linearGradient>
</defs>
</svg>
