<svg width="40" height="38" viewBox="0 0 40 38" fill="none" xmlns="http://www.w3.org/2000/svg">
<circle cx="24" cy="16" r="16" fill="#FFEAE7"/>
<path d="M22.8908 10.454C23.1001 9.30234 22.2777 8.22696 21.1091 8.15972C18.6867 8.02033 14.5702 7.87772 10.5258 8.17347C9.5494 8.24486 8.7054 8.8759 8.3572 9.79088C6.31902 15.1475 5.3464 20.0953 4.93254 22.7141C4.76184 23.7943 5.5394 24.7563 6.63044 24.8312C8.2556 24.9427 10.7629 25.059 13.6667 25C13.3652 27.1479 13.0423 30.4471 12.7203 34.0779C12.5576 35.9115 14.7134 36.9221 15.9693 35.5764C20.9295 30.2616 25.4852 24.341 27.9889 20.9591C28.901 19.7271 28.1035 18.0535 26.5713 18.0136C25.211 17.9782 23.4579 17.9617 21.3333 18C21.9111 15.6821 22.4237 13.0244 22.8908 10.454Z" stroke="black" stroke-width="1.5" stroke-linejoin="round"/>
</svg>
