<svg width="87" height="101" viewBox="0 0 87 101" fill="none" xmlns="http://www.w3.org/2000/svg">
<path d="M9.89092 8.22231C5.59136 13.9683 3.19189 21.0456 2.86667 28.204C2.54641 35.4028 4.25409 42.6393 8.07188 48.7812C11.7671 54.7251 17.3347 59.4398 23.6604 62.3903C26.8238 63.8695 30.211 64.9036 33.6669 65.4295C37.148 65.9604 40.7915 66.0128 44.2571 65.3497C47.8266 64.6657 51.4302 63.1255 53.6584 60.1241C56.004 56.9445 57.1514 52.8798 57.169 48.9539C57.1807 44.9795 56.2951 40.9023 54.321 37.4339C53.444 35.8951 52.3974 34.4426 51.0081 33.3353C49.7728 32.3483 48.3273 31.5838 46.8309 31.0712C44.0254 30.105 40.4874 29.7776 37.9862 31.6903C36.6983 32.6758 35.8216 34.2088 35.1216 35.6464C34.3112 37.3187 33.7052 39.1215 33.3886 40.9461C33.0771 42.7456 33.1617 44.6357 33.2697 46.4491C33.3943 48.4653 33.6562 50.4647 34.0472 52.4482C34.8363 56.4062 36.1217 60.2704 37.8867 63.9038C39.6085 67.4523 41.7611 70.907 44.4292 73.8233C46.9947 76.6375 50.1039 78.877 53.4998 80.5817C61.052 84.381 69.6109 85.3042 77.9572 85.2297C80.1174 85.2102 82.2697 85.1261 84.4261 85.0088C84.8658 84.9876 85.1845 84.5143 85.134 84.1027C85.0775 83.6427 84.6676 83.3736 84.2279 83.3948C75.9514 83.8376 67.3944 83.8643 59.4322 81.2622C56.027 80.1485 52.7558 78.5923 49.852 76.4914C46.8756 74.3338 44.4874 71.629 42.4428 68.587C38.1646 62.2313 35.555 54.7206 34.9453 47.0871C34.804 45.3351 34.6859 43.5064 34.9136 41.7582C35.1351 40.0927 35.6479 38.4652 36.3199 36.9328C36.9097 35.5988 37.6947 34.0525 38.7939 33.1311C39.7588 32.3164 40.9565 31.9973 42.2344 31.9305C45.0362 31.7995 48.0641 32.9759 50.2103 34.7767C51.4424 35.805 52.4034 37.227 53.1526 38.6587C54.0303 40.3367 54.6617 42.1432 55.0439 43.9885C55.8034 47.6388 55.7658 51.469 54.5046 55.007C53.9028 56.711 53.0601 58.3872 51.8681 59.7541C50.7904 60.9842 49.3957 61.9008 47.9038 62.5591C44.8027 63.9229 41.2925 64.2884 37.9294 64.1852C34.6239 64.0832 31.3234 63.4891 28.1793 62.4334C21.9263 60.3423 16.2337 56.5441 12.0213 51.4582C7.68416 46.2239 5.16096 39.751 4.58475 32.9899C4.01151 26.2531 5.36882 19.3611 8.53435 13.3858C9.30598 11.9312 10.1924 10.5445 11.1776 9.22757C11.7946 8.38179 10.517 7.38362 9.89092 8.22231Z" fill="#231F20"/>
<path d="M81.521 91.1086C81.5404 90.9997 81.5689 90.8979 81.5964 90.788C81.5801 90.8556 81.5557 90.9241 81.5394 90.9916C81.7477 90.2861 82.1102 89.6354 82.4575 88.9948C82.817 88.3199 83.1855 87.6521 83.5621 86.9833C83.7778 86.6046 84.0015 86.2249 84.2252 85.8452C84.1917 85.9066 84.1573 85.96 84.1158 86.0224C84.373 85.5813 84.6563 85.1533 84.9043 84.7051C85.2141 84.1592 85.1854 83.4582 84.7578 82.9782C84.454 82.6387 84.0623 82.3837 83.7069 82.0915C83.3797 81.8286 83.0596 81.5566 82.7547 81.2746C82.4044 80.9572 82.0613 80.6307 81.7342 80.3022C81.7815 80.3538 81.8278 80.3972 81.8831 80.4478C80.9856 79.5422 80.1698 78.5693 79.4278 77.5299C79.2197 77.236 79.0106 76.934 78.8086 76.623C78.7061 76.4553 78.4704 76.3369 78.2788 76.3112C78.0782 76.2785 77.8229 76.3344 77.6673 76.4682C77.5117 76.602 77.3782 76.7822 77.3556 76.998C77.3339 77.2218 77.391 77.4196 77.5126 77.6095C78.785 79.5667 80.3372 81.3339 82.0967 82.8544C82.3353 83.0627 82.5809 83.2619 82.8266 83.4611C83.0712 83.6522 83.3391 83.8324 83.5625 84.0507C83.5152 83.9991 83.4689 83.9557 83.4135 83.9051C83.4699 83.9638 83.5181 84.0234 83.5684 84.0991C83.5363 84.0375 83.4961 83.9769 83.4639 83.9153C83.4951 83.9688 83.5182 84.0233 83.5332 84.0788C83.5162 84.0072 83.4992 83.9356 83.4741 83.8649C83.4881 83.9124 83.4951 83.9689 83.4929 84.0183C83.4921 83.9446 83.4913 83.871 83.4985 83.7964C83.4973 83.8539 83.4872 83.9043 83.477 83.9547C83.4932 83.8871 83.5176 83.8186 83.5339 83.7511C83.4993 83.87 83.4467 83.9748 83.3859 84.0806C83.4193 84.0191 83.4537 83.9657 83.4952 83.9033C82.4557 85.6447 81.4071 87.379 80.5077 89.1933C80.2443 89.7171 80.0324 90.2592 79.9151 90.8388C79.8744 91.0404 79.9545 91.2927 80.0721 91.4503C80.1898 91.6079 80.4033 91.7455 80.6019 91.762C81.0535 91.8377 81.4283 91.5541 81.521 91.1086Z" fill="#231F20"/>
</svg>
