<svg width="40" height="40" viewBox="0 0 40 40" fill="none" xmlns="http://www.w3.org/2000/svg">
<circle cx="20" cy="20" r="20" fill="#090930"/>
<path d="M27 13H29C30.1046 13 31 13.8954 31 15V17M27 13H13M27 13C27 15.2091 28.7909 17 31 17M31 17V23M31 23V25C31 26.1046 30.1046 27 29 27H27M31 23C28.7909 23 27 24.7909 27 27M27 27H13M9 23V25C9 26.1046 9.89543 27 11 27H13M9 23V17M9 23C11.2091 23 13 24.7909 13 27M9 17V15C9 13.8954 9.89543 13 11 13H13M9 17C11.2091 17 13 15.2091 13 13M23 20C23 22.2091 21.6569 24 20 24C18.3431 24 17 22.2091 17 20C17 17.7909 18.3431 16 20 16C21.6569 16 23 17.7909 23 20Z" stroke="white" stroke-linecap="round" stroke-linejoin="round"/>
</svg>
