<svg width="879" height="830" viewBox="0 0 879 830" fill="none" xmlns="http://www.w3.org/2000/svg">
<g opacity="0.05">
<path d="M821.426 94H815.575V215H821.426V94Z" fill="#19223F"/>
<path d="M879 151.575H758V157.426H879V151.575Z" fill="#19223F"/>
<path d="M777.778 109.648L773.641 113.785L859.2 199.344L863.337 195.207L777.778 109.648Z" fill="#19223F"/>
<path d="M859.2 109.646L773.641 195.205L777.778 199.342L863.337 113.783L859.2 109.646Z" fill="#19223F"/>
<path d="M763.592 128.984L761.384 134.402L873.442 180.055L875.65 174.637L763.592 128.984Z" fill="#19223F"/>
<path d="M838.637 97.3928L792.983 209.451L798.402 211.659L844.055 99.6004L838.637 97.3928Z" fill="#19223F"/>
<path d="M873.575 129.187L761.323 174.368L763.508 179.796L875.76 134.615L873.575 129.187Z" fill="#19223F"/>
<path d="M798.59 97.3262L793.162 99.5104L838.331 211.762L843.759 209.578L798.59 97.3262Z" fill="#19223F"/>
</g>
<circle cx="125.5" cy="474.5" r="355.5" fill="#FF7661" fill-opacity="0.06"/>
<path d="M796.5 577C838.197 577 872 543.197 872 501.5C872 459.803 838.197 426 796.5 426C754.803 426 721 459.803 721 501.5C721 543.197 754.803 577 796.5 577Z" stroke="#ECE5FF" stroke-width="11" stroke-miterlimit="10"/>
<circle cx="546.5" cy="7.5" r="7.5" fill="#007CF5"/>
<circle cx="239.5" cy="29.5" r="7.5" fill="#FF6B58"/>
<circle cx="104.5" cy="411.5" r="7.5" fill="#AFA1D8"/>
<circle cx="657.5" cy="404.5" r="7.5" fill="#1CD66E"/>
</svg>
