<svg width="191" height="33" viewBox="0 0 191 33" fill="none" xmlns="http://www.w3.org/2000/svg">
<path d="M0.367673 21.9099C0.251721 18.4152 2.82013 15.3455 6.28696 14.8354L54.9904 7.66902L182.296 5.03893C185.833 4.96587 188.725 7.70944 188.843 11.2479C188.967 14.9904 185.951 18.1576 182.211 18.2124L96.6956 19.4658L48.6483 24.2031L7.60818 28.2494C3.78546 28.6263 0.494925 25.7452 0.367673 21.9099Z" fill="#F5CEDA"/>
<path d="M27.7064 23.669C27.7064 19.9886 30.522 16.8544 34.1827 16.4601L76.4181 11.9098L184.27 10.3595C187.788 10.309 190.654 13.0446 190.771 16.5642C190.895 20.3226 187.852 23.4961 184.096 23.5237L112.1 24.0528L71.0806 28.3862L35.025 30.5642C31.0265 30.8058 27.7064 27.6777 27.7064 23.669Z" fill="#F5CEDA"/>
</svg>
