<svg width="143" height="97" viewBox="0 0 143 97" fill="none" xmlns="http://www.w3.org/2000/svg">
<path d="M142.07 1.3029L142.094 16.6574L142.117 39.5846C142.117 40.386 141.188 40.8273 140.561 40.3163L129.689 31.3614C129.283 31.0246 128.691 31.0827 128.354 31.4892L88.0859 80.3401C87.7607 80.7466 87.1568 80.8047 86.7502 80.4679L52.3595 52.1167C51.9529 51.7915 51.3606 51.8496 51.0238 52.2444L14.9953 95.9618C14.6585 96.3567 14.0546 96.4147 13.6597 96.0895L8.20082 91.5947L0.686182 85.4041C0.291286 85.0673 0.233212 84.4749 0.55842 84.0568L48.4918 25.9258C48.8286 25.5193 49.421 25.4612 49.8275 25.7981L84.2183 54.1493C84.6248 54.4861 85.2171 54.428 85.5539 54.0215L113.928 19.5959C114.265 19.1894 114.207 18.597 113.801 18.2602L102.941 9.30535C102.325 8.79431 102.569 7.78384 103.359 7.63285L140.932 0.373731C141.525 0.257585 142.07 0.710558 142.07 1.3029Z" fill="#1CD66E"/>
<path opacity="0.33" d="M142.082 16.6572L142.105 39.5844C142.105 40.3858 141.176 40.8272 140.549 40.3161L129.678 31.3613C129.271 31.0245 128.679 31.0825 128.342 31.4891L88.0743 80.34C87.7491 80.7465 87.1451 80.8046 86.7386 80.4677L52.3479 52.1166C51.9413 51.7914 51.349 51.8494 51.0122 52.2443L14.9837 95.9616C14.6469 96.3565 14.043 96.4146 13.6481 96.0894L8.18921 91.5945C12.2311 79.4457 18.503 66.0541 26.7261 65.0436C41.9993 63.162 39.5137 35.6238 54.1713 42.5577C68.8289 49.4917 83.7885 82.1286 94.4623 63.011C104.892 44.4045 123.789 18.3762 142.082 16.6572Z" fill="#146D38"/>
</svg>
