<svg width="430" height="413" viewBox="0 0 430 413" fill="none" xmlns="http://www.w3.org/2000/svg">
<path d="M384.18 221.979C384.18 224.093 384.145 226.207 384.075 228.309C384.063 228.483 384.063 228.657 384.052 228.82C384.029 229.761 383.982 230.702 383.936 231.631C383.808 234.07 383.645 236.497 383.425 238.913C381.009 266.382 372.751 292.154 359.917 315.023C356.932 320.343 353.691 325.511 350.218 330.494C331.217 357.835 305.212 379.961 274.805 394.27C250.24 405.838 222.795 412.307 193.84 412.307C176.917 412.307 160.517 410.1 144.907 405.954C142.085 405.199 139.286 404.386 136.522 403.515C132.271 402.179 128.078 400.693 123.955 399.067C120.064 397.522 116.243 395.861 112.491 394.084C100.505 388.404 89.2039 381.517 78.7508 373.573C51.0036 352.48 29.2378 323.943 16.3921 290.946C8.06445 269.564 3.51154 246.3 3.51154 221.967C3.51154 199.412 7.43727 177.762 14.6383 157.692C40.9918 84.2068 111.283 31.6392 193.84 31.6392C205.478 31.6392 216.871 32.6845 227.929 34.6822C232.818 35.5649 237.638 36.6334 242.389 37.8878C279.846 47.737 312.773 68.7129 337.454 97.0641C340.973 101.106 344.33 105.299 347.501 109.631C367.501 136.925 380.382 169.748 383.459 205.37C383.75 208.645 383.947 211.944 384.052 215.266C384.121 217.147 384.156 219.052 384.168 220.957C384.18 221.317 384.18 221.642 384.18 221.979Z" fill="#AFA1D8"/>
<path d="M237.278 0.918457H5.30017C2.46621 0.918457 0.189758 3.20653 0.189758 6.04048V327.869C0.189758 330.703 2.47782 332.991 5.30017 332.991H237.278C240.089 332.991 242.4 330.703 242.4 327.869V6.04048C242.4 3.20653 240.089 0.918457 237.278 0.918457ZM227.94 279.343H14.6499V45.2397H227.94V279.343Z" fill="#090930"/>
<path d="M24.894 35.6576C30.5516 35.6576 35.138 31.0711 35.138 25.4135C35.138 19.7559 30.5516 15.1694 24.894 15.1694C19.2363 15.1694 14.6499 19.7559 14.6499 25.4135C14.6499 31.0711 19.2363 35.6576 24.894 35.6576Z" fill="#D9E9F7"/>
<path d="M31.433 296.405C30.8755 298.716 28.9126 300.261 27.3331 301.504L23.5003 304.512C23.3841 304.593 23.2447 304.628 23.1286 304.628C22.9892 304.628 22.8615 304.593 22.7569 304.512L18.9241 301.504C17.3329 300.249 15.3584 298.716 14.8009 296.405C14.3944 294.721 14.8009 292.909 15.8811 291.538C16.8799 290.272 18.3318 289.541 19.8533 289.541C21.0728 289.541 22.1994 289.959 23.1286 290.76C24.0461 289.97 25.1844 289.541 26.3923 289.541C27.9254 289.541 29.3772 290.272 30.3761 291.538C31.433 292.909 31.8279 294.721 31.433 296.405Z" fill="#FF6B58"/>
<path d="M58.8202 300.818C58.7969 300.737 58.8086 300.633 58.8434 300.563C59.5171 299.262 59.8074 297.81 59.6797 296.335C59.3893 292.537 56.2998 289.459 52.5251 289.181C50.2486 288.995 47.9954 289.819 46.381 291.445C44.7549 293.06 43.9303 295.313 44.1161 297.613C44.4297 301.446 47.554 304.523 51.3985 304.756C51.5611 304.767 51.7353 304.767 51.8979 304.767C53.2103 304.767 54.4996 304.442 55.6378 303.827C55.7191 303.78 55.8352 303.78 55.9398 303.815L58.646 304.64C58.9015 304.721 59.1686 304.64 59.3777 304.454C59.5751 304.268 59.6448 304.001 59.5751 303.745L58.8202 300.818ZM57.6587 301.12L58.193 303.246L56.2882 302.654C55.8817 302.514 55.4287 302.572 55.0571 302.77C53.9769 303.362 52.7225 303.629 51.4798 303.536C48.2161 303.339 45.5796 300.737 45.3124 297.485C45.1614 295.545 45.8467 293.652 47.2172 292.27C48.4716 291.027 50.1557 290.33 51.9095 290.33C52.0837 290.33 52.2579 290.354 52.4322 290.365C55.6262 290.621 58.2511 293.222 58.4834 296.416C58.5066 296.602 58.5066 296.777 58.5066 296.951C58.5066 298.019 58.2511 299.041 57.7749 299.994C57.589 300.342 57.5658 300.737 57.6587 301.12Z" fill="white"/>
<path d="M85.8938 290.853C85.8938 290.807 85.8589 290.76 85.8241 290.702C85.8357 290.679 85.8357 290.679 85.8241 290.679C85.8125 290.656 85.8008 290.632 85.7892 290.621C85.766 290.598 85.7428 290.574 85.7079 290.563C85.5918 290.447 85.4756 290.412 85.3363 290.412L70.8993 290.365C70.6554 290.365 70.4464 290.516 70.3418 290.737C70.2605 290.958 70.307 291.225 70.458 291.399L75.4058 296.474L75.5219 296.591C75.6265 296.707 75.8007 296.776 75.9517 296.776C76.0446 296.776 76.1491 296.742 76.242 296.695L76.6486 296.474L78.774 295.313L83.5825 292.677V292.653L85.6266 291.538C85.7079 291.492 85.7776 291.422 85.8473 291.341C85.917 291.201 85.9518 291.004 85.8938 290.853ZM76.0562 295.441L72.3047 291.585L82.9785 291.62L76.0562 295.441Z" fill="white"/>
<path d="M85.8938 290.853C85.8938 290.807 85.8589 290.76 85.8241 290.702C85.8357 290.679 85.8357 290.679 85.8241 290.679C85.8125 290.656 85.8008 290.632 85.7892 290.621C85.7776 290.609 85.7776 290.609 85.7776 290.597C85.7544 290.586 85.7428 290.563 85.7079 290.563C85.5918 290.446 85.4756 290.412 85.3363 290.412C85.2434 290.412 85.1388 290.423 85.0459 290.47L82.9901 291.608L76.0678 295.429L75.6613 295.65C75.4174 295.778 75.3013 296.056 75.371 296.335L75.4058 296.486L77.0551 303.385C77.1015 303.629 77.299 303.803 77.5197 303.838H77.6242C77.8216 303.838 78.0307 303.745 78.1236 303.559L85.8241 291.352C85.917 291.201 85.9519 291.004 85.8938 290.853ZM83.5709 292.676L77.8797 301.689L76.637 296.474L78.7624 295.313L83.5709 292.653V292.676Z" fill="white"/>
<path d="M227.348 289.843H215.722C215.396 289.843 215.129 290.11 215.129 290.447V303.234C215.129 303.467 215.257 303.687 215.478 303.769C215.675 303.862 215.931 303.827 216.128 303.687L221.529 298.925L226.941 303.687C227.057 303.769 227.197 303.815 227.348 303.815C227.429 303.815 227.51 303.803 227.58 303.769C227.801 303.687 227.94 303.455 227.94 303.234V290.447C227.94 290.11 227.661 289.843 227.348 289.843ZM226.732 301.899L221.935 297.671C221.819 297.578 221.668 297.52 221.529 297.52C221.401 297.52 221.239 297.566 221.122 297.671L216.326 301.899V291.051H226.732V301.899Z" fill="white"/>
<path d="M226.732 291.062V301.911L221.935 297.683C221.819 297.578 221.668 297.532 221.529 297.532C221.39 297.532 221.239 297.578 221.122 297.683L216.326 301.911V291.062H226.732Z" fill="white"/>
<path d="M218.579 26.8072C219.24 26.8072 219.775 26.2716 219.775 25.6109C219.775 24.9502 219.24 24.4146 218.579 24.4146C217.918 24.4146 217.383 24.9502 217.383 25.6109C217.383 26.2716 217.918 26.8072 218.579 26.8072Z" fill="white"/>
<path d="M222.656 26.8072C223.316 26.8072 223.852 26.2716 223.852 25.6109C223.852 24.9502 223.316 24.4146 222.656 24.4146C221.995 24.4146 221.459 24.9502 221.459 25.6109C221.459 26.2716 221.995 26.8072 222.656 26.8072Z" fill="white"/>
<path d="M226.744 26.8072C227.405 26.8072 227.94 26.2716 227.94 25.6109C227.94 24.9502 227.405 24.4146 226.744 24.4146C226.083 24.4146 225.548 24.9502 225.548 25.6109C225.548 26.2716 226.083 26.8072 226.744 26.8072Z" fill="white"/>
<path d="M45.0569 26.4353C44.8711 26.5282 44.6504 26.5631 44.3949 26.5631C44.151 26.5631 43.9419 26.5282 43.7561 26.4469C43.5703 26.3656 43.4077 26.2495 43.2683 26.0985C43.1405 25.9475 43.036 25.7733 42.9547 25.5758C42.885 25.3784 42.8502 25.1693 42.8502 24.9487C42.8502 24.7048 42.885 24.5073 42.9547 24.3099C43.0012 24.0892 43.1057 23.9266 43.2218 23.7524C43.3496 23.6014 43.5122 23.462 43.698 23.3807C43.8839 23.2994 44.0929 23.2413 44.3601 23.2413C44.6156 23.2413 44.8246 23.2994 45.0221 23.3807C45.2079 23.462 45.3705 23.6014 45.5447 23.7756L46.2416 23.1368C45.9977 22.8813 45.7422 22.6954 45.417 22.5793C45.0918 22.4515 44.755 22.3818 44.4065 22.3818C44.0349 22.3818 43.6864 22.4515 43.3728 22.5793C43.0708 22.6954 42.8037 22.8696 42.583 23.0903C42.3623 23.3226 42.1997 23.5781 42.0836 23.8917C41.9675 24.2053 41.8978 24.5305 41.8978 24.9022C41.8978 25.2739 41.9675 25.6339 42.0836 25.9359C42.1997 26.2379 42.374 26.505 42.6063 26.7257C42.8269 26.9464 43.0941 27.1206 43.4077 27.2367C43.7096 27.3529 44.0465 27.4226 44.4181 27.4226C44.7782 27.4226 45.115 27.3645 45.417 27.2367C45.7306 27.1322 46.0093 26.9231 46.2416 26.6792L45.5912 26.0172C45.3937 26.2263 45.2312 26.354 45.0569 26.4353Z" fill="white"/>
<path d="M49.366 22.3818C49.215 22.3818 49.0524 22.4051 48.913 22.4515C48.762 22.4864 48.6226 22.5444 48.5065 22.6141C48.3903 22.6954 48.2742 22.7767 48.1581 22.8929C48.0651 22.9858 47.9722 23.1136 47.9025 23.2413H47.8909V22.498H46.985V27.2948H47.8909V24.9022C47.8909 24.3563 48.0071 23.973 48.251 23.7291C48.4833 23.4736 48.8201 23.3458 49.2847 23.3458C49.3427 23.3458 49.4357 23.3575 49.5053 23.3807C49.575 23.3807 49.6563 23.3923 49.726 23.4272L49.7725 22.4283C49.6331 22.4051 49.5053 22.3818 49.366 22.3818Z" fill="white"/>
<path d="M55.0919 24.9255C55.0919 24.6003 55.0571 24.2983 54.9758 24.0196C54.8945 23.706 54.7551 23.4505 54.5577 23.2066C54.3718 22.9511 54.1279 22.7652 53.8492 22.6142C53.5356 22.4632 53.1872 22.3936 52.769 22.3936C52.3974 22.3936 52.0722 22.4632 51.7702 22.5794C51.4682 22.7071 51.201 22.8814 50.9804 23.1137C50.7597 23.3343 50.5855 23.6015 50.4693 23.9034C50.3416 24.217 50.2835 24.5422 50.2835 24.9023C50.2835 25.2507 50.33 25.5876 50.4461 25.9011C50.5623 26.2264 50.7132 26.4703 50.9339 26.7142C51.1546 26.9348 51.3985 27.1091 51.7121 27.2368C52.0141 27.3762 52.3741 27.4343 52.7458 27.4343C53.6517 27.4343 54.3602 27.0975 54.8713 26.4354L54.1744 25.9128C54.0118 26.1334 53.8027 26.3077 53.6053 26.4354C53.4078 26.5632 53.1523 26.6329 52.8619 26.6329C52.6645 26.6329 52.4554 26.598 52.258 26.5283C52.0722 26.4703 51.8863 26.3657 51.7585 26.238C51.6076 26.1218 51.4798 25.9708 51.3869 25.8082C51.294 25.6456 51.2475 25.4366 51.2475 25.2391H55.1036V24.9255H55.0919ZM51.2359 24.519C51.2359 24.3564 51.2707 24.1938 51.352 24.0312C51.4217 23.8686 51.5147 23.706 51.6424 23.5782C51.7702 23.4505 51.9328 23.3343 52.1186 23.253C52.3044 23.1717 52.5019 23.1253 52.7458 23.1253C52.9665 23.1253 53.1639 23.1601 53.3381 23.2182C53.5007 23.3111 53.6633 23.3924 53.7795 23.5318C53.8724 23.6479 53.9769 23.7989 54.035 23.9731C54.0815 24.1357 54.1163 24.3216 54.1279 24.5306H51.2359V24.519Z" fill="white"/>
<path d="M60.1211 26.9V23.9964C60.1211 23.7757 60.0978 23.5782 60.0049 23.3924C59.9236 23.2066 59.8075 23.0207 59.6565 22.8814C59.4939 22.7304 59.2848 22.6142 59.0293 22.5329C58.7738 22.4284 58.4718 22.3936 58.1117 22.3936C57.7749 22.3936 57.4381 22.4516 57.1013 22.5562C56.7645 22.6723 56.4625 22.8697 56.2069 23.102L56.7645 23.6595C56.8225 23.6131 56.9155 23.5434 57.02 23.4737C57.1013 23.404 57.2058 23.3576 57.3103 23.3111C57.4033 23.253 57.5426 23.2066 57.6588 23.1717C57.7981 23.1369 57.9491 23.1253 58.135 23.1253C58.3208 23.1253 58.4834 23.1601 58.6344 23.2066C58.7622 23.2763 58.8899 23.3343 58.9945 23.4505C59.0758 23.5434 59.1454 23.6479 59.1919 23.7757C59.2384 23.9034 59.25 24.0312 59.25 24.1474V24.3448H58.5879C58.2163 24.3448 57.8795 24.368 57.5542 24.4261C57.229 24.4842 56.9503 24.5771 56.718 24.7165C56.4741 24.8442 56.2883 25.0184 56.1605 25.2159C56.0095 25.4366 55.9398 25.6805 55.9398 25.9941C55.9398 26.238 55.9863 26.447 56.0676 26.6213C56.1489 26.8071 56.265 26.9581 56.4276 27.0742C56.5786 27.1904 56.7645 27.2949 56.9619 27.353C57.1594 27.411 57.3684 27.4459 57.6007 27.4459C57.9492 27.4459 58.2743 27.3878 58.5647 27.2484C58.8435 27.1323 59.0641 26.9116 59.2732 26.5864H59.2964C59.2964 26.8419 59.3081 27.0742 59.3197 27.3181H60.1327C60.1443 27.1788 60.1443 27.051 60.1211 26.9ZM59.2616 25.3088C59.2616 25.4598 59.25 25.634 59.2035 25.7966C59.1571 25.9592 59.0874 26.1102 58.9596 26.238C58.8667 26.3657 58.7273 26.4935 58.5415 26.5748C58.3789 26.6561 58.1466 26.6909 57.8911 26.6909C57.5891 26.6909 57.3336 26.6445 57.1477 26.5283C56.9619 26.4006 56.8574 26.2031 56.8574 25.9244C56.8574 25.7385 56.9271 25.5876 57.0432 25.4714C57.1593 25.3437 57.3103 25.2507 57.4962 25.181C57.682 25.123 57.8795 25.0649 58.1001 25.0533C58.3324 25.0184 58.5647 25.0184 58.7854 25.0184H59.25V25.3088H59.2616Z" fill="white"/>
<path d="M63.7332 26.54C63.617 26.5749 63.5125 26.5749 63.3963 26.5749C63.2337 26.5749 63.0944 26.5401 63.0131 26.4936C62.9085 26.4355 62.8388 26.3426 62.8156 26.2381C62.7575 26.1219 62.7343 25.9942 62.7343 25.878C62.7343 25.7503 62.7111 25.6109 62.7111 25.4831V23.2996H64.0235V22.4982H62.7111V21.1509H61.8051V22.4982H60.7598V23.2996H61.8051V25.7967C61.8051 25.9942 61.8168 26.1916 61.84 26.3891C61.8516 26.5749 61.8981 26.7375 62.0026 26.8885C62.0839 27.0511 62.2233 27.1788 62.4207 27.2834C62.6066 27.3763 62.8737 27.4344 63.2337 27.4344C63.3267 27.4344 63.4777 27.4228 63.6403 27.3995C63.8029 27.3763 63.9422 27.3415 64.0584 27.2718V26.4471C63.9655 26.4936 63.8609 26.5284 63.7332 26.54Z" fill="white"/>
<path d="M69.8657 23.9267C69.7495 23.6131 69.5637 23.3576 69.3314 23.1253C69.1107 22.893 68.8436 22.7071 68.53 22.591C68.2164 22.4632 67.8796 22.3936 67.5311 22.3936C67.1827 22.3936 66.8343 22.4632 66.5207 22.591C66.2071 22.7071 65.9516 22.9046 65.7076 23.1253C65.487 23.3459 65.3011 23.6131 65.1734 23.9267C65.0572 24.2286 64.9875 24.5539 64.9875 24.9023C64.9875 25.2507 65.0572 25.5876 65.1734 25.9011C65.3011 26.2031 65.4986 26.4703 65.7076 26.6909C65.9516 26.9349 66.2071 27.0974 66.5207 27.2252C66.8343 27.3646 67.1827 27.4227 67.5311 27.4227C67.8912 27.4227 68.228 27.3646 68.53 27.2252C68.8436 27.0974 69.1223 26.9232 69.3314 26.6909C69.5753 26.4703 69.7611 26.2031 69.8657 25.9011C70.005 25.5876 70.0631 25.2623 70.0631 24.9023C70.0747 24.5539 70.005 24.2286 69.8657 23.9267ZM68.9946 25.5759C68.9133 25.7734 68.8087 25.9592 68.6694 26.0986C68.5416 26.2496 68.3674 26.3657 68.1816 26.447C67.9841 26.5283 67.7634 26.5632 67.5195 26.5632C67.264 26.5632 67.0549 26.5283 66.8575 26.447C66.66 26.3657 66.4858 26.2496 66.3581 26.0986C66.2303 25.9592 66.1258 25.7734 66.0561 25.5759C65.9748 25.3785 65.9399 25.1578 65.9399 24.9023C65.9399 24.6584 65.9748 24.4377 66.0561 24.217C66.1142 24.0196 66.2187 23.8454 66.3581 23.6944C66.4858 23.5666 66.66 23.4389 66.8575 23.3575C67.0433 23.2762 67.264 23.2298 67.5195 23.2298C67.7634 23.2298 67.9725 23.2762 68.1816 23.3575C68.3674 23.4389 68.5416 23.555 68.6694 23.6944C68.8087 23.8454 68.9017 24.0196 68.9946 24.217C69.0643 24.4377 69.0991 24.6584 69.0991 24.9023C69.0991 25.1578 69.0643 25.3785 68.9946 25.5759Z" fill="white"/>
<path d="M73.5823 22.3818C73.4313 22.3818 73.292 22.4051 73.141 22.4515C72.99 22.4864 72.8506 22.5444 72.7345 22.6141C72.6067 22.6954 72.479 22.7767 72.386 22.8929C72.2815 22.9858 72.2234 23.1136 72.1421 23.2413H72.1189V22.498H71.213V27.2948H72.1189V24.9022C72.1189 24.3563 72.235 23.973 72.479 23.7291C72.7229 23.4736 73.0481 23.3458 73.4894 23.3458C73.5707 23.3458 73.6404 23.3575 73.7217 23.3807C73.7914 23.3807 73.8611 23.3923 73.9424 23.4272L73.9772 22.4283C73.8727 22.4051 73.7333 22.3818 73.5823 22.3818Z" fill="white"/>
<path d="M77.7403 26.4353C77.5545 26.5282 77.3338 26.5631 77.0783 26.5631C76.846 26.5631 76.6253 26.5282 76.4395 26.4469C76.2537 26.3656 76.0911 26.2495 75.9517 26.0985C75.8239 25.9475 75.7194 25.7733 75.6497 25.5758C75.5684 25.3784 75.5336 25.1693 75.5336 24.9487C75.5336 24.7048 75.5684 24.5073 75.6381 24.3099C75.6846 24.0892 75.7891 23.9266 75.9052 23.7524C76.033 23.6014 76.1956 23.462 76.3814 23.3807C76.5673 23.2994 76.7763 23.2413 77.0435 23.2413C77.299 23.2413 77.5081 23.2994 77.7055 23.3807C77.8913 23.462 78.0539 23.6014 78.2282 23.7756L78.925 23.1368C78.6811 22.8813 78.4256 22.6954 78.1004 22.5793C77.7752 22.4515 77.4384 22.3818 77.0899 22.3818C76.7183 22.3818 76.3698 22.4515 76.0562 22.5793C75.7543 22.6954 75.4871 22.8696 75.2664 23.0903C75.0458 23.3226 74.8832 23.5781 74.767 23.8917C74.6509 24.2053 74.5812 24.5305 74.5812 24.9022C74.5812 25.2739 74.6509 25.6339 74.767 25.9359C74.8832 26.2379 75.0574 26.505 75.2897 26.7257C75.5103 26.9464 75.7775 27.1206 76.0911 27.2367C76.3931 27.3529 76.7299 27.4226 77.1015 27.4226C77.4616 27.4226 77.7984 27.3645 78.1004 27.2367C78.414 27.1322 78.6927 26.9231 78.925 26.6792L78.2862 26.0172C78.0772 26.2263 77.9262 26.354 77.7403 26.4353Z" fill="white"/>
<path d="M84.3491 23.9267C84.2097 23.6131 84.0355 23.3576 83.8032 23.1253C83.5709 22.893 83.3154 22.7071 83.0018 22.591C82.6882 22.4632 82.363 22.3936 82.0029 22.3936C81.6313 22.3936 81.3177 22.4632 80.9925 22.591C80.6789 22.7071 80.4234 22.9046 80.1794 23.1253C79.9588 23.3459 79.7729 23.6131 79.6452 23.9267C79.5174 24.2286 79.4594 24.5539 79.4594 24.9023C79.4594 25.2507 79.5174 25.5876 79.6452 25.9011C79.7729 26.2031 79.9704 26.4703 80.1794 26.6909C80.4234 26.9349 80.6789 27.0974 80.9925 27.2252C81.3177 27.3646 81.6313 27.4227 82.0029 27.4227C82.363 27.4227 82.6998 27.3646 83.0018 27.2252C83.3154 27.0974 83.5709 26.9232 83.8032 26.6909C84.0471 26.4703 84.2097 26.2031 84.3491 25.9011C84.4769 25.5876 84.5465 25.2623 84.5465 24.9023C84.5465 24.5539 84.4769 24.2286 84.3491 23.9267ZM83.4664 25.5759C83.3851 25.7734 83.2805 25.9592 83.1412 26.0986C83.0134 26.2496 82.8392 26.3657 82.6534 26.447C82.4559 26.5283 82.2352 26.5632 81.9913 26.5632C81.7358 26.5632 81.5267 26.5283 81.3293 26.447C81.1319 26.3657 80.9576 26.2496 80.8299 26.0986C80.7021 25.9592 80.586 25.7734 80.5279 25.5759C80.4466 25.3785 80.4118 25.1578 80.4118 24.9023C80.4118 24.6584 80.4466 24.4377 80.5279 24.217C80.586 24.0196 80.6905 23.8454 80.8299 23.6944C80.9576 23.5666 81.1319 23.4389 81.3293 23.3575C81.5151 23.2762 81.7358 23.2298 81.9913 23.2298C82.2352 23.2298 82.4443 23.2762 82.6534 23.3575C82.8392 23.4389 83.0134 23.555 83.1412 23.6944C83.2805 23.8454 83.3851 24.0196 83.4664 24.217C83.5361 24.4377 83.5709 24.6584 83.5709 24.9023C83.5709 25.1578 83.5361 25.3785 83.4664 25.5759Z" fill="white"/>
<path d="M86.881 26.238C86.7532 26.1102 86.5907 26.0405 86.4164 26.0405C86.2538 26.0405 86.068 26.1102 85.9402 26.238C85.8241 26.3541 85.7544 26.5283 85.7544 26.6909C85.7544 26.8768 85.8125 27.051 85.9402 27.1671C86.068 27.2949 86.2538 27.3646 86.4164 27.3646C86.6023 27.3646 86.7532 27.2949 86.881 27.1671C87.0088 27.051 87.0785 26.8768 87.0785 26.6909C87.0785 26.5283 87.0088 26.3541 86.881 26.238Z" fill="white"/>
<path d="M91.4572 26.4353C91.2714 26.5282 91.0623 26.5631 90.7952 26.5631C90.5629 26.5631 90.3654 26.5282 90.1564 26.4469C89.9705 26.3656 89.7963 26.2495 89.6802 26.0985C89.5524 25.9475 89.4246 25.7733 89.3666 25.5758C89.2969 25.3784 89.2504 25.1693 89.2504 24.9487C89.2504 24.7048 89.2736 24.5073 89.3433 24.3099C89.413 24.0892 89.4943 23.9266 89.6337 23.7524C89.7498 23.6014 89.9124 23.462 90.0867 23.3807C90.2725 23.2994 90.4932 23.2413 90.7487 23.2413C91.0042 23.2413 91.2249 23.2994 91.4107 23.3807C91.5966 23.462 91.7824 23.6014 91.945 23.7756L92.6419 23.1368C92.398 22.8813 92.1192 22.6954 91.8056 22.5793C91.4804 22.4515 91.1436 22.3818 90.7952 22.3818C90.4235 22.3818 90.0867 22.4515 89.7847 22.5793C89.4711 22.6954 89.2156 22.8696 88.9949 23.0903C88.7742 23.3226 88.6116 23.5781 88.4722 23.8917C88.3561 24.2053 88.3096 24.5305 88.3096 24.9022C88.3096 25.2739 88.3561 25.6339 88.4722 25.9359C88.6116 26.2379 88.7858 26.505 88.9949 26.7257C89.2156 26.9464 89.4827 27.1206 89.7847 27.2367C90.0983 27.3529 90.4467 27.4226 90.7952 27.4226C91.1552 27.4226 91.492 27.3645 91.8056 27.2367C92.1076 27.1322 92.3747 26.9231 92.607 26.6792L91.9682 26.0172C91.8056 26.2263 91.643 26.354 91.4572 26.4353Z" fill="white"/>
<path d="M98.0775 23.9267C97.9381 23.6131 97.7523 23.3576 97.5316 23.1253C97.2993 22.893 97.0322 22.7071 96.7302 22.591C96.405 22.4632 96.0682 22.3936 95.7197 22.3936C95.3597 22.3936 95.0229 22.4632 94.7209 22.591C94.3957 22.7071 94.1285 22.9046 93.9079 23.1253C93.664 23.3459 93.4897 23.6131 93.3736 23.9267C93.2458 24.2286 93.1761 24.5539 93.1761 24.9023C93.1761 25.2507 93.2458 25.5876 93.3736 25.9011C93.4897 26.2031 93.6756 26.4703 93.9079 26.6909C94.1285 26.9349 94.3957 27.0974 94.7209 27.2252C95.0229 27.3646 95.3597 27.4227 95.7197 27.4227C96.0798 27.4227 96.4166 27.3646 96.7302 27.2252C97.0322 27.0974 97.2993 26.9232 97.5316 26.6909C97.7523 26.4703 97.9381 26.2031 98.0775 25.9011C98.1936 25.5876 98.2633 25.2623 98.2633 24.9023C98.2633 24.5539 98.1936 24.2286 98.0775 23.9267ZM97.1832 25.5759C97.1135 25.7734 96.9973 25.9592 96.858 26.0986C96.7302 26.2496 96.5676 26.3657 96.3702 26.447C96.1843 26.5283 95.952 26.5632 95.7081 26.5632C95.4642 26.5632 95.2552 26.5283 95.0461 26.447C94.8486 26.3657 94.686 26.2496 94.5583 26.0986C94.4305 25.9592 94.3144 25.7734 94.2331 25.5759C94.175 25.3785 94.1402 25.1578 94.1402 24.9023C94.1402 24.6584 94.175 24.4377 94.2331 24.217C94.3144 24.0196 94.4189 23.8454 94.5583 23.6944C94.686 23.5666 94.8486 23.4389 95.0461 23.3575C95.2435 23.2762 95.4642 23.2298 95.7081 23.2298C95.952 23.2298 96.1843 23.2762 96.3702 23.3575C96.5676 23.4389 96.7302 23.555 96.858 23.6944C96.9857 23.8454 97.1135 24.0196 97.1832 24.217C97.2412 24.4377 97.2993 24.6584 97.2993 24.9023C97.2993 25.1578 97.2412 25.3785 97.1832 25.5759Z" fill="white"/>
<path d="M106.591 23.7175C106.533 23.462 106.452 23.2413 106.312 23.0322C106.184 22.8348 105.987 22.6838 105.755 22.5677C105.522 22.4399 105.22 22.3818 104.849 22.3818C104.558 22.3818 104.28 22.4515 103.989 22.6025C103.699 22.7535 103.49 22.9742 103.327 23.2762C103.165 22.9742 102.979 22.7535 102.723 22.6025C102.479 22.4515 102.177 22.3818 101.829 22.3818C101.608 22.3818 101.399 22.4167 101.237 22.4864C101.051 22.5328 100.9 22.6141 100.772 22.707C100.644 22.8116 100.528 22.8929 100.447 22.9974C100.366 23.1019 100.319 23.1832 100.296 23.2529H100.284V22.5096H99.4248V27.3064H100.331V24.8209C100.331 24.5422 100.366 24.3099 100.435 24.1008C100.493 23.9033 100.598 23.7524 100.702 23.613C100.819 23.4852 100.958 23.3923 101.109 23.3226C101.26 23.2645 101.411 23.2297 101.585 23.2297C101.806 23.2297 101.98 23.2762 102.108 23.3458C102.247 23.4272 102.34 23.5317 102.421 23.6711C102.503 23.822 102.538 23.973 102.572 24.1589C102.596 24.3563 102.607 24.5538 102.607 24.7977V27.2948H103.513V24.6699C103.513 24.2518 103.594 23.8917 103.804 23.6246C103.989 23.3459 104.315 23.2181 104.733 23.2181C104.977 23.2181 105.139 23.2646 105.267 23.3342C105.395 23.4155 105.511 23.5201 105.592 23.6362C105.662 23.764 105.708 23.9266 105.743 24.0892C105.755 24.2518 105.766 24.426 105.766 24.6118V27.2832H106.684V24.4957C106.672 24.2518 106.637 23.973 106.591 23.7175Z" fill="white"/>
<path d="M115.221 23.7175C115.163 23.462 115.081 23.2413 114.942 23.0322C114.814 22.8348 114.617 22.6838 114.384 22.5677C114.152 22.4399 113.85 22.3818 113.478 22.3818C113.188 22.3818 112.909 22.4515 112.619 22.6025C112.329 22.7535 112.12 22.9742 111.957 23.2762C111.806 22.9742 111.609 22.7535 111.353 22.6025C111.121 22.4515 110.819 22.3818 110.459 22.3818C110.238 22.3818 110.052 22.4167 109.866 22.4864C109.68 22.5328 109.529 22.6141 109.402 22.707C109.286 22.8116 109.158 22.8929 109.077 22.9974C108.995 23.1019 108.949 23.1832 108.926 23.2529H108.914V22.5096H108.054V27.3064H108.96V24.8209C108.96 24.5422 108.995 24.3099 109.065 24.1008C109.123 23.9033 109.228 23.7524 109.332 23.613C109.448 23.4852 109.588 23.3923 109.739 23.3226C109.89 23.2645 110.041 23.2297 110.215 23.2297C110.435 23.2297 110.61 23.2762 110.749 23.3458C110.865 23.4272 110.97 23.5317 111.051 23.6711C111.121 23.822 111.167 23.973 111.179 24.1589C111.202 24.3563 111.214 24.5538 111.214 24.7977V27.2948H112.12V24.6699C112.12 24.2518 112.224 23.8917 112.41 23.6246C112.596 23.3459 112.921 23.2181 113.351 23.2181C113.571 23.2181 113.746 23.2646 113.873 23.3342C114.024 23.4155 114.129 23.5201 114.199 23.6362C114.268 23.764 114.315 23.9266 114.35 24.0892C114.361 24.2518 114.373 24.426 114.373 24.6118V27.2832H115.29V24.4957C115.302 24.2518 115.267 23.973 115.221 23.7175Z" fill="white"/>
<path d="M120.017 22.498V24.9603C120.017 25.2507 119.983 25.483 119.925 25.6921C119.855 25.8895 119.774 26.0637 119.646 26.1915C119.518 26.3309 119.379 26.4122 119.216 26.4818C119.065 26.5283 118.868 26.5632 118.693 26.5632C118.554 26.5632 118.415 26.5515 118.287 26.5051C118.159 26.4702 118.031 26.4005 117.927 26.3076C117.834 26.2031 117.741 26.0637 117.695 25.9127C117.625 25.7617 117.59 25.5643 117.59 25.3436V22.5097H116.684V25.5991C116.684 25.9243 116.731 26.1915 116.835 26.4354C116.916 26.6677 117.056 26.8535 117.207 27.0045C117.369 27.1555 117.555 27.26 117.764 27.3181C117.962 27.3994 118.206 27.4342 118.45 27.4342C118.821 27.4342 119.135 27.3529 119.425 27.1903C119.715 27.0277 119.901 26.8187 120.017 26.5632H120.029V27.2949H120.935V22.498H120.017Z" fill="white"/>
<path d="M126.429 23.404C126.336 23.1601 126.208 22.9627 126.045 22.8349C125.894 22.6839 125.709 22.5562 125.488 22.4981C125.29 22.4284 125.058 22.3936 124.826 22.3936C124.454 22.3936 124.117 22.4748 123.85 22.6375C123.56 22.7884 123.362 23.0091 123.246 23.2646H123.223V22.5213H122.317V27.3181H123.223V24.8558C123.223 24.5771 123.258 24.3332 123.328 24.1241C123.386 23.9267 123.49 23.7757 123.618 23.6363C123.734 23.5085 123.874 23.404 124.036 23.3459C124.199 23.2879 124.373 23.253 124.559 23.253C124.71 23.253 124.849 23.2879 124.977 23.3227C125.093 23.3692 125.209 23.4389 125.314 23.5434C125.418 23.6363 125.5 23.7641 125.569 23.9267C125.627 24.0777 125.651 24.2751 125.651 24.4842V27.3181H126.568V24.2286C126.568 23.9034 126.522 23.6131 126.429 23.404Z" fill="white"/>
<path d="M128.961 20.3146C128.821 20.1869 128.67 20.1172 128.484 20.1172C128.299 20.1172 128.148 20.1869 128.02 20.3146C127.881 20.4424 127.822 20.605 127.822 20.7792C127.822 20.965 127.881 21.1277 128.02 21.2554C128.148 21.3832 128.31 21.4529 128.484 21.4529C128.67 21.4529 128.821 21.3832 128.961 21.2554C129.088 21.1277 129.146 20.965 129.146 20.7792C129.135 20.5934 129.088 20.4424 128.961 20.3146ZM128.02 22.4982V27.295H128.926V22.4982H128.02Z" fill="white"/>
<path d="M132.666 26.54C132.55 26.5749 132.445 26.5749 132.329 26.5749C132.166 26.5749 132.015 26.5401 131.934 26.4936C131.841 26.4355 131.771 26.3426 131.737 26.2381C131.69 26.1219 131.679 25.9942 131.655 25.878V23.2996H132.956V22.4982H131.655V21.1509H130.749V22.4982H129.681V23.2996H130.749V25.7967C130.749 25.9942 130.749 26.1916 130.773 26.3891C130.784 26.5749 130.831 26.7375 130.935 26.8885C131.016 27.0511 131.167 27.1788 131.353 27.2834C131.539 27.3763 131.806 27.4344 132.166 27.4344C132.259 27.4344 132.399 27.4228 132.573 27.3995C132.735 27.3763 132.875 27.3415 132.991 27.2718V26.4471C132.886 26.4936 132.782 26.5284 132.666 26.54Z" fill="white"/>
<path d="M137.428 22.498L136.057 26.2496H136.034L134.594 22.498H133.548L135.535 27.3297L135.233 28.0847C135.198 28.2008 135.151 28.3286 135.105 28.4099C135.047 28.5144 135 28.5957 134.919 28.6654C134.849 28.7351 134.768 28.7931 134.675 28.828C134.582 28.8628 134.454 28.8861 134.303 28.8861C134.141 28.8861 133.955 28.8512 133.769 28.7699L133.676 29.6062C133.792 29.6526 133.932 29.6875 134.06 29.7107C134.187 29.7223 134.338 29.7223 134.466 29.7223C134.722 29.7223 134.931 29.6875 135.105 29.6294C135.267 29.5597 135.418 29.4784 135.535 29.3506C135.651 29.2229 135.755 29.0719 135.848 28.9093C135.941 28.7235 136.011 28.5376 136.104 28.3402L138.38 22.498H137.428Z" fill="white"/>
<path d="M265.85 297.706C265.583 296.893 265.374 295.766 265.432 294.28C265.548 295.406 265.699 296.545 265.85 297.706Z" fill="#090930"/>
<path d="M269.741 312.422C270.589 311.69 271.936 310.842 273.609 310.006C273.597 310.97 273.574 311.969 273.551 312.979C272.749 313.513 271.994 314.083 271.297 314.687C271.297 314.687 270.601 317.567 269.067 313.27C269.23 312.968 269.451 312.677 269.741 312.422Z" fill="#080830"/>
<path d="M277.953 261.852C277.743 259.935 277.674 258.1 277.755 256.393C278.127 258.182 278.162 260.005 277.953 261.852Z" fill="#080830"/>
<path d="M355.236 177.379C353.494 180.015 353.854 184.266 352.762 186.926C352.286 188.076 351.554 188.935 350.253 189.226C346.014 190.178 341.554 190.12 337.257 189.62C331.24 188.924 325.572 186.066 319.486 185.95C310.706 185.788 303.075 191.281 294.283 191.2C289.776 191.154 285.072 189.702 281.75 186.81C280.67 185.869 279.741 184.777 279.009 183.546C274.828 176.496 282.331 169.225 279.439 162.105C277.848 158.168 274.387 155.88 274.805 151.234C275.142 147.413 277.383 143.847 278.51 140.2C279.776 136.077 277.302 130.967 278.533 126.937C280.728 119.735 286.942 118.469 289.044 114.497C291.367 110.084 290.276 109.433 292.808 105.182C297.233 97.7491 305.584 92.9406 314.504 92.3366C314.945 92.3018 315.386 92.2902 315.828 92.2786C320.671 92.1857 325.688 92.6735 330.299 94.0208C340.59 97.0173 348.871 104.265 348.813 118.771C348.801 122.07 347.884 125.496 348.697 128.76C350.009 134.01 356.514 136.751 356.235 142.57C356.153 144.324 355.631 146.031 355.213 147.75C353.796 153.65 355.399 157.762 357.768 163.116C360.718 169.841 359.638 170.689 355.236 177.379Z" fill="#B7461A"/>
<path opacity="0.55" d="M314.48 92.3364C308.313 94.3225 301.147 97.563 299.823 102.104C299.683 102.58 299.602 103.092 299.602 103.591C299.602 112.871 292.355 123.626 285.374 131.141C281.716 135.09 280.798 138.423 281.704 142.988C281.983 144.428 282.447 145.996 283.051 147.738C284.19 150.99 285.839 154.881 287.825 159.782C294.213 175.636 287.825 180.433 287.825 180.433L281.75 186.809C280.67 185.869 279.741 184.777 279.009 183.546C274.828 176.496 282.331 169.225 279.439 162.105C277.848 158.168 274.387 155.88 274.805 151.234C275.142 147.413 277.383 143.847 278.51 140.2C279.776 136.077 277.302 130.967 278.533 126.936C280.728 119.735 286.942 118.469 289.044 114.497C291.367 110.084 290.276 109.433 292.808 105.182C297.198 97.7488 305.56 92.9288 314.48 92.3364Z" fill="#C76D4D"/>
<path d="M338.453 167.146C335.956 166.821 331.147 167.03 324.481 171.037C318.987 174.336 307.93 175.834 301.077 175.555C295.328 175.323 292.54 173.813 298.557 171.037C298.615 171.014 298.661 170.991 298.708 170.967C300.915 169.922 302.645 168.575 303.992 167.042C310.543 159.631 308.034 148.145 308.034 148.145C308.034 148.145 310.531 144.405 313.644 140.816C318.278 135.45 324.272 130.432 325.27 138.795C325.41 139.98 325.445 141.443 325.375 143.208C325.247 146.193 325.41 148.818 325.805 151.118C327.698 162.384 334.922 166.031 338.453 167.146Z" fill="#F8D0BC"/>
<path d="M340.416 167.622C340.416 167.622 339.649 167.529 338.453 167.146C339.742 167.309 340.416 167.622 340.416 167.622Z" fill="#007CF5"/>
<path opacity="0.51" d="M325.793 151.13C324.028 151.618 320.508 152.477 318.65 153.232C314.689 154.846 312.111 156.891 310.613 159.852C310.009 161.049 309.103 162.094 308.197 163.081C306.896 164.498 305.479 165.822 303.992 167.042C310.543 159.632 308.034 148.145 308.034 148.145C308.034 148.145 310.531 144.405 313.644 140.816C314.829 140.433 315.967 140.119 316.815 139.991C318.801 139.689 322.808 139.027 325.259 138.807C325.398 139.991 325.433 141.455 325.363 143.22C325.236 146.205 325.398 148.83 325.793 151.13Z" fill="#BA9C8D"/>
<path d="M298.94 112.36C296.536 120.072 295.34 129.12 297.233 136.158C298.812 142.035 301.193 150.572 308.15 151.246C321.751 152.57 326.037 145.589 330.427 139.886C335.305 133.557 336.49 127.645 335.898 119.933C335.456 114.195 334.19 108.516 332.158 103.08C331.484 101.28 330.671 99.4329 329.092 98.1902C322.483 92.9868 312.285 97.7953 306.443 102.569C302.924 105.426 300.287 108.063 298.94 112.36Z" fill="#F8D0BC"/>
<path d="M344.736 138.993C342.623 161.362 330.195 160.921 331.844 136.786C333.482 112.651 318.65 109.317 318.65 109.317C318.65 109.317 316.861 113.754 303.992 118.667C288.197 124.707 304.213 153.569 304.213 153.569C304.213 153.569 288.986 149.69 283.051 147.738C282.447 145.996 281.983 144.428 281.704 142.988C282.564 140.096 283.888 135.822 285.374 131.141C292.355 123.626 299.602 112.871 299.602 103.591C299.602 103.08 299.672 102.581 299.823 102.105C307.024 99.4217 319.417 94.4971 319.417 94.4971L330.439 96.2625C330.427 96.2625 346.85 116.634 344.736 138.993Z" fill="#B7461A"/>
<path opacity="0.55" d="M355.236 177.379C353.494 180.015 353.854 184.266 352.762 186.926C350.381 187.065 343.041 186.206 346.932 179.074C351.078 171.502 349.266 163.441 342.622 149.132C335.991 134.835 344.225 126.948 343.83 113.603C343.587 105.345 336.002 98.2254 330.265 94.0093C340.555 97.0058 348.836 104.253 348.778 118.76C348.767 122.058 347.849 125.485 348.662 128.749C349.975 133.998 356.479 136.739 356.2 142.558C356.119 144.312 355.596 146.019 355.178 147.738C353.761 153.639 355.364 157.75 357.733 163.104C360.718 169.841 359.638 170.689 355.236 177.379Z" fill="#C76D4D"/>
<path d="M344.899 225.846C344.899 225.846 335.538 245.405 335.538 259.993C335.538 259.993 335.851 260.481 336.409 261.398C339.696 266.846 351.624 287.589 359.928 315.023C356.943 320.342 353.703 325.511 350.23 330.493C331.229 357.834 305.224 379.96 274.817 394.269C274.561 383.27 274.178 364.211 273.853 343.374C273.853 343.304 273.853 343.235 273.841 343.165C273.597 325.999 273.4 307.624 273.4 291.561C273.4 289.378 273.4 287.264 273.411 285.173C273.411 284.14 273.423 283.129 273.423 282.13V281.701C273.446 277.891 273.481 274.29 273.539 270.945C273.562 269.935 273.585 268.936 273.597 267.972C275.246 267.136 277.209 266.323 279.288 265.614C280.241 265.289 281.321 265.01 282.459 264.778C282.842 264.697 283.226 264.627 283.62 264.569C283.632 264.569 283.632 264.569 283.632 264.569C284.027 264.511 284.422 264.453 284.817 264.406C284.828 264.406 284.828 264.406 284.828 264.406C286.629 264.186 288.499 264.116 290.252 264.244C290.543 264.267 290.833 264.29 291.123 264.325C291.286 264.337 291.449 264.36 291.611 264.383C291.727 264.395 291.844 264.406 291.971 264.43C292.157 264.453 292.343 264.488 292.529 264.523C292.552 264.534 292.587 264.534 292.622 264.546C292.645 264.546 292.657 264.557 292.668 264.557C292.866 264.604 293.063 264.639 293.261 264.685C293.458 264.732 293.655 264.778 293.853 264.836C293.864 264.836 293.864 264.848 293.876 264.848C293.957 264.871 294.027 264.894 294.097 264.906L294.085 264.883C294.05 264.836 293.969 264.662 293.83 264.406C291.878 260.701 279.764 237.019 277.952 219.818C278.173 217.971 278.127 216.136 277.755 214.348C276.35 207.658 275.095 201.827 278.638 195.834C279.021 195.195 279.474 194.556 279.985 193.941V193.929C279.985 193.918 279.997 193.918 279.997 193.918C280.124 193.755 280.264 193.592 280.403 193.43C280.531 193.267 280.682 193.105 280.821 192.942C281.39 192.303 281.994 191.664 282.598 191.026C282.749 190.863 282.9 190.712 283.051 190.549C283.609 189.957 284.143 189.353 284.643 188.761C285.363 187.901 286.001 187.03 286.489 186.113C286.571 185.973 286.64 185.834 286.71 185.683C286.838 185.404 286.965 185.137 287.058 184.858C287.116 184.707 287.163 184.545 287.209 184.394C287.256 184.243 287.302 184.08 287.337 183.917C287.36 183.766 287.395 183.627 287.43 183.464C287.442 183.395 287.453 183.337 287.465 183.267C287.511 182.988 287.558 182.721 287.593 182.442C287.651 181.955 287.709 181.478 287.744 180.991C287.755 180.828 287.767 180.665 287.79 180.503V180.491C287.837 180.015 287.871 179.55 287.918 179.086C287.918 179.074 287.918 179.063 287.929 179.039C287.941 178.877 287.964 178.726 287.976 178.563C288.034 178.087 288.104 177.622 288.208 177.158C288.231 177.042 288.266 176.925 288.289 176.821C288.475 176.066 288.719 175.346 289.102 174.672C289.161 174.556 289.23 174.44 289.3 174.324C289.358 174.208 289.439 174.103 289.521 173.999C289.834 173.557 290.218 173.139 290.682 172.756C290.705 172.733 290.729 172.721 290.74 172.698C290.752 172.698 290.752 172.686 290.763 172.686C291.669 171.966 292.726 171.49 293.841 171.211C294.817 170.967 295.862 170.863 296.908 170.863C297.511 170.863 298.139 170.886 298.731 170.944C298.673 170.967 298.638 170.99 298.58 171.014C298.115 171.234 297.697 171.432 297.337 171.641C297.244 171.687 297.151 171.734 297.058 171.803C296.815 171.931 296.594 172.082 296.396 172.222C296.094 172.431 295.851 172.64 295.665 172.825C295.618 172.872 295.583 172.918 295.537 172.953C295.421 173.093 295.34 173.232 295.281 173.36C295.258 173.406 295.247 173.453 295.235 173.511C295.223 173.522 295.223 173.534 295.223 173.546C295.189 173.731 295.212 173.894 295.305 174.045C295.363 174.161 295.467 174.266 295.583 174.37C295.734 174.486 295.92 174.603 296.153 174.719H296.164C296.315 174.777 296.478 174.846 296.664 174.904C296.675 174.904 296.675 174.905 296.687 174.916C296.861 174.974 297.058 175.021 297.256 175.079C297.395 175.114 297.546 175.137 297.709 175.172C297.802 175.195 297.906 175.206 298.011 175.23C298.127 175.253 298.255 175.276 298.371 175.288C298.743 175.346 299.137 175.381 299.556 175.427C299.741 175.45 299.939 175.462 300.125 175.474H300.148C300.345 175.485 300.566 175.497 300.775 175.508C300.88 175.52 300.996 175.52 301.1 175.52C307.953 175.81 319.01 174.301 324.504 171.014C331.171 167.007 335.967 166.798 338.476 167.123C339.672 167.506 340.439 167.587 340.439 167.587C340.439 167.587 344.585 167.552 349.173 170.514C351.322 171.896 353.563 173.929 355.526 176.949C357.605 180.143 359.371 184.44 360.346 190.201C360.579 191.537 360.764 192.942 360.904 194.429C361.914 205.428 365.341 210.724 369.057 213.14C370.219 213.895 371.392 214.371 372.542 214.638C372.751 214.696 372.971 214.731 373.18 214.766C374.11 214.94 375.016 214.986 375.84 214.963C378.407 214.893 380.3 214.127 380.44 214.057L377.002 216.612L359.499 229.598L354.574 233.245C354.574 233.245 354.353 233.117 353.947 232.861C353.784 232.768 353.598 232.641 353.389 232.513C351.67 231.421 348.36 229.098 344.899 225.846Z" fill="#080830"/>
<path d="M326.873 317.718L277.418 341.655L273.446 343.572L272.947 343.816L264.259 295.998L295.525 280.876L318.185 269.912L319.138 275.15L325.898 312.329L326.873 317.718Z" fill="white"/>
<path d="M326.873 317.718L277.418 341.644L273.446 343.56C274.805 342.387 278.045 337.416 278.336 336.952C281.03 332.573 282.97 327.486 281.286 322.364C280.589 320.227 279.346 318.275 278.882 316.08C278.301 313.293 279.044 310.354 280.45 307.88C283.853 301.934 290.206 297.845 297.14 297.787C301.019 297.752 304.225 297.996 307.361 295.337C310.706 292.503 312.506 288.159 314.062 284.175C315.851 279.587 317.268 274.767 318.185 269.924L319.138 275.162L325.898 312.34L326.873 317.718Z" fill="#C6D4F5"/>
<path d="M326.873 317.717L319.138 275.138L323.609 272.978L326.873 317.717Z" fill="#5958AA"/>
<path d="M312.576 323.734C310.206 324.477 302.831 318.356 304.701 324.733C306.571 331.109 306.699 331.481 304.701 331.608C302.703 331.736 303.203 332.363 302.448 333.606C301.693 334.861 299.95 333.862 298.452 333.989C296.954 334.106 296.582 336.359 293.957 335.488C291.332 334.617 291.832 332.619 290.206 327.613C288.452 322.061 289.997 317.09 288.034 311.608C285.537 304.581 279.555 297.067 277.186 289.993C275.966 286.335 273.934 282.026 274.898 278.112C275.002 277.635 275.165 277.171 275.386 276.706C276.721 273.791 280.124 272.211 283.028 271.375C283.771 271.166 284.492 271.004 285.165 270.887C285.665 270.806 286.199 270.736 286.756 270.713C287.36 270.667 287.976 270.667 288.58 270.725C290.287 270.876 291.913 271.48 292.819 272.966C293.493 274.081 293.574 275.696 293.748 276.95C294.55 282.653 294.794 288.437 295.154 294.175C295.479 299.32 295.665 305.708 297.198 310.365C298.836 315.348 304.341 315.917 310.566 320.098C314.852 322.99 314.957 322.99 312.576 323.734Z" fill="#F8D0BC"/>
<path d="M294.085 264.906C294.016 264.883 293.934 264.859 293.865 264.848C289.567 263.582 283.365 264.244 279.3 265.614C277.209 266.323 275.258 267.148 273.597 267.972C271.936 268.808 270.589 269.656 269.729 270.388C269.451 270.632 269.218 270.934 269.056 271.247C268.452 269.552 267.708 266.741 266.837 262.188C266.408 259.97 266.129 257.786 265.85 255.661C265.688 254.511 265.548 253.361 265.432 252.234C258.812 192.768 290.74 172.698 290.74 172.698C287.256 175.485 288.185 180.05 287.314 183.917C286.292 188.459 280.996 191.827 278.638 195.834C275.095 201.839 276.361 207.669 277.767 214.348L294.085 264.906Z" fill="#080830"/>
<path d="M368.895 213.198C363.006 215.335 357.524 220.12 354.853 225.022C352.297 229.714 352.762 237.496 357.64 240.911C360.776 243.106 366.816 242.885 370.521 242.223C378.941 240.713 390.928 221.712 384.551 215.707C380.788 212.176 373.343 211.584 368.895 213.198Z" fill="#1B1A56"/>
<path d="M304.701 331.609C302.703 331.736 303.203 332.364 302.448 333.606C301.693 334.861 299.95 333.862 298.452 333.99C296.954 334.106 296.582 336.359 293.957 335.488C291.332 334.617 291.832 332.619 290.206 327.613C288.452 322.061 289.997 317.09 288.034 311.608C285.537 304.582 279.555 297.067 277.186 289.994C275.966 286.335 273.934 282.026 274.898 278.112L286.756 270.713L288.057 269.9L288.58 270.725L292.517 276.916C292.215 277.322 286.78 282.665 283.353 283.269C279.915 283.873 280.531 292.549 282.842 294.256C285.165 295.964 293.051 306.347 291.832 313.908C290.612 321.469 290.334 328.31 294.399 331.144C298.452 333.99 303.481 327.323 304.701 331.609Z" fill="#F8D0BC"/>
<path d="M374.969 213.825C376.944 216.485 378.814 219.238 380.556 222.025C381.857 224.104 383.134 226.218 384.133 228.425C385.167 230.701 386.038 234.011 385.364 236.439C384.551 239.366 381.38 239.691 378.732 240.597C376.363 241.41 374.086 242.409 371.926 243.605C370.823 244.221 369.731 244.883 368.511 245.301C362.646 247.322 355.317 241.05 354.063 236.137C352.088 228.39 362.844 220.283 362.844 220.283L374.969 213.825Z" fill="#1B1A56"/>
<path d="M417.908 185.044C418.28 186.24 426.097 184.986 425.969 185.613C425.527 187.669 418.257 187.762 416.805 188.238C415.516 188.656 414.25 189.121 412.995 189.632C410.196 190.793 407.142 192.222 405.097 194.545C405.097 194.545 399.604 202.478 395.968 209.075C392.345 215.672 384.47 236.938 374.725 239.191C370.358 240.202 366.758 239.493 364.168 237.774C360.962 235.672 359.255 232.048 359.417 228.227C359.719 221.328 367.977 218.018 373.68 213.825C382.008 207.693 389.906 198.819 396.816 191.2C397.606 190.329 396.073 187.611 396.352 186.391C396.839 184.127 397.978 182.059 399.569 180.375C405.155 174.405 405.063 167.042 405.063 167.042C405.063 167.042 408.977 168.064 407.955 172.547C406.932 177.018 406.561 178.424 406.561 178.424C406.561 178.424 419.418 172.082 422.31 172.361C425.202 172.64 420.998 173.766 416.526 176.647C412.055 179.539 422.031 175.996 426.027 176.275C430.034 176.554 428.454 177.483 423.785 178.424C419.128 179.353 416.607 180.096 416.515 181.13C416.422 182.152 425.144 180.758 426.677 180.573C429.035 180.282 432.45 181.107 425.481 182.477C424.97 182.559 417.56 183.917 417.908 185.044Z" fill="#F8D0BC"/>
<path d="M298.034 275.951C297.964 276.381 297.872 276.823 297.732 277.264C297.453 278.17 296.977 278.983 296.106 279.273C295.398 279.506 294.631 279.308 293.911 279.122C291.24 278.414 288.406 277.821 285.711 278.472C283.632 278.96 281.809 280.133 279.869 281.027C277.941 281.91 275.014 286.184 273.191 285.104C271.112 283.873 269.555 277.938 268.765 275.173C268.429 273.989 268.15 272.688 268.603 271.538C268.916 270.737 269.544 270.109 270.182 269.529C275.92 264.407 284.271 261.84 291.82 263.791C292.041 263.849 292.262 263.907 292.482 263.977C294.538 264.581 297.024 265.614 297.558 267.694C298.476 271.248 298.499 273.176 298.034 275.951Z" fill="#1B1A56"/>
<path d="M298.557 171.037C297.628 171.467 296.908 171.862 296.373 172.233L296.884 170.875C297.488 170.875 298.104 170.909 298.708 170.956C298.661 170.991 298.615 171.014 298.557 171.037Z" fill="#1B1A56"/>
<path d="M360.323 190.224C359.65 189.237 358.964 188.064 358.279 186.682C352.6 175.125 339.986 192.245 326.908 184.057C313.83 175.857 302.146 183.743 302.146 186.682C302.146 189.632 302.146 203.291 294.387 217.089C286.629 230.899 300.891 236.079 303.992 245.695C307.047 255.15 298.092 267.264 297.79 267.67C297.93 267.322 301.762 257.31 295.56 245.695C291.402 237.902 287.233 230.097 283.969 221.886C281.007 214.452 278.243 206.345 279.172 198.238C279.335 196.74 279.613 195.3 279.985 193.929C281.483 188.273 284.492 183.616 287.895 179.039C289.811 176.461 291.855 173.917 293.818 171.234C294.805 170.979 295.839 170.886 296.873 170.874C297.477 170.874 298.092 170.909 298.696 170.956C298.638 170.979 298.592 171.014 298.545 171.025C297.616 171.455 296.896 171.85 296.362 172.222C295.061 173.128 294.898 173.848 295.549 174.382C296.35 175.044 298.383 175.427 301.066 175.543C307.918 175.834 318.975 174.324 324.469 171.025C331.136 167.018 335.933 166.809 338.441 167.134C339.638 167.518 340.404 167.611 340.404 167.611C340.404 167.611 356.456 167.483 360.323 190.224Z" fill="#1B1A56"/>
<path d="M359.917 315.023C356.932 320.343 353.691 325.511 350.218 330.494C348.743 326.208 346.943 321.922 344.911 317.718C334.19 295.499 335.526 259.993 335.526 259.993C335.526 259.993 335.84 260.481 336.397 261.399C339.684 266.846 351.612 287.601 359.917 315.023Z" fill="#1B1A56"/>
<path opacity="0.51" d="M405.121 194.545C405.121 194.545 399.627 202.478 395.992 209.075C392.368 215.672 384.493 236.938 374.748 239.191C370.381 240.202 366.781 239.493 364.191 237.774C364.191 237.774 378.814 234.917 383.308 223.14C387.78 211.363 398.605 196.252 405.121 194.545Z" fill="#BA9C8D"/>
<path d="M291.832 263.779C290.264 268.147 287.523 272.154 282.807 271.375C273.005 269.773 273.202 285.081 273.202 285.081C271.123 283.849 269.567 277.914 268.777 275.15C268.44 273.965 268.161 272.665 268.614 271.515C268.928 270.713 269.555 270.086 270.194 269.505C275.932 264.395 284.271 261.828 291.832 263.779Z" fill="#252272"/>
</svg>
