<svg width="86" height="98" viewBox="0 0 86 98" fill="none" xmlns="http://www.w3.org/2000/svg">
<path d="M68.7736 37.9391C68.8433 37.3816 69.3195 36.9635 69.877 36.9635H84.4998C85.1037 36.9635 85.6032 36.4757 85.6032 35.8833V25.9528C85.6032 25.3257 85.1153 24.8262 84.4998 24.8262H71.6773C71.0152 24.8262 70.481 24.2455 70.5739 23.5835C71.4798 16.336 72.3741 9.15816 73.2801 1.9455C73.373 1.3067 72.8503 0.714355 72.1767 0.714355H62.223C61.6655 0.714355 61.1893 1.13248 61.1196 1.68998C60.1788 9.07686 59.238 16.4637 58.3205 23.8622C58.2508 24.4197 57.7746 24.8262 57.2171 24.8262H35.0681C34.4061 24.8262 33.8718 24.2455 33.9647 23.5835L36.6709 1.98035C36.7522 1.34154 36.2295 0.737585 35.5675 0.737585H25.6254C25.0679 0.737585 24.5918 1.15571 24.5221 1.71321L21.6997 23.9668C21.63 24.5243 21.1655 24.9308 20.5963 24.9308H1.42065C0.816696 24.9308 0.305664 25.4186 0.305664 26.0341V35.9182C0.305664 36.5105 0.816696 37.0215 1.42065 37.0215H18.8077C19.4697 37.0215 20.004 37.5907 19.9111 38.2527L17.1352 60.2972C17.0655 60.8547 16.5893 61.2612 16.0318 61.2612H1.43228C0.805093 61.2612 0.31729 61.749 0.31729 62.3646V72.2486C0.31729 72.8409 0.805093 73.352 1.43228 73.352H14.2548C14.9168 73.352 15.4395 73.9327 15.3582 74.5831L12.6287 96.314C12.5474 96.976 13.0469 97.5335 13.7321 97.5335H23.6742C24.2317 97.5335 24.7079 97.1386 24.7776 96.5928L27.5767 74.374C27.6464 73.8166 28.1226 73.3984 28.6801 73.3984H50.8291C51.5144 73.3984 52.0254 73.9908 51.9557 74.6412C51.0498 81.8771 50.1322 89.0781 49.2263 96.314C49.145 96.976 49.6676 97.5335 50.3297 97.5335H60.295C60.8525 97.5335 61.3287 97.1386 61.3984 96.5928C62.3275 89.171 63.2567 81.7725 64.1975 74.2927C64.2672 73.7352 64.7434 73.3171 65.3009 73.3171H84.4649C85.0805 73.3171 85.5915 72.8293 85.5915 72.237V62.3181C85.5915 61.7142 85.0921 61.1915 84.4649 61.1915H67.1011C67.0082 61.1915 66.9037 61.1799 66.8224 61.1567C66.7527 61.145 66.6946 61.1102 66.6249 61.087C66.2068 60.9011 65.9397 60.4482 65.9977 59.9603C66.9385 52.5735 67.8444 45.2795 68.7736 37.9391ZM56.5202 38.2759L53.7792 60.1926C53.7095 60.7269 53.2333 61.1334 52.6758 61.1334H30.5268C29.8648 61.1334 29.3305 60.5759 29.4234 59.9023L32.1761 37.9972C32.2458 37.4397 32.7103 37.0215 33.2794 37.0215H55.4285C56.1021 37.0215 56.6015 37.6255 56.5202 38.2759Z" fill="#007CF5"/>
<path opacity="0.6" d="M23.6858 97.4985H13.7438C13.0585 97.4985 12.5591 96.941 12.6404 96.2674L15.3698 74.5365C15.4627 73.8861 14.9284 73.3053 14.2664 73.3053H1.45551C0.828318 73.3053 0.340515 72.7943 0.340515 72.2019V62.3295C0.340515 61.714 0.828318 61.2262 1.45551 61.2262H16.055C16.6125 61.2262 17.0888 60.8197 17.1584 60.2621L19.9459 38.2177C20.0389 37.5673 19.5046 36.9865 18.8425 36.9865H1.45551C0.839932 36.9865 0.340515 36.4755 0.340515 35.8831V26.0107C0.340515 26.0107 11.3047 34.1642 20.0737 32.4336C28.8427 30.7146 21.4442 42.8983 21.3164 52.6894C21.2003 62.5038 14.7194 90.9363 23.6858 97.4985Z" fill="#005BBE"/>
<path opacity="0.6" d="M85.6032 25.9411V35.8716C85.6032 36.4639 85.1154 36.9517 84.4998 36.9517H69.877C69.3195 36.9517 68.8433 37.3699 68.7736 37.9274C67.8445 45.2678 66.9386 52.5618 66.0094 59.9138C65.9397 60.4713 66.3114 60.9823 66.834 61.1101C62.3392 60.2158 56.6829 38.1016 64.1162 30.436C71.7122 22.6077 62.2463 0.702637 62.2463 0.702637H72.1883C72.8504 0.702637 73.373 1.28337 73.2917 1.93378C72.3858 9.14644 71.4915 16.3243 70.5739 23.5718C70.481 24.2338 71.0153 24.8145 71.6773 24.8145H84.4882C85.1154 24.8261 85.6032 25.3139 85.6032 25.9411Z" fill="#005BBE"/>
</svg>
