<svg width="38" height="124" viewBox="0 0 38 124" fill="none" xmlns="http://www.w3.org/2000/svg">
<path d="M18.4394 1C30.194 8.203 44.4261 23.8214 32.4912 38.9604C25.8827 47.343 7.07667 51.7522 1.48514 39.4177C-0.51402 35.0077 4.15202 34.9306 6.64513 35.5556C11.1726 36.6906 14.8383 40.1661 17.1954 44.4994C23.1285 55.4066 13.5794 64.1645 9.77798 73.3128C4.84421 85.1861 4.37631 102.863 8.48797 115.135C12.0416 125.742 12.4292 118.821 15.3066 111.68C17.4947 106.249 14.7613 118.203 14.1087 119.912C13.2887 122.06 13.949 124.208 12.1276 122.199C9.04174 118.795 5.35999 115.495 1.85374 112.594" stroke="#090930" stroke-width="2" stroke-linecap="round"/>
</svg>
