<svg width="38" height="117" viewBox="0 0 38 117" fill="none" xmlns="http://www.w3.org/2000/svg">
<path d="M33.3608 1C25.0925 7.56308 21.5925 12.747 22.1801 21.1668C22.7108 28.7704 28.3819 37.0414 32.5145 44.1133C37.6309 52.8689 41.6297 70.0559 25.3428 75.1435C12.6965 79.0939 -2.42601 73.1728 1.68969 63.8546C3.27637 60.2623 10.8079 58.4059 16.033 59.9971C21.6765 61.7158 24.3972 66.8535 25.6992 70.4067C29.1959 79.9493 15.1578 86.3067 12.6922 94.9416C10.3887 103.009 16.0639 108.999 23.7392 115.108C24.3966 115.632 20.0224 115.364 18.9284 115.364C14.9178 115.364 16.6978 115.874 19.7302 115.874C21.6804 115.874 25.827 116.528 24.7192 114.853C23.92 113.644 23.7392 111.104 23.7392 109.748" stroke="#090930" stroke-width="2" stroke-linecap="round"/>
</svg>
