<svg width="540" height="540" viewBox="0 0 540 540" fill="none" xmlns="http://www.w3.org/2000/svg">
<path d="M538.556 252.116C538.766 255.416 538.918 258.733 539.009 262.064L537.509 262.105C537.577 264.58 537.611 267.064 537.611 269.555C537.611 272.047 537.577 274.531 537.509 277.006L539.009 277.047C538.918 280.378 538.766 283.694 538.556 286.995L537.059 286.899C536.741 291.871 536.288 296.805 535.703 301.699L537.193 301.877C536.798 305.183 536.343 308.47 535.83 311.737L534.348 311.504C533.575 316.421 532.669 321.294 531.632 326.118L533.099 326.433C532.4 329.688 531.642 332.92 530.827 336.129L529.373 335.76C528.149 340.578 526.795 345.345 525.313 350.055L526.744 350.505C525.746 353.681 524.69 356.831 523.578 359.955L522.165 359.452C520.5 364.131 518.708 368.75 516.795 373.304L518.178 373.885C516.889 376.953 515.545 379.992 514.147 383.001L512.786 382.369C510.695 386.87 508.483 391.303 506.153 395.665L507.477 396.371C505.91 399.305 504.29 402.205 502.62 405.073L501.324 404.317C498.826 408.603 496.213 412.813 493.489 416.944L494.742 417.77C492.912 420.544 491.032 423.283 489.103 425.985L487.883 425.113C485.002 429.149 482.013 433.101 478.918 436.965L480.089 437.903C478.013 440.496 475.889 443.051 473.72 445.565L472.585 444.585C469.347 448.337 466.007 451.998 462.57 455.564L463.65 456.605C461.345 458.996 458.996 461.345 456.605 463.65L455.564 462.57C451.998 466.008 448.336 469.347 444.585 472.585L445.564 473.72C443.051 475.889 440.496 478.013 437.903 480.089L436.965 478.918C433.101 482.013 429.149 485.002 425.113 487.883L425.985 489.103C423.283 491.032 420.544 492.912 417.77 494.742L416.944 493.489C412.813 496.214 408.603 498.826 404.317 501.324L405.072 502.62C402.205 504.29 399.304 505.91 396.371 507.477L395.665 506.154C391.303 508.483 386.87 510.695 382.369 512.787L383.001 514.147C379.992 515.545 376.953 516.889 373.885 518.178L373.304 516.795C368.749 518.709 364.131 520.5 359.452 522.165L359.955 523.578C356.831 524.69 353.68 525.746 350.505 526.745L350.055 525.314C345.345 526.795 340.578 528.149 335.76 529.373L336.129 530.827C332.92 531.642 329.687 532.4 326.433 533.099L326.118 531.632C321.294 532.669 316.421 533.575 311.504 534.348L311.737 535.83C308.47 536.343 305.182 536.798 301.877 537.193L301.699 535.703C296.805 536.288 291.87 536.741 286.899 537.059L286.994 538.556C283.694 538.766 280.378 538.918 277.047 539.009L277.006 537.509C274.531 537.577 272.047 537.611 269.555 537.611C267.064 537.611 264.58 537.577 262.105 537.509L262.064 539.009C258.732 538.918 255.416 538.766 252.116 538.556L252.212 537.059C247.24 536.741 242.306 536.288 237.411 535.703L237.234 537.193C233.928 536.798 230.641 536.343 227.373 535.83L227.606 534.348C222.689 533.575 217.817 532.669 212.992 531.632L212.677 533.099C209.423 532.4 206.191 531.642 202.981 530.827L203.351 529.373C198.532 528.149 193.766 526.795 189.056 525.314L188.606 526.744C185.43 525.746 182.28 524.69 179.156 523.578L179.659 522.165C174.98 520.5 170.361 518.709 165.806 516.795L165.225 518.178C162.158 516.889 159.118 515.545 156.11 514.147L156.742 512.787C152.241 510.695 147.807 508.483 143.446 506.153L142.739 507.477C139.806 505.91 136.905 504.29 134.038 502.62L134.793 501.324C130.508 498.826 126.297 496.213 122.167 493.489L121.341 494.742C118.567 492.912 115.828 491.032 113.126 489.103L113.997 487.883C109.962 485.002 106.01 482.013 102.145 478.918L101.208 480.089C98.6143 478.013 96.06 475.889 93.5462 473.72L94.5261 472.585C90.7742 469.347 87.1129 466.008 83.5467 462.57L82.5057 463.65C80.1145 461.345 77.7658 458.996 75.4608 456.605L76.5408 455.564C73.1032 451.998 69.7635 448.336 66.526 444.585L65.3904 445.564C63.2213 443.051 61.0979 440.496 59.0214 437.903L60.1923 436.965C57.098 433.101 54.1085 429.149 51.2281 425.113L50.0073 425.985C48.0788 423.283 46.1991 420.544 44.3692 417.77L45.6214 416.944C42.8973 412.813 40.2844 408.603 37.787 404.317L36.491 405.072C34.8202 402.205 33.2009 399.304 31.6342 396.371L32.9573 395.665C30.6278 391.303 28.4153 386.87 26.3242 382.369L24.9638 383.001C23.5659 379.992 22.2218 376.953 20.9329 373.885L22.3158 373.304C20.4022 368.749 18.6108 364.131 16.9457 359.452L15.5325 359.955C14.4207 356.831 13.3649 353.681 12.3663 350.505L13.7972 350.055C12.3162 345.345 10.9616 340.578 9.73762 335.76L8.2838 336.129C7.46848 332.92 6.71075 329.687 6.01177 326.433L7.47832 326.118C6.44211 321.294 5.53572 316.421 4.76299 311.504L3.28118 311.737C2.76767 308.47 2.31286 305.182 1.91787 301.877L3.40727 301.699C2.82244 296.805 2.36947 291.87 2.05201 286.899L0.555056 286.994C0.344336 283.694 0.192996 280.378 0.102095 277.047L1.60154 277.006C1.53399 274.531 1.5 272.047 1.5 269.555C1.5 267.064 1.53399 264.58 1.60154 262.105L0.102099 262.064C0.193002 258.732 0.344343 255.416 0.555065 252.116L2.05202 252.212C2.36948 247.24 2.82246 242.306 3.40729 237.412L1.91789 237.234C2.31288 233.928 2.76769 230.641 3.2812 227.374L4.76301 227.606C5.53574 222.689 6.44213 217.817 7.47834 212.993L6.01179 212.678C6.71078 209.423 7.46851 206.191 8.28382 202.981L9.73764 203.351C10.9617 198.532 12.3162 193.766 13.7972 189.056L12.3663 188.606C13.3649 185.43 14.4207 182.28 15.5325 179.156L16.9457 179.659C18.6108 174.98 20.4022 170.361 22.3159 165.806L20.9329 165.225C22.2219 162.158 23.5659 159.119 24.9639 156.11L26.3242 156.742C28.4154 152.241 30.6278 147.807 32.9573 143.446L31.6342 142.739C33.2009 139.806 34.8203 136.905 36.491 134.038L37.787 134.793C40.2844 130.508 42.8973 126.297 45.6214 122.167L44.3692 121.341C46.1991 118.567 48.0789 115.828 50.0073 113.126L51.2282 113.998C54.1086 109.962 57.0981 106.01 60.1924 102.145L59.0214 101.208C61.0979 98.6143 63.2214 96.0601 65.3904 93.5463L66.5261 94.5262C69.7635 90.7742 73.1032 87.113 76.5408 83.5467L75.4609 82.5057C77.7658 80.1145 80.1145 77.7658 82.5057 75.4609L83.5467 76.5408C87.113 73.1032 90.7742 69.7635 94.5262 66.5261L93.5463 65.3904C96.0601 63.2213 98.6143 61.0979 101.208 59.0214L102.145 60.1923C106.01 57.0981 109.962 54.1086 113.998 51.2282L113.126 50.0073C115.828 48.0789 118.567 46.1991 121.341 44.3692L122.167 45.6214C126.297 42.8973 130.508 40.2844 134.793 37.787L134.038 36.491C136.905 34.8203 139.806 33.2009 142.739 31.6342L143.446 32.9573C147.807 30.6278 152.241 28.4153 156.742 26.3242L156.11 24.9638C159.119 23.5659 162.158 22.2219 165.225 20.9329L165.806 22.3158C170.361 20.4022 174.98 18.6108 179.659 16.9457L179.156 15.5325C182.28 14.4207 185.43 13.3649 188.606 12.3663L189.056 13.7972C193.766 12.3162 198.532 10.9616 203.351 9.73762L202.981 8.2838C206.191 7.46849 209.423 6.71076 212.678 6.01177L212.993 7.47832C217.817 6.44211 222.689 5.53572 227.606 4.76299L227.374 3.28118C230.641 2.76767 233.928 2.31286 237.234 1.91787L237.412 3.40727C242.306 2.82244 247.24 2.36947 252.212 2.05201L252.116 0.555057C255.416 0.344336 258.733 0.192996 262.064 0.102095L262.105 1.60154C264.58 1.53399 267.064 1.5 269.555 1.5C272.047 1.5 274.531 1.53399 277.006 1.60154L277.047 0.102099C280.378 0.193003 283.694 0.344345 286.995 0.555067L286.899 2.05202C291.871 2.36948 296.805 2.82246 301.699 3.40729L301.877 1.91789C305.183 2.31288 308.47 2.76769 311.737 3.2812L311.504 4.76302C316.421 5.53574 321.294 6.44214 326.118 7.47835L326.433 6.0118C329.688 6.71078 332.92 7.46851 336.129 8.28383L335.76 9.73765C340.578 10.9617 345.345 12.3162 350.055 13.7972L350.505 12.3663C353.681 13.3649 356.831 14.4207 359.955 15.5325L359.452 16.9457C364.131 18.6108 368.75 20.4022 373.304 22.3159L373.885 20.933C376.953 22.2219 379.992 23.5659 383.001 24.9639L382.369 26.3242C386.87 28.4154 391.303 30.6278 395.665 32.9573L396.371 31.6342C399.304 33.2009 402.205 34.8203 405.073 36.4911L404.317 37.7871C408.603 40.2844 412.813 42.8973 416.944 45.6214L417.77 44.3692C420.544 46.1991 423.283 48.0789 425.985 50.0073L425.113 51.2282C429.149 54.1086 433.101 57.0981 436.965 60.1924L437.903 59.0215C440.496 61.098 443.051 63.2214 445.564 65.3904L444.585 66.5261C448.337 69.7636 451.998 73.1032 455.564 76.5409L456.605 75.4609C458.996 77.7658 461.345 80.1145 463.65 82.5058L462.57 83.5468C466.008 87.113 469.347 90.7743 472.585 94.5262L473.72 93.5463C475.889 96.0601 478.013 98.6144 480.089 101.208L478.918 102.145C482.013 106.01 485.002 109.962 487.883 113.998L489.103 113.126C491.032 115.828 492.912 118.567 494.742 121.341L493.489 122.167C496.213 126.297 498.826 130.508 501.324 134.794L502.62 134.038C504.29 136.906 505.91 139.806 507.477 142.74L506.153 143.446C508.483 147.808 510.695 152.241 512.787 156.742L514.147 156.11C515.545 159.119 516.889 162.158 518.178 165.225L516.795 165.807C518.708 170.361 520.5 174.98 522.165 179.659L523.578 179.156C524.69 182.28 525.746 185.43 526.744 188.606L525.314 189.056C526.795 193.766 528.149 198.532 529.373 203.351L530.827 202.981C531.642 206.191 532.4 209.423 533.099 212.678L531.632 212.993C532.669 217.817 533.575 222.69 534.348 227.607L535.83 227.374C536.343 230.641 536.798 233.928 537.193 237.234L535.703 237.412C536.288 242.306 536.741 247.24 537.059 252.212L538.556 252.116Z" stroke="white" stroke-width="3" stroke-dasharray="15 10"/>
</svg>
