<svg width="1059" height="319" viewBox="0 0 1059 319" fill="none" xmlns="http://www.w3.org/2000/svg">
<path opacity="0.1" d="M37.9065 6.99994C220.99 91.9437 101.585 206.614 44.8489 188.731C8.21816 177.185 16.1335 143.279 38.1862 145.917C60.2388 148.555 153.037 245.618 21.7627 307.668" stroke="#0E6FFF" stroke-width="13" stroke-linecap="round" stroke-linejoin="round"/>
<g opacity="0.05">
<path d="M1001.43 62H995.575V183H1001.43V62Z" fill="#19223F"/>
<path d="M1059 119.575H938V125.426H1059V119.575Z" fill="#19223F"/>
<path d="M957.778 77.6474L953.641 81.7847L1039.2 167.344L1043.34 163.206L957.778 77.6474Z" fill="#19223F"/>
<path d="M1039.2 77.646L953.641 163.205L957.778 167.342L1043.34 81.7833L1039.2 77.646Z" fill="#19223F"/>
<path d="M943.592 96.9832L941.384 102.402L1053.44 148.055L1055.65 142.636L943.592 96.9832Z" fill="#19223F"/>
<path d="M1018.64 65.3926L972.983 177.451L978.402 179.658L1024.06 67.6002L1018.64 65.3926Z" fill="#19223F"/>
<path d="M1053.57 97.1868L941.323 142.368L943.508 147.796L1055.76 102.615L1053.57 97.1868Z" fill="#19223F"/>
<path d="M978.59 65.3265L973.162 67.5107L1018.33 179.762L1023.76 177.578L978.59 65.3265Z" fill="#19223F"/>
</g>
</svg>
