<svg width="1410" height="711" viewBox="0 0 1410 711" fill="none" xmlns="http://www.w3.org/2000/svg">
<g opacity="0.06">
<path d="M63.4263 481H57.5752V602H63.4263V481Z" fill="#19223F"/>
<path d="M121 538.575H0V544.426H121V538.575Z" fill="#19223F"/>
<path d="M19.7784 496.648L15.6411 500.785L101.2 586.344L105.337 582.207L19.7784 496.648Z" fill="#19223F"/>
<path d="M101.2 496.646L15.6411 582.205L19.7784 586.342L105.337 500.783L101.2 496.646Z" fill="#19223F"/>
<path d="M5.59164 515.984L3.38403 521.402L115.442 567.056L117.65 561.637L5.59164 515.984Z" fill="#19223F"/>
<path d="M80.6367 484.393L34.9834 596.451L40.4021 598.659L86.0554 486.601L80.6367 484.393Z" fill="#19223F"/>
<path d="M115.575 516.187L3.32324 561.368L5.50803 566.796L117.76 521.615L115.575 516.187Z" fill="#19223F"/>
<path d="M40.5901 484.327L35.1621 486.511L80.3314 598.762L85.7594 596.578L40.5901 484.327Z" fill="#19223F"/>
</g>
<circle cx="1054.5" cy="355.5" r="355.5" fill="#FF7661" fill-opacity="0.06"/>
<path d="M578.5 141C588.717 141 597 132.717 597 122.5C597 112.283 588.717 104 578.5 104C568.283 104 560 112.283 560 122.5C560 132.717 568.283 141 578.5 141Z" stroke="#ECE5FF" stroke-width="11" stroke-miterlimit="10"/>
</svg>
