<svg width="40" height="38" viewBox="0 0 40 38" fill="none" xmlns="http://www.w3.org/2000/svg">
<circle cx="24" cy="16" r="16" fill="#FFEAE7"/>
<path d="M2.08973 10.3982C2.15951 9.24941 2.90702 8.35967 4.04825 8.21072C4.92927 8.09573 6.20251 8 8 8C9.79747 8 11.0707 8.09573 11.9517 8.21072C13.093 8.35967 13.8405 9.24941 13.9103 10.3982C13.9602 11.2199 14 12.3823 14 14C14 15.6177 13.9602 16.7801 13.9103 17.6018C13.8405 18.7506 13.093 19.6403 11.9517 19.7893C11.0707 19.9043 9.79747 20 8 20C6.20251 20 4.92927 19.9043 4.04825 19.7893C2.90702 19.6403 2.15951 18.7506 2.08973 17.6018C2.03982 16.7801 2 15.6177 2 14C2 12.3823 2.03982 11.2199 2.08973 10.3982Z" stroke="black" stroke-width="1.5" stroke-linejoin="round"/>
<path d="M2.08973 33.6018C2.15951 34.7506 2.90702 35.6403 4.04825 35.7893C4.92927 35.9043 6.20251 36 8 36C9.79747 36 11.0707 35.9043 11.9517 35.7893C13.093 35.6403 13.8405 34.7506 13.9103 33.6018C13.9602 32.7801 14 31.6177 14 30C14 28.3823 13.9602 27.2199 13.9103 26.3982C13.8405 25.2494 13.093 24.3597 11.9517 24.2107C11.0707 24.0957 9.79747 24 8 24C6.20251 24 4.92927 24.0957 4.04825 24.2107C2.90702 24.3597 2.15951 25.2494 2.08973 26.3982C2.03982 27.2199 2 28.3823 2 30C2 31.6177 2.03982 32.7801 2.08973 33.6018Z" stroke="black" stroke-width="1.5" stroke-linejoin="round"/>
<path d="M27.6018 8.08973C28.7506 8.15951 29.6403 8.90702 29.7893 10.0483C29.9043 10.9293 30 12.2025 30 14C30 15.7975 29.9043 17.0707 29.7893 17.9517C29.6403 19.093 28.7506 19.8405 27.6018 19.9103C26.7801 19.9602 25.6177 20 24 20C22.3823 20 21.2199 19.9602 20.3982 19.9103C19.2494 19.8405 18.3597 19.093 18.2107 17.9517C18.0957 17.0707 18 15.7975 18 14C18 12.2025 18.0957 10.9293 18.2107 10.0483C18.3597 8.90701 19.2494 8.15951 20.3982 8.08973C21.2199 8.03982 22.3823 8 24 8C25.6177 8 26.7801 8.03982 27.6018 8.08973Z" stroke="black" stroke-width="1.5" stroke-linejoin="round"/>
<path d="M23.1907 35.9621C22.5125 35.8941 22.0929 35.3178 22.0669 34.6367C22.0447 34.0541 22.0219 33.2007 22.0095 31.9905C20.7993 31.9781 19.9459 31.9553 19.3633 31.9331C18.6822 31.9071 18.1059 31.4875 18.0379 30.8093C18.0149 30.5808 18 30.3121 18 30C18 29.6879 18.0149 29.4192 18.0379 29.1907C18.1059 28.5125 18.6822 28.0929 19.3633 28.0669C19.9459 28.0447 20.7993 28.0219 22.0095 28.0095C22.0219 26.7993 22.0447 25.9459 22.0669 25.3633C22.0929 24.6822 22.5125 24.1059 23.1907 24.0379C23.4192 24.0149 23.6879 24 24 24C24.3121 24 24.5808 24.0149 24.8093 24.0379C25.4875 24.1059 25.9071 24.6822 25.9331 25.3633C25.9553 25.9459 25.9781 26.7993 25.9905 28.0095C27.2007 28.0219 28.0541 28.0447 28.6367 28.0669C29.3178 28.0929 29.8941 28.5125 29.9621 29.1907C29.9851 29.4192 30 29.6879 30 30C30 30.3121 29.9851 30.5808 29.9621 30.8093C29.8941 31.4875 29.3178 31.9071 28.6367 31.9331C28.0541 31.9553 27.2007 31.9781 25.9905 31.9905C25.9781 33.2007 25.9553 34.0541 25.9331 34.6367C25.9071 35.3178 25.4875 35.8941 24.8093 35.9621C24.5808 35.9851 24.3121 36 24 36C23.6879 36 23.4192 35.9851 23.1907 35.9621Z" stroke="black" stroke-width="1.5" stroke-linejoin="round"/>
</svg>
