<svg width="1347" height="321" viewBox="0 0 1347 321" fill="none" xmlns="http://www.w3.org/2000/svg">
<path opacity="0.6" fill-rule="evenodd" clip-rule="evenodd" d="M1346.79 27.5818C1316.93 11.8242 1279.8 11.6064 1248.75 30.2584L1215.11 50.4597C1217.13 49.7733 1219.11 48.8687 1221.02 47.738C1206.13 56.5578 1201.23 75.7964 1210.06 90.7086C1201.2 75.8741 1182.03 70.9767 1167.17 79.7768C1168.79 78.8166 1170.3 77.7329 1171.68 76.5448L1074.43 134.947C1027.18 163.324 1011.88 224.632 1040.26 271.881C1068.64 319.131 1129.94 334.431 1177.19 306.054L1225.3 277.162C1223.84 277.75 1222.41 278.456 1221.01 279.284C1235.89 270.464 1240.8 251.225 1231.96 236.313C1240.82 251.148 1260 256.045 1274.85 247.245C1273.95 247.781 1273.08 248.355 1272.25 248.965L1346.79 204.196V27.5818Z" fill="#302D95" fill-opacity="0.25"/>
<path opacity="0.6" fill-rule="evenodd" clip-rule="evenodd" d="M160.978 15.6677C210.674 -14.1788 275.157 1.91302 305.004 51.6099C334.85 101.307 318.758 165.789 269.061 195.636L206.98 232.92C193.04 236.755 177.706 231.013 169.928 217.992C177.806 231.288 175.299 247.854 164.816 258.243L85.7187 305.746C58.8639 321.875 27.6915 324.589 0 315.835V112.346L160.978 15.6677Z" fill="#302D95" fill-opacity="0.25"/>
</svg>
