<svg width="30" height="30" viewBox="0 0 30 30" fill="none" xmlns="http://www.w3.org/2000/svg">
<circle cx="18" cy="12" r="12" fill="#EDF5FD"/>
<path d="M16.79 28.1301H6.79003C6.29458 28.134 5.80324 28.04 5.34424 27.8535C4.88524 27.6669 4.46764 27.3915 4.11544 27.043C3.76324 26.6945 3.48338 26.2798 3.29196 25.8229C3.10054 25.3659 3.00133 24.8755 3.00003 24.3801V14.3801C2.99475 13.8838 3.08777 13.3914 3.27374 12.9312C3.4597 12.4711 3.73493 12.0523 4.08355 11.699C4.43216 11.3457 4.84727 11.065 5.30492 10.873C5.76257 10.6809 6.25372 10.5814 6.75003 10.5801H16.75C17.7438 10.5827 18.6961 10.9787 19.3988 11.6813C20.1015 12.384 20.4974 13.3363 20.5 14.3301V24.3301C20.5107 25.3256 20.1261 26.2847 19.4306 26.9971C18.7351 27.7094 17.7855 28.1169 16.79 28.1301V28.1301ZM6.79003 12.1301C6.19496 12.1194 5.61989 12.3448 5.1907 12.7572C4.7615 13.1695 4.51316 13.7351 4.50003 14.3301V24.3301C4.50003 24.9268 4.73708 25.4991 5.15904 25.9211C5.581 26.343 6.15329 26.5801 6.75003 26.5801H16.75C17.3382 26.5802 17.9031 26.35 18.3236 25.9388C18.7441 25.5276 18.987 24.9681 19 24.3801V14.3801C19 14.0846 18.9418 13.792 18.8288 13.519C18.7157 13.2461 18.55 12.998 18.341 12.7891C18.1321 12.5802 17.8841 12.4144 17.6111 12.3013C17.3381 12.1883 17.0455 12.1301 16.75 12.1301H6.79003Z" fill="black"/>
<path d="M21.65 17.4297H1.90002C1.70111 17.4297 1.51035 17.3507 1.36969 17.21C1.22904 17.0694 1.15002 16.8786 1.15002 16.6797C1.15002 16.4808 1.22904 16.29 1.36969 16.1494C1.51035 16.0087 1.70111 15.9297 1.90002 15.9297H21.65C21.8489 15.9297 22.0397 16.0087 22.1804 16.1494C22.321 16.29 22.4 16.4808 22.4 16.6797C22.4 16.8786 22.321 17.0694 22.1804 17.21C22.0397 17.3507 21.8489 17.4297 21.65 17.4297Z" fill="black"/>
<path d="M11.77 12.0801C11.573 12.0804 11.3833 12.0053 11.24 11.8701L8.61003 9.24005C8.46957 9.09943 8.39069 8.90881 8.39069 8.71005C8.39069 8.5113 8.46957 8.32068 8.61003 8.18005C8.67897 8.1093 8.76139 8.05306 8.85241 8.01466C8.94344 7.97627 9.04123 7.95648 9.14003 7.95648C9.23882 7.95648 9.33661 7.97627 9.42764 8.01466C9.51866 8.05306 9.60108 8.1093 9.67003 8.18005L11.77 10.2701L13.93 8.12005C13.999 8.0493 14.0814 7.99306 14.1724 7.95466C14.2634 7.91627 14.3612 7.89648 14.46 7.89648C14.5588 7.89648 14.6566 7.91627 14.7476 7.95466C14.8387 7.99306 14.9211 8.0493 14.99 8.12005C15.1305 8.26068 15.2094 8.4513 15.2094 8.65005C15.2094 8.84881 15.1305 9.03943 14.99 9.18005L12.3 11.8701C12.1567 12.0053 11.9671 12.0804 11.77 12.0801V12.0801Z" fill="black"/>
<path d="M11.77 28.1297C11.5719 28.1271 11.3826 28.0472 11.2426 27.9072C11.1025 27.7671 11.0226 27.5778 11.02 27.3797V16.6797C11.02 16.4808 11.099 16.29 11.2397 16.1494C11.3803 16.0087 11.5711 15.9297 11.77 15.9297C11.9689 15.9297 12.1597 16.0087 12.3003 16.1494C12.441 16.29 12.52 16.4808 12.52 16.6797V27.3797C12.5174 27.5778 12.4376 27.7671 12.2975 27.9072C12.1574 28.0472 11.9681 28.1271 11.77 28.1297V28.1297Z" fill="black"/>
</svg>
