<svg width="26" height="26" viewBox="0 0 26 26" fill="none" xmlns="http://www.w3.org/2000/svg">
<circle cx="14" cy="12" r="12" fill="#DDF8E9"/>
<g clip-path="url(#clip0_4989_1122)">
<path d="M17.75 13.9167C16.9778 10.1129 13.6149 7.25 9.58333 7.25C4.98096 7.25 1.25 10.981 1.25 15.5833C1.25 17.165 1.69067 18.6438 2.45592 19.9036C2.08446 20.7942 1.7067 21.8467 1.46515 22.814C1.3296 23.3569 1.80585 23.8146 2.345 23.6649C3.27969 23.4054 4.30813 23.0278 5.19404 22.6684C6.017 23.1793 6.93554 23.5508 7.91667 23.75" stroke="black" stroke-width="1.5" stroke-linecap="round" stroke-linejoin="round"/>
<path d="M8.75 19.75C8.75 16.9886 10.9886 14.75 13.75 14.75C16.5114 14.75 18.75 16.9886 18.75 19.75C18.75 20.7094 18.4798 21.6057 18.0113 22.3669C18.191 22.7466 18.3698 23.1838 18.511 23.6525C18.6725 24.1882 18.1925 24.6488 17.6607 24.4749C17.2128 24.3285 16.789 24.153 16.4133 23.9824C15.6422 24.4687 14.729 24.75 13.75 24.75C10.9886 24.75 8.75 22.5114 8.75 19.75Z" stroke="black" stroke-width="1.5" stroke-linejoin="round"/>
</g>
<defs>
<clipPath id="clip0_4989_1122">
<rect width="20" height="20" fill="white" transform="translate(0 6)"/>
</clipPath>
</defs>
</svg>
