<svg width="32" height="32" viewBox="0 0 32 32" fill="none" xmlns="http://www.w3.org/2000/svg">
<path d="M17.6358 5.01494L17.6351 5.01354C17.056 3.84918 16.4192 3.51953 15.9983 3.51953C15.5762 3.51953 14.9361 3.85073 14.3504 5.01577C14.3503 5.01596 14.3502 5.01615 14.3501 5.01634L12.0054 9.70578C11.778 10.1683 11.3918 10.5737 10.985 10.8753C10.5773 11.1776 10.0793 11.4273 9.5789 11.5123L9.57626 11.5127L5.3233 12.2193C5.32318 12.2193 5.32305 12.2194 5.32292 12.2194C4.0933 12.4244 3.59473 12.9264 3.46446 13.3343C3.33394 13.7431 3.45 14.4422 4.33033 15.3225L7.637 18.6292C8.02939 19.0216 8.29921 19.5552 8.44937 20.0798C8.59964 20.6047 8.65248 21.1987 8.53184 21.7369L8.53073 21.7419L8.53071 21.7419L7.58405 25.8352L7.58403 25.8353C7.22627 27.3813 7.55542 28.0791 7.86541 28.3053C8.17599 28.532 8.94302 28.6328 10.3106 27.8212L10.3113 27.8208L14.2979 25.4608L14.3028 25.4579L14.3028 25.4579C14.8105 25.1626 15.4285 25.0362 16.005 25.0362C16.5807 25.0362 17.1982 25.1623 17.7021 25.4608C17.7022 25.4609 17.7023 25.4609 17.7024 25.461L21.6881 27.8204C23.066 28.6343 23.8321 28.5345 24.1399 28.3101C24.4463 28.0868 24.7745 27.3915 24.416 25.8352L17.6358 5.01494ZM17.6358 5.01494L19.9798 9.70277C19.9803 9.70381 19.9808 9.70485 19.9813 9.7059C20.2088 10.1686 20.5954 10.5743 21.0047 10.8764C21.4154 11.1794 21.917 11.4283 22.4234 11.5127L22.4237 11.5127L26.6767 12.2193C26.6768 12.2193 26.677 12.2194 26.6771 12.2194C27.9075 12.4245 28.4097 12.9271 28.541 13.3357C28.6718 13.7426 28.5577 14.4406 27.6715 15.3207L27.6697 15.3225L24.363 18.6292C23.9706 19.0216 23.7008 19.5552 23.5506 20.0798C23.4004 20.6047 23.3475 21.1987 23.4682 21.7369L23.4681 21.7369L23.4693 21.7419L24.4158 25.8346L17.6358 5.01494Z" fill="#FDE088" stroke="#FDE088" stroke-width="1.5" stroke-linecap="round" stroke-linejoin="round"/>
</svg>
