<svg width="40" height="40" viewBox="0 0 40 40" fill="none" xmlns="http://www.w3.org/2000/svg">
<circle cx="20" cy="20" r="20" fill="#090930"/>
<path d="M24.9287 23.2887C25.5329 23.1055 26.2418 23 27 23C29.2091 23 31 23.8954 31 25C31 26.1046 29.2091 27 27 27C26.2418 27 25.5329 26.8945 24.9287 26.7113M24.9287 23.2887C23.8449 22.5098 22.0415 22 20 22C17.9585 22 16.1551 22.5098 15.0713 23.2887M24.9287 23.2887C25.6041 23.7741 26 24.3639 26 25C26 25.6361 25.6041 26.2259 24.9287 26.7113M24.9287 26.7113C23.8449 27.4902 22.0415 28 20 28C17.9585 28 16.1551 27.4902 15.0713 26.7113M15.0713 23.2887C14.4671 23.1055 13.7582 23 13 23C10.7909 23 9 23.8954 9 25C9 26.1046 10.7909 27 13 27C13.7582 27 14.4671 26.8945 15.0713 26.7113M15.0713 23.2887C14.3959 23.7741 14 24.3639 14 25C14 25.6361 14.3959 26.2259 15.0713 26.7113M23 15C23 16.6569 21.6569 18 20 18C18.3431 18 17 16.6569 17 15C17 13.3431 18.3431 12 20 12C21.6569 12 23 13.3431 23 15ZM29 18C29 19.1046 28.1046 20 27 20C25.8954 20 25 19.1046 25 18C25 16.8954 25.8954 16 27 16C28.1046 16 29 16.8954 29 18ZM15 18C15 19.1046 14.1046 20 13 20C11.8954 20 11 19.1046 11 18C11 16.8954 11.8954 16 13 16C14.1046 16 15 16.8954 15 18Z" stroke="white"/>
</svg>
