<svg width="94" height="120" viewBox="0 0 94 120" fill="none" xmlns="http://www.w3.org/2000/svg">
<path d="M26.8228 69.355H0.794495V119.286H26.8228V69.355Z" fill="#FF6B58"/>
<path d="M60.3773 51.0156H34.349V119.286H60.3773V51.0156Z" fill="#FF6B58"/>
<path d="M93.2814 0.526855H67.2764V119.286H93.2814V0.526855Z" fill="#FF6B58"/>
<path opacity="0.7" d="M21.8633 69.355H26.8228V119.286H0.794495C0.794495 119.286 19.5056 117.892 19.9237 108.299C20.2722 100.122 19.1339 78.6815 21.8633 69.355Z" fill="#CA5043"/>
<path opacity="0.7" d="M52.9207 51.0156H60.3773V119.286H34.349C34.349 119.286 53.3853 116.081 51.9799 106.661C50.5746 97.2649 43.7452 89.2857 52.0612 74.7094C56.1612 67.5199 55.081 58.4141 52.9207 51.0156Z" fill="#CA5043"/>
<path opacity="0.7" d="M83.8039 0.526855H93.293V119.286H69.7271C72.6191 117.683 77.021 114.199 77.5088 113.711C82.8167 108.45 82.7586 100.97 82.2476 93.8384C81.1326 77.5199 82.747 61.1898 84.826 45.0223C86.4404 32.6644 92.5962 13.9533 84.7912 2.57103C84.2801 1.8277 83.9549 1.13081 83.8039 0.526855Z" fill="#CA5043"/>
</svg>
