<svg width="40" height="40" viewBox="0 0 40 40" fill="none" xmlns="http://www.w3.org/2000/svg">
<circle cx="20" cy="20" r="20" fill="#090930"/>
<path d="M23 25V26C23 27.6569 21.6569 29 20 29V29C18.3431 29 17 27.6569 17 26V25M23 25C23 25 23.3373 23.8778 24 22C24.5813 20.3531 26 20.3137 26 17C26 13.6863 23.3137 11 20 11C16.6863 11 14 13.6863 14 17C14 20.3137 15.4187 20.3531 16 22C16.6627 23.8778 17 25 17 25M23 25H20M17 25H20M20 25V21" stroke="white" stroke-linecap="round" stroke-linejoin="round"/>
</svg>
