<svg width="40" height="40" viewBox="0 0 40 40" fill="none" xmlns="http://www.w3.org/2000/svg">
<circle cx="20" cy="20" r="20" fill="#090930"/>
<path d="M14 18V26M14 18L15.86 16.1401C15.9531 16.047 16.0358 15.9466 16.1062 15.8353C16.4402 15.3072 17.4698 13.6008 17.8537 12.0574C18.0151 11.4085 18.3257 10.7163 18.9837 10.5967C19.357 10.5288 19.7074 10.5523 20.0081 10.6134C20.6634 10.7466 21 11.4017 21 12.0703V16M14 18C14 17.4477 13.5523 17 13 17H12C11.4477 17 11 17.4478 11 18V26C11 26.5523 11.4477 27 12 27H13C13.5523 27 14 26.5523 14 26M14 26L17.8455 27.8097C18.1119 27.935 18.4027 28 18.6971 28H21.5L23.7639 28C24.5215 28 25.214 27.572 25.5528 26.8945L28.6691 20.6618C28.8826 20.2348 28.9364 19.7455 28.8206 19.2823L28.3787 17.515C28.1561 16.6246 27.3562 16 26.4385 16L24.75 16L21 16M21 16H20" stroke="white" stroke-linecap="round" stroke-linejoin="round"/>
</svg>
