<svg width="1230" height="903" viewBox="0 0 1230 903" fill="none" xmlns="http://www.w3.org/2000/svg">
<path opacity="0.2" d="M881.934 870.674C768.888 890.086 772.759 784.817 804.324 774.206C824.704 767.355 835.252 788.657 824.754 795.13C814.257 801.603 802.233 719.036 875.768 719.036" stroke="#DAFC05" stroke-width="13"/>
<path opacity="0.1" d="M37.9064 463C220.99 547.944 101.585 662.614 44.8489 644.731C8.21815 633.185 16.1335 599.279 38.1862 601.917C60.2388 604.555 153.036 701.618 21.7627 763.668" stroke="#0E6FFF" stroke-width="13" stroke-linecap="round" stroke-linejoin="round"/>
<path opacity="0.1" d="M1223 664C801.651 530.207 1029.42 248.361 1157.66 271.504C1240.45 286.446 1232.63 362.219 1183.98 362.585C1135.32 362.95 906.826 177.92 1174.94 7" stroke="#0E6FFF" stroke-width="13" stroke-linecap="round" stroke-linejoin="round"/>
<g opacity="0.05">
<path d="M608.423 146H602.572V267H608.423V146Z" fill="#19223F"/>
<path d="M665.997 203.575H544.997V209.426H665.997V203.575Z" fill="#19223F"/>
<path d="M564.775 161.648L560.638 165.785L646.197 251.344L650.334 247.207L564.775 161.648Z" fill="#19223F"/>
<path d="M646.197 161.646L560.638 247.205L564.775 251.342L650.334 165.783L646.197 161.646Z" fill="#19223F"/>
<path d="M550.588 180.984L548.381 186.402L660.439 232.056L662.646 226.637L550.588 180.984Z" fill="#19223F"/>
<path d="M625.633 149.393L579.98 261.451L585.399 263.659L631.052 151.6L625.633 149.393Z" fill="#19223F"/>
<path d="M660.572 181.187L548.32 226.368L550.505 231.796L662.756 186.615L660.572 181.187Z" fill="#19223F"/>
<path d="M585.587 149.326L580.159 151.51L625.328 263.762L630.756 261.578L585.587 149.326Z" fill="#19223F"/>
</g>
</svg>
