<svg width="40" height="40" viewBox="0 0 40 40" fill="none" xmlns="http://www.w3.org/2000/svg">
<circle cx="20" cy="20" r="20" fill="#090930"/>
<path d="M28.1 18.585C23.36 13.805 15.65 13.805 10.91 18.585L10.15 19.345C9.95 19.545 9.95 19.865 10.15 20.065L10.91 20.825C15.65 25.605 23.36 25.605 28.1 20.825L28.86 20.065C29.06 19.865 29.06 19.545 28.86 19.345L28.1 18.585Z" stroke="white" stroke-miterlimit="10" stroke-linecap="round" stroke-linejoin="round"/>
<path d="M19.51 22.265C20.9239 22.265 22.07 21.1189 22.07 19.705C22.07 18.2912 20.9239 17.145 19.51 17.145C18.0962 17.145 16.95 18.2912 16.95 19.705C16.95 21.1189 18.0962 22.265 19.51 22.265Z" stroke="white" stroke-miterlimit="10" stroke-linecap="round" stroke-linejoin="round"/>
</svg>
