<svg width="36" height="36" viewBox="0 0 36 36" fill="none" xmlns="http://www.w3.org/2000/svg">
<circle cx="18" cy="18" r="17.5" fill="#DCECFB" stroke="#DCECFB"/>
<path d="M26 12.5397C25.4116 12.8004 24.7795 12.9766 24.115 13.0562C24.7929 12.6503 25.313 12.0063 25.5582 11.2396C24.924 11.6159 24.2214 11.8893 23.4738 12.0358C22.8748 11.3988 22.0222 11 21.078 11C19.2656 11 17.7956 12.4699 17.7956 14.2837C17.7956 14.5402 17.8252 14.7897 17.8802 15.0307C15.1511 14.8932 12.7334 13.5861 11.1141 11.6004C10.8322 12.0866 10.6701 12.6503 10.6701 13.2507C10.6701 14.3894 11.2501 15.395 12.1302 15.9834C11.5918 15.9657 11.0859 15.8185 10.6434 15.5725V15.6148C10.6434 17.2052 11.7743 18.5321 13.2767 18.8337C13.0004 18.9084 12.7108 18.9479 12.412 18.9479C12.2007 18.9479 11.9942 18.9281 11.7941 18.8901C12.2119 20.1937 13.4239 21.1436 14.8607 21.1689C13.7368 22.0498 12.3211 22.5747 10.7836 22.5747C10.5186 22.5747 10.2572 22.5592 10 22.5289C11.453 23.4612 13.178 24.0038 15.0313 24.0038C21.0702 24.0038 24.3715 19.0021 24.3715 14.6642C24.3715 14.5233 24.368 14.381 24.3617 14.24C25.0029 13.7764 25.5596 13.1992 25.9986 12.5418L26 12.5397Z" fill="#23262F"/>
</svg>
