<svg width="36" height="36" viewBox="0 0 36 36" fill="none" xmlns="http://www.w3.org/2000/svg">
<circle cx="18" cy="18" r="17.5" fill="#DCECFB" stroke="#DCECFB"/>
<path fill-rule="evenodd" clip-rule="evenodd" d="M23.7298 12.9727C24.3612 13.1417 24.8575 13.6379 25.0265 14.2694C25.3319 15.4127 25.3332 17.7996 25.3332 17.7996C25.3332 17.7996 25.3332 20.1865 25.0265 21.3298C24.8575 21.9613 24.3612 22.4575 23.7298 22.6265C22.5865 22.9332 17.9998 22.9332 17.9998 22.9332C17.9998 22.9332 13.4132 22.9332 12.2698 22.6265C11.6384 22.4575 11.1422 21.9613 10.9732 21.3298C10.6665 20.1865 10.6665 17.7996 10.6665 17.7996C10.6665 17.7996 10.6665 15.4127 10.9732 14.2694C11.1422 13.6379 11.6384 13.1417 12.2698 12.9727C13.4132 12.666 17.9998 12.666 17.9998 12.666C17.9998 12.666 22.5865 12.666 23.7298 12.9727ZM20.3421 17.7998L16.5318 19.9995V15.6L20.3421 17.7998Z" fill="#23262F"/>
</svg>
