<svg width="1343" height="556" viewBox="0 0 1343 556" fill="none" xmlns="http://www.w3.org/2000/svg">
<path opacity="0.6" fill-rule="evenodd" clip-rule="evenodd" d="M160.308 27.9345C209.799 -1.78804 274.014 14.2369 303.736 63.7273C333.459 113.218 317.434 177.433 267.943 207.155L206.12 244.285C192.238 248.103 176.968 242.385 169.222 229.419C177.067 242.659 174.571 259.156 164.133 269.501L85.3623 316.808C58.6191 332.869 27.5764 335.572 0 326.855L0 124.211L160.308 27.9345Z" fill="#C5DAF3"/>
<path opacity="0.6" fill-rule="evenodd" clip-rule="evenodd" d="M1263.33 32.0107C1245.65 1.39998 1206.51 -9.08806 1175.9 8.58505L1130.99 34.5151C1100.38 52.1882 1089.89 91.33 1107.56 121.941L1113.51 132.242C1128.22 157.727 1157.82 169.264 1184.98 162.215C1189.26 151.99 1188.82 139.929 1182.73 129.647C1189.8 141.478 1202.54 147.844 1215.4 147.318L1245.85 129.738C1276.46 112.065 1286.95 72.9228 1269.27 42.3121L1263.33 32.0107Z" fill="#C5DAF3"/>
<path opacity="0.6" fill-rule="evenodd" clip-rule="evenodd" d="M136.458 339.614C150.837 334.668 167.198 340.298 175.31 353.876C169.494 344.06 169.361 332.455 173.935 322.893C197.12 320.087 220.98 330.26 234.622 351.131C253.765 380.417 245.542 419.676 216.257 438.819L148.906 482.843C119.62 501.986 80.3611 493.764 61.2183 464.478C42.0755 435.192 50.2979 395.933 79.5836 376.791L136.458 339.614Z" fill="#C5DAF3"/>
<path opacity="0.6" fill-rule="evenodd" clip-rule="evenodd" d="M1343 216.947C1308.47 198.723 1265.52 198.472 1229.61 220.043L1190.71 243.406C1193.04 242.612 1195.33 241.566 1197.54 240.258C1180.32 250.458 1174.65 272.708 1184.87 289.954C1174.62 272.798 1152.44 267.134 1135.27 277.311C1137.14 276.2 1138.88 274.947 1140.48 273.572L1028.01 341.116C973.366 373.934 955.672 444.837 988.49 499.482C1021.31 554.126 1092.21 571.821 1146.86 539.002L1202.49 505.589C1200.8 506.269 1199.14 507.086 1197.53 508.042C1214.74 497.842 1220.41 475.593 1210.2 458.347C1220.45 475.503 1242.62 481.167 1259.8 470.989C1258.75 471.609 1257.75 472.273 1256.79 472.978L1343 421.203V216.947Z" fill="#C5DAF3"/>
</svg>
