<svg width="825" height="496" viewBox="0 0 825 496" fill="none" xmlns="http://www.w3.org/2000/svg">
<path d="M776 490C799.748 490 819 470.748 819 447C819 423.252 799.748 404 776 404C752.252 404 733 423.252 733 447C733 470.748 752.252 490 776 490Z" stroke="#DAFC05" stroke-width="11" stroke-miterlimit="10"/>
<g opacity="0.05">
<path d="M63.4262 0H57.5751V121H63.4262V0Z" fill="#19223F"/>
<path d="M121 57.5752H0V63.4263H121V57.5752Z" fill="#19223F"/>
<path d="M19.7783 15.6479L15.641 19.7852L101.2 105.344L105.337 101.207L19.7783 15.6479Z" fill="#19223F"/>
<path d="M101.2 15.646L15.641 101.205L19.7783 105.342L105.337 19.7833L101.2 15.646Z" fill="#19223F"/>
<path d="M5.59152 34.9837L3.38391 40.4023L115.442 86.0556L117.65 80.6369L5.59152 34.9837Z" fill="#19223F"/>
<path d="M80.6367 3.39307L34.9834 115.451L40.402 117.659L86.0553 5.60068L80.6367 3.39307Z" fill="#19223F"/>
<path d="M115.575 35.1868L3.32327 80.3682L5.50805 85.7962L117.76 40.6148L115.575 35.1868Z" fill="#19223F"/>
<path d="M40.5902 3.32654L35.1622 5.51074L80.3314 117.762L85.7595 115.578L40.5902 3.32654Z" fill="#19223F"/>
</g>
</svg>
