<svg width="78" height="88" viewBox="0 0 78 88" fill="none" xmlns="http://www.w3.org/2000/svg">
<path d="M61.8156 33.6187C61.8785 33.1154 62.3085 32.7379 62.8118 32.7379H76.0138C76.5591 32.7379 77.01 32.2975 77.01 31.7627V22.7971C77.01 22.2308 76.5696 21.7799 76.0138 21.7799H64.4371C63.8394 21.7799 63.3571 21.2556 63.441 20.6579C64.2589 14.1146 65.0663 7.63415 65.8842 1.12227C65.9681 0.545535 65.4963 0.0107422 64.8881 0.0107422H55.9015C55.3981 0.0107422 54.9682 0.388242 54.9053 0.891576C54.0559 7.56074 53.2065 14.2299 52.3781 20.9096C52.3152 21.4129 51.8853 21.7799 51.3819 21.7799H31.3849C30.7872 21.7799 30.3049 21.2556 30.3888 20.6579L32.832 1.15373C32.9054 0.576992 32.4335 0.0317149 31.8358 0.0317149H22.8597C22.3564 0.0317149 21.9265 0.409215 21.8635 0.912548L19.3154 21.0039C19.2525 21.5073 18.8331 21.8743 18.3192 21.8743H1.00666C0.46138 21.8743 0 22.3147 0 22.8705V31.7941C0 32.3289 0.46138 32.7903 1.00666 32.7903H16.7044C17.3021 32.7903 17.7844 33.3041 17.7006 33.9019L15.1944 53.8045C15.1314 54.3078 14.7015 54.6748 14.1982 54.6748H1.01715C0.450904 54.6748 0.0104964 55.1152 0.0104964 55.671V64.5947C0.0104964 65.1295 0.450904 65.5909 1.01715 65.5909H12.5938C13.1915 65.5909 13.6634 66.1152 13.59 66.7024L11.1257 86.3219C11.0523 86.9196 11.5033 87.423 12.1219 87.423H21.098C21.6014 87.423 22.0313 87.0664 22.0942 86.5736L24.6214 66.5137C24.6843 66.0103 25.1142 65.6328 25.6176 65.6328H45.6146C46.2333 65.6328 46.6947 66.1676 46.6317 66.7548C45.8138 73.2877 44.9854 79.7891 44.1675 86.3219C44.0941 86.9196 44.566 87.423 45.1637 87.423H54.1608C54.6641 87.423 55.094 87.0664 55.1569 86.5736C55.9958 79.873 56.8347 73.1933 57.6841 66.4403C57.747 65.9369 58.1769 65.5594 58.6803 65.5594H75.9823C76.5381 65.5594 76.9995 65.119 76.9995 64.5842V55.6291C76.9995 55.0838 76.5486 54.6119 75.9823 54.6119H60.3056C60.2217 54.6119 60.1273 54.6014 60.0539 54.5805C59.991 54.57 59.9386 54.5385 59.8757 54.5175C59.4982 54.3498 59.257 53.9408 59.3094 53.5004C60.1588 46.8312 60.9767 40.2459 61.8156 33.6187ZM50.7528 33.9228L48.2781 53.7101C48.2151 54.1925 47.7852 54.5595 47.2819 54.5595H27.2848C26.6871 54.5595 26.2048 54.0562 26.2887 53.448L28.7739 33.6712C28.8368 33.1678 29.2562 32.7903 29.7701 32.7903H49.7671C50.3753 32.7903 50.8262 33.3356 50.7528 33.9228Z" fill="#007CF5"/>
<path opacity="0.6" d="M21.1085 87.3916H12.1324C11.5138 87.3916 11.0628 86.8883 11.1362 86.2801L13.6005 66.6606C13.6844 66.0734 13.202 65.5491 12.6043 65.5491H1.03812C0.471867 65.5491 0.0314598 65.0877 0.0314598 64.5529V55.6397C0.0314598 55.0839 0.471867 54.6435 1.03812 54.6435H14.2192C14.7225 54.6435 15.1524 54.2765 15.2154 53.7731L17.732 33.8705C17.8159 33.2833 17.3335 32.759 16.7358 32.759H1.03812C0.482354 32.759 0.0314598 32.2976 0.0314598 31.7628V22.8496C0.0314598 22.8496 9.93034 30.2109 17.8474 28.6484C25.7644 27.0965 19.0847 38.0964 18.9694 46.9362C18.8645 55.797 13.0133 81.467 21.1085 87.3916Z" fill="#005BBE"/>
<path opacity="0.6" d="M77.01 22.7863V31.7519C77.01 32.2867 76.5696 32.7271 76.0138 32.7271H62.8118C62.3085 32.7271 61.8785 33.1047 61.8156 33.608C60.9767 40.2352 60.1588 46.8205 59.3199 53.4582C59.257 53.9615 59.5926 54.4229 60.0644 54.5383C56.0063 53.7308 50.8996 33.7653 57.6107 26.8444C64.4686 19.7768 55.9224 0 55.9224 0H64.8985C65.4962 0 65.9681 0.524307 65.8947 1.11153C65.0768 7.6234 64.2694 14.1038 63.441 20.6472C63.3571 21.2449 63.8394 21.7692 64.4371 21.7692H76.0033C76.5696 21.7797 77.01 22.2201 77.01 22.7863Z" fill="#005BBE"/>
</svg>
