<svg width="321" height="545" viewBox="0 0 321 545" fill="none" xmlns="http://www.w3.org/2000/svg">
<g clip-path="url(#clip0)">
<path d="M204.345 29.3286H230.202C240.642 29.3286 250.655 33.4695 258.037 40.8404C265.419 48.2112 269.567 58.2082 269.567 68.6321V555H164.98V68.6263C164.98 58.2024 169.127 48.2054 176.51 40.8345C183.892 33.4637 193.905 29.3228 204.345 29.3228V29.3286Z" fill="#18D96E"/>
<path d="M203.256 228.195H168.498L173.18 190.434C173.249 189.974 173.217 189.503 173.084 189.056C172.952 188.609 172.723 188.197 172.414 187.848C172.105 187.498 171.723 187.221 171.295 187.035C170.868 186.849 170.404 186.759 169.937 186.771H144.361C143.355 186.8 142.391 187.183 141.641 187.854C140.892 188.525 140.404 189.439 140.264 190.434L135.612 228.195H76.0375L80.6845 190.434C80.7566 189.976 80.7269 189.507 80.5975 189.06C80.4682 188.614 80.2423 188.202 79.9359 187.853C79.6294 187.503 79.2499 187.225 78.8241 187.038C78.3982 186.851 77.9365 186.76 77.4714 186.771H51.8953C50.8904 186.804 49.9293 187.19 49.1803 187.859C48.4313 188.529 47.9422 189.441 47.7985 190.434L43.1749 228.195H17.5579C16.5515 228.224 15.588 228.608 14.838 229.279C14.0881 229.95 13.6003 230.864 13.461 231.859L10.3357 257.401C10.2657 257.861 10.2971 258.33 10.4275 258.775C10.558 259.221 10.7844 259.634 11.091 259.983C11.3975 260.333 11.7768 260.611 12.2024 260.799C12.6279 260.987 13.0894 261.08 13.5547 261.071H39.1307L34.0506 302.151H8.48042C7.46743 302.173 6.49541 302.555 5.73835 303.227C4.98128 303.899 4.48859 304.819 4.34845 305.821L1.17047 331.357C1.10002 331.819 1.13199 332.29 1.26412 332.738C1.39624 333.186 1.6253 333.6 1.93511 333.95C2.24492 334.3 2.62792 334.578 3.05707 334.764C3.48621 334.95 3.95103 335.04 4.41868 335.027H29.9889L25.3068 372.787C25.2373 373.249 25.27 373.72 25.4025 374.167C25.5351 374.614 25.7643 375.027 26.074 375.377C26.3837 375.726 26.7663 376.003 27.195 376.189C27.6237 376.375 28.0879 376.464 28.555 376.451H54.131C55.1374 376.422 56.101 376.038 56.8509 375.368C57.6008 374.697 58.0886 373.783 58.2279 372.787L62.91 335.027H122.455L117.802 372.817C117.731 373.275 117.761 373.744 117.891 374.19C118.021 374.635 118.247 375.047 118.553 375.396C118.859 375.746 119.238 376.024 119.664 376.211C120.089 376.398 120.55 376.49 121.015 376.48H146.591C147.602 376.453 148.57 376.07 149.326 375.4C150.081 374.73 150.576 373.815 150.723 372.817L155.341 335.056H190.1C191.111 335.029 192.081 334.646 192.837 333.974C193.593 333.303 194.087 332.386 194.232 331.386L197.345 305.85C197.42 305.391 197.393 304.921 197.265 304.473C197.137 304.026 196.912 303.612 196.606 303.262C196.3 302.911 195.92 302.633 195.493 302.446C195.066 302.259 194.604 302.168 194.138 302.18H159.414L164.459 261.1H199.189C200.201 261.076 201.172 260.693 201.929 260.021C202.685 259.35 203.178 258.431 203.321 257.43L206.464 231.888C206.544 231.427 206.52 230.954 206.395 230.504C206.269 230.053 206.045 229.636 205.738 229.282C205.431 228.929 205.049 228.648 204.62 228.46C204.19 228.272 203.725 228.182 203.256 228.195V228.195ZM126.487 302.151H66.9483L71.9992 261.071H131.538L126.487 302.151Z" stroke="#18D96E" stroke-width="4" stroke-miterlimit="10"/>
<path d="M115.25 310.04C115.25 310.04 129.607 347.52 142.845 397.283C154.445 440.917 145.186 443.219 167.04 503.343L173.238 526.039L187.384 529.376C187.384 529.376 174.742 459.008 154.211 290.224C154.211 290.224 119.318 284.819 115.25 310.04Z" fill="#29374F"/>
<path d="M185.85 518.116C183.283 517.098 180.461 516.906 177.78 517.566C175.357 518.105 173.129 519.3 171.342 521.02L170.329 542.39L171.248 546.316C171.248 546.316 171.248 546.439 171.394 546.638C174.59 547.368 179.249 547.222 184.235 546.054C189.725 544.774 194.29 542.547 196.707 540.268L195.823 536.435L185.85 518.116Z" fill="#F7F7F7"/>
<path d="M180.302 396.775C190.222 346.252 202.074 307.907 202.074 307.907C196.356 283.007 161.89 290.698 161.89 290.698C152.549 460.469 144.56 531.492 144.56 531.492L158.021 529.738L163.142 504.196C181.01 442.74 171.605 441.057 180.302 396.775Z" fill="#2F3D5B"/>
<path d="M145.145 520.12C147.641 518.937 150.443 518.559 153.164 519.039C155.603 519.426 157.891 520.473 159.777 522.066L162.194 543.319L161.539 547.304C161.539 547.304 161.539 547.421 161.41 547.631C158.267 548.572 153.614 548.742 148.534 547.906C142.98 546.989 138.274 545.084 135.711 542.951L136.355 539.059L145.145 520.12Z" fill="#F7F7F7"/>
<path d="M151.788 124.409C151.788 124.409 149.594 131.947 169.446 124.409C169.446 124.409 206.944 135.4 214.119 164.057C221.294 192.713 225.461 203.162 223.84 216.362C222.582 226.629 207.453 260.995 192.523 243.482C177.593 225.969 198.726 187.7 198.726 187.7C198.726 187.7 208.939 274.347 208.875 316.666C208.84 345.936 201.331 407.621 201.331 407.621C151.496 407.621 116.046 407.001 116.046 407.001C116.046 407.001 108.537 330.848 109.889 305.873C111.54 275.353 120.611 184.912 120.611 184.912L118.551 246.299C118.551 246.299 94.2041 237.58 94.2977 216.362C94.3914 190.177 88.609 142.81 151.788 124.409Z" fill="#DDFF00"/>
<path d="M222.605 62.4555C222.605 74.8083 218.936 86.8837 212.063 97.1546C205.189 107.425 195.419 115.431 183.989 120.157C172.558 124.884 159.981 126.121 147.846 123.711C135.712 121.3 124.566 115.351 115.818 106.616C107.07 97.8811 101.113 86.752 98.7003 74.6364C96.2873 62.5209 97.5269 49.9629 102.262 38.5508C106.998 27.1386 115.016 17.3848 125.304 10.5228C135.591 3.66081 147.686 -0.00115549 160.058 2.73495e-07C168.272 2.3759e-07 176.406 1.6155 183.995 4.75426C191.584 7.89302 198.479 12.4935 204.288 18.2932C210.096 24.0928 214.703 30.9779 217.846 38.5553C220.989 46.1327 222.606 54.254 222.605 62.4555Z" fill="#080830"/>
<path d="M141.137 88.5819C141.137 88.5819 138.796 75.6093 142.951 67.592C148.177 57.5061 163.81 51.9489 175.843 62.6776C184.218 70.1515 179.817 89.8675 179.817 89.8675L153.579 78.7298L141.137 88.5819Z" fill="#151C28"/>
<path d="M170.312 126.22C170.312 126.22 159.303 132.028 151.583 126.22L153.228 106.066H168.673L170.312 126.22Z" fill="#29374F"/>
<path d="M144.426 86.303C143.788 85.9056 143.02 85.7725 142.286 85.9318C141.551 86.0912 140.908 86.5304 140.493 87.1561C138.778 89.4409 139.907 98.0017 144.209 98.0017C148.511 98.0017 144.426 86.303 144.426 86.303Z" fill="#29374F"/>
<path d="M177.587 86.303C178.224 85.9056 178.992 85.7725 179.727 85.9318C180.461 86.0912 181.105 86.5304 181.52 87.1561C183.24 89.4409 182.105 98.0017 177.803 98.0017C173.501 98.0017 177.587 86.303 177.587 86.303Z" fill="#29374F"/>
<path d="M178.307 83.9246C178.307 74.3121 170.535 68.0244 160.942 68.0244C151.35 68.0244 143.571 74.3121 143.571 83.9246C143.571 83.9246 142.822 96.196 142.822 96.7804C142.822 105.914 154.018 117.496 160.965 117.496C168.96 117.496 179.109 103.699 179.109 96.7804C179.091 96.1843 178.307 83.9246 178.307 83.9246Z" fill="#2F3D5B"/>
<path d="M144.04 103.354L144.391 103.249L143.975 102.262L143.77 102.32C142.844 102.57 141.856 102.441 141.024 101.963C140.192 101.486 139.584 100.697 139.334 99.7723C139.084 98.847 139.213 97.8606 139.691 97.0299C140.17 96.1992 140.959 95.5924 141.886 95.3429L141.605 94.3086C140.404 94.6317 139.38 95.4181 138.759 96.4948C138.139 97.5715 137.972 98.8503 138.295 100.05C138.619 101.249 139.407 102.271 140.485 102.891C141.563 103.511 142.844 103.677 144.045 103.354H144.04Z" fill="#18D96E"/>
<path d="M177.633 103.354C177.492 103.318 177.353 103.273 177.218 103.22C177.323 103.261 177.668 102.25 177.668 102.25L177.908 102.32C178.367 102.444 178.846 102.476 179.317 102.415C179.789 102.353 180.243 102.2 180.655 101.964C181.067 101.727 181.428 101.412 181.718 101.036C182.008 100.66 182.221 100.23 182.345 99.7723C182.468 99.3141 182.501 98.8362 182.439 98.3656C182.378 97.8951 182.225 97.4412 181.988 97.0299C181.751 96.6186 181.435 96.2579 181.058 95.9685C180.682 95.679 180.252 95.4664 179.793 95.3429L180.074 94.3086C180.669 94.4686 181.226 94.744 181.715 95.1191C182.203 95.4942 182.612 95.9617 182.92 96.4948C183.227 97.0279 183.426 97.6163 183.506 98.2262C183.585 98.8362 183.544 99.4559 183.384 100.05C183.223 100.644 182.947 101.2 182.572 101.688C182.196 102.175 181.728 102.584 181.194 102.891C180.66 103.198 180.071 103.397 179.46 103.476C178.849 103.556 178.228 103.514 177.633 103.354Z" fill="#18D96E"/>
<path d="M184.768 208.918L185.482 220.716L204.134 212.47C204.134 212.47 194.454 207.211 184.768 208.918Z" fill="#2F3D5B"/>
<path d="M131.743 207.03C131.743 207.03 128.495 200.094 127.646 200.094C126.798 200.094 126.318 201.607 126.318 201.607C126.318 201.607 124.123 196.932 123.187 197.324C121.694 197.821 122.162 200.918 122.162 200.918C122.162 200.918 120.74 199.375 120.161 199.498C117.931 200.45 121.068 206.709 121.068 206.709L131.743 207.03Z" fill="#2F3D5B"/>
<path opacity="0.2" d="M183.574 208.579L110.287 206.387L115.244 210.338L183.574 208.579Z" fill="#2A3756"/>
<path opacity="0.2" d="M122.46 243.482L175.614 228.429L128.688 237.194L122.46 243.482Z" fill="#2A3756"/>
<path opacity="0.2" d="M197.193 246.299C178.722 253.357 156.856 240.584 156.856 240.584C174.689 247.865 195.595 246.299 195.595 246.299H197.193Z" fill="#2A3756"/>
<path d="M285.088 208.725C283.807 210.519 282.068 211.909 280.547 213.493C279.446 214.662 278.276 215.772 277.141 216.906L271.288 222.749C271.197 222.846 271.088 222.924 270.966 222.977C270.844 223.03 270.713 223.058 270.58 223.058C270.447 223.058 270.315 223.03 270.193 222.977C270.071 222.924 269.962 222.846 269.872 222.749L264.019 216.906C262.883 215.772 261.719 214.644 260.613 213.493C259.091 211.909 257.347 210.519 256.065 208.725C254.655 206.844 254.012 204.498 254.269 202.162C254.525 199.826 255.66 197.674 257.445 196.142C259.23 194.61 261.531 193.813 263.882 193.911C266.234 194.008 268.461 194.995 270.111 196.669L270.568 197.137L271.036 196.669C272.687 194.995 274.914 194.008 277.265 193.911C279.617 193.813 281.918 194.61 283.703 196.142C285.488 197.674 286.623 199.826 286.879 202.162C287.135 204.498 286.493 206.844 285.083 208.725H285.088Z" fill="url(#paint0_linear)"/>
<path d="M251.833 180.565C250.946 181.642 249.982 182.654 248.948 183.592C248.246 184.322 247.508 185.041 246.782 185.76L243.078 189.453C243.018 189.514 242.948 189.563 242.869 189.598C242.791 189.632 242.707 189.65 242.621 189.651C242.537 189.65 242.455 189.631 242.379 189.597C242.302 189.563 242.233 189.514 242.176 189.453L238.472 185.76C237.746 185.041 237.003 184.322 236.306 183.592C235.27 182.654 234.304 181.642 233.415 180.565C232.54 179.368 232.149 177.887 232.319 176.415C232.49 174.944 233.209 173.59 234.334 172.625C235.459 171.659 236.907 171.152 238.39 171.205C239.873 171.258 241.281 171.867 242.334 172.91L242.621 173.202L242.92 172.91C243.97 171.854 245.381 171.234 246.871 171.175C248.36 171.116 249.816 171.623 250.946 172.594C252.076 173.564 252.796 174.926 252.96 176.405C253.125 177.884 252.722 179.37 251.833 180.565Z" fill="url(#paint1_linear)"/>
<path d="M285.474 162.117C284.468 163.525 283.133 164.618 281.91 165.857C281.044 166.768 280.125 167.651 279.235 168.545L274.647 173.114C274.571 173.192 274.48 173.254 274.379 173.295C274.279 173.336 274.17 173.356 274.062 173.354C273.959 173.353 273.857 173.331 273.762 173.29C273.668 173.248 273.583 173.189 273.512 173.114L268.923 168.545C268.028 167.651 267.115 166.792 266.243 165.857C265.072 164.618 263.679 163.519 262.672 162.117C261.567 160.639 261.064 158.797 261.266 156.964C261.468 155.13 262.359 153.441 263.76 152.239C265.161 151.036 266.966 150.409 268.812 150.484C270.658 150.56 272.407 151.332 273.705 152.644L274.062 153.013L274.425 152.644C275.725 151.341 277.47 150.578 279.311 150.507C281.152 150.436 282.951 151.064 284.347 152.263C285.744 153.463 286.634 155.146 286.838 156.974C287.043 158.801 286.547 160.639 285.451 162.117H285.474Z" fill="url(#paint2_linear)"/>
<path d="M293.803 445.907V472.238C293.803 479.835 296.384 483.341 301.54 483.341C308.692 483.341 312.074 477.024 312.074 467.306C312.074 444.481 294.253 427.629 271.159 427.629C247.947 427.629 229.189 445.305 229.189 468.124C229.189 491.066 248.181 508.509 270.573 508.509C280.04 508.539 289.246 505.41 296.729 499.621L301.768 507.112C292.761 513.705 281.87 517.233 270.702 517.175C243.037 517.175 220.176 496.343 220.176 468.13C220.176 440.04 242.803 418.975 271.17 418.975C299.538 418.975 320.994 439.339 320.994 467.078C320.994 481.477 315.364 492.48 301.534 492.48C292.977 492.48 288.289 489.319 285.825 484.638C283.63 487.168 280.91 489.191 277.854 490.567C274.798 491.944 271.479 492.64 268.127 492.609C254.882 492.609 244.681 482.19 244.681 468.609C244.681 454.918 254.882 444.616 268.127 444.616C273.538 444.56 278.801 446.382 283.016 449.77V445.907H293.803ZM283.268 475.166C283.151 473.413 283.034 471.66 283.034 469.784V461.603C279.75 456.566 274.711 454.112 269.906 454.112C262.637 454.112 255.719 459.61 255.719 468.504C255.719 477.521 262.637 482.903 269.906 482.903C274.342 482.891 279.756 480.787 283.268 475.166Z" fill="#080830"/>
</g>
<defs>
<linearGradient id="paint0_linear" x1="254.28" y1="208.491" x2="286.903" y2="208.491" gradientUnits="userSpaceOnUse">
<stop stop-color="#CCE5F9"/>
<stop offset="1" stop-color="#FFE3EA"/>
</linearGradient>
<linearGradient id="paint1_linear" x1="8453.69" y1="5876.6" x2="9186.83" y2="5876.6" gradientUnits="userSpaceOnUse">
<stop stop-color="#CCE5F9"/>
<stop offset="1" stop-color="#FFE3EA"/>
</linearGradient>
<linearGradient id="paint2_linear" x1="11717.3" y1="6489.63" x2="12840.7" y2="6489.63" gradientUnits="userSpaceOnUse">
<stop stop-color="#CCE5F9"/>
<stop offset="1" stop-color="#FFE3EA"/>
</linearGradient>
<clipPath id="clip0">
<rect width="321" height="555" fill="white"/>
</clipPath>
</defs>
</svg>
