<svg width="252" height="310" viewBox="0 0 252 310" fill="none" xmlns="http://www.w3.org/2000/svg">
<path d="M210.49 0H4.54071C2.02218 0 0 2.02217 0 4.5407V290.265C0 292.784 2.02218 294.806 4.54071 294.806H210.49C212.99 294.806 215.031 292.784 215.031 290.265V4.5499C215.031 2.03137 212.99 0 210.49 0ZM202.199 247.193H12.8316V39.3497H202.199V247.193Z" fill="#090930"/>
<path d="M21.9315 30.8474C26.9571 30.8474 31.0312 26.7733 31.0312 21.7476C31.0312 16.722 26.9571 12.6478 21.9315 12.6478C16.9058 12.6478 12.8317 16.722 12.8317 21.7476C12.8317 26.7733 16.9058 30.8474 21.9315 30.8474Z" fill="#D9E9F7"/>
<path d="M27.7315 262.341C27.2351 264.4 25.4979 265.76 24.0916 266.872L20.6906 269.538C20.5895 269.611 20.4701 269.639 20.3598 269.639C20.2403 269.639 20.1208 269.611 20.0289 269.538L16.6279 266.872C15.2216 265.76 13.466 264.4 12.9696 262.341C12.6111 260.842 12.9696 259.234 13.9256 258.021C14.808 256.899 16.104 256.247 17.446 256.247C18.5214 256.247 19.5325 256.623 20.3506 257.322C21.1594 256.614 22.1797 256.247 23.246 256.247C24.6063 256.247 25.9023 256.89 26.7848 258.021C27.7315 259.234 28.0992 260.842 27.7315 262.341Z" fill="#FF6B58"/>
<path d="M52.0804 266.036C52.6779 264.878 52.9352 263.591 52.8341 262.286C52.5768 258.912 49.8376 256.182 46.4735 255.925C44.4513 255.759 42.4567 256.495 41.0136 257.938C39.5705 259.381 38.8352 261.376 39.0006 263.407C39.2855 266.808 42.0614 269.538 45.4624 269.749C45.6094 269.768 45.7657 269.768 45.9128 269.768C47.0801 269.768 48.2199 269.483 49.231 268.931C49.3045 268.885 49.4148 268.885 49.4975 268.913L51.8966 269.648C52.1172 269.722 52.3654 269.648 52.54 269.483C52.7238 269.317 52.779 269.078 52.7238 268.848L52.062 266.256C52.0344 266.183 52.0436 266.091 52.0804 266.036ZM51.0234 266.532L51.5013 268.426L49.8101 267.902C49.4516 267.782 49.0471 267.828 48.7162 268.003C47.7603 268.527 46.6481 268.766 45.5359 268.692C42.6405 268.508 40.3058 266.201 40.0668 263.324C39.929 261.596 40.5448 259.923 41.7581 258.692C42.8703 257.579 44.3686 256.964 45.9312 256.964C46.0782 256.964 46.2345 256.982 46.3999 256.991C49.231 257.212 51.5565 259.528 51.7679 262.359C51.7863 262.525 51.7863 262.672 51.7863 262.837C51.7863 263.784 51.5657 264.694 51.1429 265.539C50.9682 265.843 50.9406 266.183 51.0234 266.532Z" fill="white"/>
<path d="M76.089 257.414C76.089 257.368 76.0614 257.322 76.0247 257.276C76.0431 257.258 76.0431 257.258 76.0247 257.258C76.0063 257.212 75.9787 257.184 75.9236 257.157C75.8225 257.055 75.7122 257.019 75.5927 257.019L62.7702 256.973C62.5588 256.973 62.3658 257.111 62.2739 257.304C62.2003 257.497 62.2463 257.736 62.375 257.892L66.7686 262.405L66.8697 262.506C66.9616 262.607 67.1087 262.672 67.2466 262.672C67.3385 262.672 67.4304 262.644 67.504 262.598L67.8624 262.405L69.7559 261.366L74.0301 259.032V259.013L75.8408 258.021C75.9144 257.975 75.9787 257.919 76.0339 257.837C76.1166 257.717 76.1442 257.552 76.089 257.414ZM67.3569 261.477L64.0295 258.057L73.5061 258.085L67.3569 261.477Z" fill="white"/>
<path d="M76.0889 257.414C76.0889 257.368 76.0614 257.322 76.0246 257.276C76.043 257.258 76.043 257.258 76.0246 257.258C76.0062 257.23 75.997 257.193 75.9786 257.184C75.9603 257.175 75.9511 257.157 75.9143 257.157C75.8132 257.055 75.7029 257.019 75.5834 257.019C75.4915 257.019 75.3996 257.037 75.326 257.083L73.4969 258.085L67.3476 261.477L66.9891 261.67C66.7777 261.789 66.6766 262.028 66.7318 262.267L66.7594 262.405L68.23 268.527C68.276 268.738 68.4414 268.904 68.6528 268.931H68.7448C68.9286 268.931 69.1032 268.839 69.1952 268.692L76.0338 257.846C76.1165 257.717 76.1441 257.552 76.0889 257.414ZM74.03 259.032L68.9746 267.038L67.8624 262.405L69.7558 261.366L74.03 259.013V259.032Z" fill="white"/>
<path d="M201.675 256.513H191.353C191.068 256.513 190.829 256.752 190.829 257.056V268.407C190.829 268.619 190.949 268.812 191.142 268.885C191.325 268.977 191.546 268.95 191.711 268.812L196.51 264.584L201.308 268.812C201.409 268.885 201.528 268.931 201.666 268.931C201.74 268.931 201.813 268.913 201.878 268.885C202.071 268.812 202.19 268.619 202.19 268.407V257.056C202.199 256.752 201.96 256.513 201.675 256.513ZM201.133 267.222L196.877 263.471C196.776 263.379 196.638 263.334 196.519 263.334C196.399 263.334 196.261 263.379 196.16 263.471L191.905 267.222V257.598H201.142V267.222H201.133Z" fill="white"/>
<path d="M201.133 257.589V267.213L196.877 263.462C196.776 263.37 196.638 263.324 196.519 263.324C196.399 263.324 196.262 263.37 196.16 263.462L191.905 267.213V257.589H201.133Z" fill="white"/>
<path d="M193.89 22.9885C194.479 22.9885 194.956 22.5111 194.956 21.9222C194.956 21.3334 194.479 20.856 193.89 20.856C193.301 20.856 192.824 21.3334 192.824 21.9222C192.824 22.5111 193.301 22.9885 193.89 22.9885Z" fill="white"/>
<path d="M197.512 22.9884C198.1 22.9884 198.578 22.5111 198.578 21.9222C198.578 21.3333 198.1 20.856 197.512 20.856C196.923 20.856 196.445 21.3333 196.445 21.9222C196.445 22.5111 196.923 22.9884 197.512 22.9884Z" fill="white"/>
<path d="M201.142 22.9884C201.731 22.9884 202.209 22.5111 202.209 21.9222C202.209 21.3333 201.731 20.856 201.142 20.856C200.553 20.856 200.076 21.3333 200.076 21.9222C200.076 22.5111 200.553 22.9884 201.142 22.9884Z" fill="white"/>
<path d="M37.0793 17.4459C37.0793 17.2805 37.1437 17.1334 37.2632 17.0139C37.3827 16.8944 37.5297 16.8301 37.6952 16.8301C37.8606 16.8301 38.0077 16.8944 38.1272 17.0139C38.2467 17.1334 38.311 17.2805 38.311 17.4459C38.311 17.6114 38.2467 17.7584 38.1272 17.8779C38.0077 17.9974 37.8606 18.0618 37.6952 18.0618C37.5297 18.0618 37.3827 17.9974 37.2632 17.8779C37.1437 17.7584 37.0793 17.6114 37.0793 17.4459ZM37.2724 19.0177H38.0996V23.393H37.2724V19.0177Z" fill="white"/>
<path d="M41.7672 19.7346H40.5723V21.72C40.5723 21.8395 40.5723 21.9682 40.5815 22.0876C40.5906 22.2071 40.609 22.3174 40.655 22.4094C40.6917 22.5013 40.7561 22.584 40.8388 22.6392C40.9216 22.6943 41.041 22.7219 41.2065 22.7219C41.3076 22.7219 41.4087 22.7127 41.5098 22.6943C41.6109 22.6759 41.712 22.6392 41.7948 22.5932V23.3469C41.6936 23.4021 41.5742 23.4388 41.4087 23.4572C41.2524 23.4756 41.133 23.494 41.041 23.494C40.7193 23.494 40.4711 23.448 40.2965 23.3561C40.1219 23.2642 39.9932 23.1539 39.9105 23.0068C39.8277 22.8689 39.7818 22.7035 39.7634 22.5288C39.745 22.3542 39.745 22.1796 39.745 21.9957V19.7162H38.7891V18.9992H39.745V17.7767H40.5723V18.9992H41.7672V19.7346Z" fill="white"/>
<path d="M45.1591 20.1115C45.058 19.992 44.9385 19.8817 44.7914 19.7989C44.6443 19.7162 44.4697 19.6703 44.2583 19.6703C44.0653 19.6703 43.8906 19.7162 43.7435 19.7989C43.5965 19.8817 43.5229 20.0012 43.5229 20.1666C43.5229 20.2953 43.5689 20.3964 43.6516 20.4791C43.7343 20.5619 43.8354 20.6262 43.9457 20.6722C44.0561 20.7181 44.1847 20.7549 44.3134 20.7825C44.4421 20.81 44.5524 20.8284 44.6443 20.8468C44.8282 20.8928 44.9936 20.9387 45.1499 21.0031C45.3061 21.0674 45.444 21.1409 45.5543 21.2421C45.6646 21.3432 45.7565 21.4627 45.8209 21.6005C45.8852 21.7476 45.9128 21.913 45.9128 22.1153C45.9128 22.3634 45.8576 22.5748 45.7565 22.7495C45.6554 22.9241 45.5175 23.0712 45.3521 23.1815C45.1866 23.2918 44.9936 23.3745 44.7822 23.4205C44.5708 23.4664 44.3594 23.494 44.1388 23.494C43.7711 23.494 43.4586 23.4389 43.1828 23.3286C42.9071 23.2183 42.6681 23.0161 42.4475 22.7219L43.0725 22.2072C43.2104 22.3451 43.3575 22.4646 43.5229 22.5657C43.6884 22.6668 43.8906 22.7219 44.1296 22.7219C44.2307 22.7219 44.341 22.7127 44.4513 22.6851C44.5616 22.6668 44.6535 22.63 44.7362 22.584C44.819 22.5381 44.8833 22.4829 44.9385 22.4094C44.9936 22.3359 45.012 22.2623 45.012 22.1704C45.012 22.0509 44.9752 21.9498 44.9017 21.8671C44.8282 21.7935 44.7362 21.7292 44.6259 21.6833C44.5156 21.6373 44.4053 21.6005 44.2859 21.573C44.1664 21.5454 44.0652 21.527 43.9641 21.4994C43.7895 21.4535 43.6148 21.4075 43.4586 21.3523C43.3023 21.2972 43.1553 21.2237 43.0358 21.1318C42.9163 21.0398 42.8152 20.9203 42.7416 20.7825C42.6681 20.6446 42.6313 20.4699 42.6313 20.2585C42.6313 20.0287 42.6773 19.8357 42.7692 19.6611C42.8611 19.4864 42.9898 19.3486 43.1461 19.2383C43.3023 19.128 43.4862 19.0452 43.6792 18.9901C43.8814 18.9349 44.0836 18.9073 44.2859 18.9073C44.58 18.9073 44.8649 18.9625 45.1315 19.0728C45.4072 19.1831 45.6186 19.3669 45.7749 19.6243L45.1591 20.1115Z" fill="white"/>
<path d="M47.5854 23.4481C47.42 23.4481 47.2729 23.3838 47.1534 23.2643C47.0339 23.1448 46.9696 22.9977 46.9696 22.8323C46.9696 22.6668 47.0339 22.5198 47.1534 22.4003C47.2729 22.2808 47.42 22.2164 47.5854 22.2164C47.7509 22.2164 47.898 22.2808 48.0175 22.4003C48.137 22.5198 48.2013 22.6668 48.2013 22.8323C48.2013 22.9977 48.137 23.1448 48.0175 23.2643C47.898 23.3838 47.7509 23.4481 47.5854 23.4481Z" fill="white"/>
<path d="M52.6225 20.1759C52.4663 20.0196 52.31 19.891 52.1354 19.8082C51.9699 19.7255 51.7677 19.6796 51.5287 19.6796C51.2989 19.6796 51.1059 19.7163 50.9313 19.8082C50.7658 19.891 50.6188 20.0013 50.5085 20.1483C50.3982 20.2954 50.3062 20.4608 50.2511 20.6447C50.1959 20.8285 50.1684 21.0307 50.1684 21.2329C50.1684 21.4352 50.2051 21.6282 50.2695 21.812C50.343 21.9959 50.4349 22.1521 50.5544 22.29C50.6739 22.4279 50.821 22.529 50.9956 22.6117C51.1703 22.6852 51.3633 22.722 51.5747 22.722C51.8045 22.722 52.0067 22.6761 52.1721 22.5933C52.3376 22.5106 52.4939 22.3911 52.6317 22.2257L53.22 22.8139C53.0086 23.0529 52.7512 23.2276 52.4663 23.3287C52.1813 23.4298 51.878 23.4849 51.5563 23.4849C51.2162 23.4849 50.9129 23.4298 50.6279 23.3195C50.3522 23.2092 50.104 23.0529 49.9018 22.8507C49.6996 22.6485 49.5433 22.4095 49.433 22.1337C49.3227 21.858 49.2676 21.5455 49.2676 21.2054C49.2676 20.8653 49.3227 20.5528 49.433 20.277C49.5433 19.9921 49.6996 19.7531 49.9018 19.5509C50.104 19.3487 50.343 19.1924 50.6188 19.0729C50.9037 18.9626 51.2162 18.8983 51.5563 18.8983C51.878 18.8983 52.1813 18.9534 52.4755 19.0729C52.7696 19.1832 53.0178 19.3578 53.2384 19.5968L52.6225 20.1759Z" fill="white"/>
<path d="M53.735 21.2053C53.735 20.8836 53.7993 20.5894 53.9188 20.3137C54.0383 20.0379 54.2038 19.7898 54.4152 19.5875C54.6266 19.3761 54.8656 19.2107 55.1505 19.0912C55.4354 18.9717 55.7388 18.9073 56.0605 18.9073C56.3822 18.9073 56.6855 18.9717 56.9705 19.0912C57.2554 19.2107 57.4944 19.3761 57.7058 19.5875C57.9172 19.799 58.0827 20.0379 58.2022 20.3137C58.3217 20.5894 58.386 20.8928 58.386 21.2053C58.386 21.527 58.3217 21.8211 58.2022 22.1061C58.0827 22.3818 57.9172 22.63 57.7058 22.8322C57.4944 23.0344 57.2554 23.1999 56.9705 23.3194C56.6855 23.4389 56.3822 23.5032 56.0605 23.5032C55.7388 23.5032 55.4263 23.4389 55.1505 23.3194C54.8656 23.1999 54.6266 23.0344 54.4152 22.8322C54.2038 22.63 54.0383 22.3818 53.9188 22.1061C53.7901 21.8211 53.735 21.527 53.735 21.2053ZM54.6174 21.2053C54.6174 21.4259 54.6541 21.6281 54.7185 21.8211C54.7828 22.005 54.8839 22.1704 55.0034 22.2991C55.1229 22.4278 55.2792 22.5381 55.4538 22.6116C55.6285 22.6851 55.8307 22.7219 56.0513 22.7219C56.2719 22.7219 56.4741 22.6851 56.6488 22.6116C56.8234 22.5381 56.9796 22.4278 57.0991 22.2991C57.2186 22.1704 57.3198 22.005 57.3841 21.8211C57.4484 21.6373 57.4852 21.4259 57.4852 21.2053C57.4852 20.9847 57.4484 20.7825 57.3841 20.5894C57.3106 20.4056 57.2186 20.2402 57.0991 20.1115C56.9796 19.9828 56.8234 19.8725 56.6488 19.7989C56.4741 19.7254 56.2719 19.6795 56.0513 19.6795C55.8307 19.6795 55.6285 19.7162 55.4538 19.7989C55.27 19.8725 55.1229 19.9828 55.0034 20.1115C54.8839 20.2402 54.7828 20.4056 54.7185 20.5894C54.6541 20.7733 54.6174 20.9847 54.6174 21.2053Z" fill="white"/>
<path d="M63.2943 23.3837H62.467V22.7127H62.4486C62.3475 22.9425 62.1637 23.1355 61.9063 23.2826C61.649 23.4297 61.3548 23.5032 61.0147 23.5032C60.7941 23.5032 60.6011 23.4664 60.4081 23.4113C60.215 23.3469 60.0496 23.2458 59.9025 23.1079C59.7555 22.9701 59.6452 22.7954 59.5532 22.584C59.4705 22.3726 59.4246 22.1244 59.4246 21.8303V19.0176H60.2518V21.6005C60.2518 21.8027 60.2794 21.9774 60.3345 22.1244C60.3897 22.2715 60.4632 22.3818 60.5551 22.4737C60.6471 22.5656 60.7573 22.63 60.8768 22.6668C60.9963 22.7035 61.125 22.7311 61.2537 22.7311C61.4283 22.7311 61.5846 22.7035 61.7317 22.6484C61.8787 22.5932 62.0074 22.5013 62.1177 22.3818C62.228 22.2623 62.3108 22.106 62.3751 21.9222C62.4394 21.7384 62.467 21.5178 62.467 21.2696V19.0176H63.2943V23.3837Z" fill="white"/>
<path d="M64.5533 19.0177H65.3806V19.6887H65.399C65.4541 19.5692 65.5277 19.468 65.6196 19.3669C65.7115 19.275 65.8126 19.1923 65.9321 19.1188C66.0424 19.0544 66.1711 18.9993 66.309 18.9533C66.4468 18.9165 66.5847 18.889 66.7134 18.889C66.8421 18.889 66.9708 18.9074 67.0811 18.9441L67.0443 19.8357C66.98 19.8173 66.9064 19.799 66.8421 19.7898C66.7777 19.7806 66.7042 19.7714 66.6399 19.7714C66.2354 19.7714 65.9229 19.8817 65.7115 20.1115C65.4909 20.3413 65.3898 20.6905 65.3898 21.1685V23.3653H64.5625V19.0177H64.5533Z" fill="white"/>
<path d="M70.3074 19.7346H69.1124V21.72C69.1124 21.8395 69.1124 21.9682 69.1216 22.0876C69.1308 22.2071 69.1492 22.3174 69.1952 22.4094C69.2319 22.5013 69.2963 22.584 69.379 22.6392C69.4617 22.6943 69.5812 22.7219 69.7467 22.7219C69.8478 22.7219 69.9489 22.7127 70.05 22.6943C70.1511 22.6759 70.2522 22.6392 70.3349 22.5932V23.3469C70.2338 23.4021 70.1052 23.4388 69.9489 23.4572C69.7926 23.4756 69.6731 23.494 69.5812 23.494C69.2595 23.494 69.0113 23.448 68.8367 23.3561C68.6621 23.2642 68.5334 23.1539 68.4506 23.0068C68.3679 22.8689 68.322 22.7035 68.3036 22.5288C68.2852 22.3542 68.2852 22.1796 68.2852 21.9957V19.7162H67.3201V18.9992H68.2852V17.7767H69.1124V18.9992H70.3074V19.7346Z" fill="white"/>
<path d="M71.3829 19.0178H72.2102V19.6887H72.2286C72.3297 19.4589 72.5135 19.2659 72.7709 19.1189C73.0282 18.9718 73.3316 18.8983 73.6625 18.8983C73.8739 18.8983 74.0761 18.935 74.2691 18.9994C74.4622 19.0637 74.6276 19.1648 74.7747 19.3027C74.9217 19.4406 75.032 19.6152 75.124 19.8266C75.2067 20.038 75.2526 20.2862 75.2526 20.5803V23.393H74.4254V20.8101C74.4254 20.6079 74.3978 20.4333 74.3427 20.2862C74.2875 20.1391 74.214 20.0288 74.1221 19.9369C74.0301 19.845 73.9199 19.7807 73.8004 19.7439C73.6809 19.7071 73.5614 19.6796 73.4235 19.6796C73.2489 19.6796 73.0926 19.7071 72.9455 19.7623C72.7985 19.8174 72.6698 19.9093 72.5595 20.0288C72.4492 20.1483 72.3573 20.3046 72.3021 20.4884C72.2378 20.6723 72.2102 20.8929 72.2102 21.141V23.393H71.3829V19.0178Z" fill="white"/>
<path d="M77.1368 21.5087C77.1368 21.7017 77.1736 21.8764 77.2655 22.0326C77.3482 22.1889 77.4585 22.3268 77.5964 22.4371C77.7343 22.5474 77.8906 22.6301 78.0652 22.6944C78.2399 22.7588 78.4237 22.7863 78.6167 22.7863C78.8741 22.7863 79.1039 22.722 79.2877 22.6025C79.4807 22.483 79.6554 22.3268 79.8116 22.1245L80.4367 22.6025C79.9771 23.2 79.3337 23.4941 78.4972 23.4941C78.1571 23.4941 77.8446 23.439 77.5597 23.3195C77.2747 23.2 77.0449 23.0437 76.8519 22.8323C76.6589 22.6301 76.5118 22.3819 76.4015 22.1062C76.3004 21.8212 76.2452 21.5271 76.2452 21.1962C76.2452 20.8745 76.3004 20.5711 76.4107 20.2862C76.521 20.0104 76.6773 19.7623 76.8795 19.5601C77.0817 19.3486 77.3207 19.1924 77.5964 19.0729C77.8722 18.9534 78.1755 18.8983 78.4972 18.8983C78.8833 18.8983 79.2142 18.9718 79.4807 19.1005C79.7473 19.2383 79.9679 19.413 80.1425 19.6336C80.3172 19.8542 80.4367 20.0932 80.5194 20.3689C80.5929 20.6447 80.6389 20.9204 80.6389 21.2054V21.4995H77.1368V21.5087ZM79.7565 20.8469C79.7473 20.6631 79.7197 20.4976 79.6738 20.3414C79.6186 20.1851 79.5451 20.0564 79.4348 19.9369C79.3337 19.8266 79.1958 19.7347 79.0395 19.6704C78.8833 19.606 78.6994 19.5692 78.488 19.5692C78.2858 19.5692 78.102 19.606 77.9273 19.6887C77.7619 19.7623 77.6148 19.8634 77.4953 19.9921C77.3758 20.1116 77.2839 20.2494 77.2196 20.4057C77.1552 20.5528 77.1185 20.709 77.1185 20.8561H79.7565V20.8469Z" fill="white"/>
<path d="M81.5028 17.4459C81.5028 17.2804 81.558 17.1333 81.6775 17.0138C81.7969 16.8944 81.944 16.83 82.1095 16.83C82.2749 16.83 82.4128 16.8944 82.5415 17.0138C82.661 17.1333 82.7253 17.2804 82.7253 17.4459C82.7253 17.6113 82.661 17.7584 82.5415 17.8779C82.422 17.9974 82.2841 18.0617 82.1095 18.0617C81.9348 18.0617 81.7969 17.9974 81.6775 17.8779C81.5672 17.7584 81.5028 17.6113 81.5028 17.4459ZM81.6958 19.0176H82.5231V23.3929H81.6958V19.0176Z" fill="white"/>
<path d="M252 249.206V259.583C252 260.778 251.035 261.743 249.831 261.743H180.213C179.018 261.743 178.043 260.778 178.043 259.583V249.206C178.043 248.011 179.009 247.046 180.213 247.046H249.831C251.035 247.037 252 248.002 252 249.206Z" fill="#1CD66E"/>
<path d="M249.785 261.743V306.452C249.785 307.941 248.581 309.145 247.092 309.145H182.98C181.49 309.145 180.286 307.941 180.286 306.452V261.743H249.785Z" fill="#1CD66E"/>
<path d="M222.458 247.036H207.613V309.154H222.458V247.036Z" fill="#DAFC05"/>
<path opacity="0.33" d="M247.882 247.036C245.391 251.88 240.566 255.53 234.922 255.024C227.909 254.39 221.557 250.584 214.424 250.538C209.084 250.502 204.203 252.809 199.414 254.895C195.011 256.807 188.559 258.875 185.213 254.077C183.798 252.046 183.007 249.537 182.529 247.036H247.882Z" fill="#146D38"/>
<path d="M215.031 246.467C213.579 244.821 208.652 247.634 207.117 248.259C202.42 250.171 197.548 252.414 192.355 252.276C184.662 252.074 184.34 240.428 183.981 234.848C183.77 231.457 183.871 226.383 187.741 225.151C191.225 224.039 194.865 227.412 197.392 229.37C200.297 231.613 202.944 234.177 205.591 236.714C207.301 238.35 208.992 240.014 210.628 241.715C212.136 243.259 213.597 244.849 215.031 246.467Z" fill="#DAFC05"/>
<path d="M246.081 234.848C245.722 240.428 245.4 252.074 237.707 252.276C232.514 252.414 227.651 250.171 222.945 248.259C221.41 247.634 216.483 244.821 215.022 246.467C215.867 245.502 216.741 244.555 217.614 243.617C219.829 241.246 222.118 238.939 224.462 236.705C227.109 234.168 229.756 231.604 232.661 229.361C235.188 227.412 238.837 224.039 242.312 225.142C244.987 225.997 245.86 228.69 246.081 231.392C246.182 232.596 246.154 233.8 246.081 234.848Z" fill="#DAFC05"/>
<path opacity="0.33" d="M249.785 261.743C249.785 261.743 249.785 292.83 249.785 292.894C249.785 292.416 246.752 289.419 246.421 288.206C245.796 285.927 246.09 283.426 246.035 281.101C245.915 275.273 245.207 270.337 238.874 268.49C225.519 264.583 211.492 272.065 198.054 268.922C191.886 267.479 185.783 264.878 180.277 261.743H249.785V261.743Z" fill="#146D38"/>
<path opacity="0.22" d="M210.628 241.705C212.136 243.259 213.597 244.849 215.031 246.466C213.579 244.821 208.652 247.634 207.117 248.259C202.42 250.171 197.548 252.414 192.355 252.276C184.662 252.073 184.34 240.428 183.981 234.848C183.981 234.848 187.621 247.073 194.157 246.163C199.957 245.345 206.786 240.722 210.628 241.705Z" fill="#027DED"/>
<path opacity="0.22" d="M246.081 234.848C245.722 240.428 245.4 252.074 237.707 252.276C232.514 252.414 227.651 250.171 222.945 248.259C221.41 247.634 216.483 244.821 215.022 246.467C215.867 245.501 216.741 244.555 217.614 243.617C221.87 243.663 227.348 243.24 231.934 246.209C238.314 250.345 243.158 234.839 246.081 231.392C246.182 232.596 246.154 233.8 246.081 234.848Z" fill="#027DED"/>
<path d="M221.125 241.852V245.924C221.125 247.726 219.664 249.169 217.871 249.169H212.2C210.398 249.169 208.955 247.717 208.955 245.924V241.852C208.955 240.06 210.407 238.608 212.2 238.608H217.871C219.664 238.608 221.125 240.06 221.125 241.852Z" fill="#DAFC05"/>
</svg>
