<svg width="75" height="51" viewBox="0 0 75 51" fill="none" xmlns="http://www.w3.org/2000/svg">
<path d="M74.6208 0.58862L74.6301 8.60316L74.6393 20.5697C74.6393 20.9889 74.151 21.2192 73.8286 20.952L68.1586 16.2815C67.9467 16.1064 67.6381 16.1387 67.463 16.3506L46.4456 41.8451C46.2752 42.057 45.962 42.0846 45.7501 41.9142L27.8003 27.1149C27.5884 26.9445 27.2752 26.9721 27.1001 27.184L8.29823 50.0024C8.11859 50.2097 7.80537 50.2419 7.5981 50.0715L4.75156 47.727L0.831797 44.4936C0.624524 44.3185 0.592284 44.0053 0.762709 43.7934L25.7782 13.4533C25.9532 13.2415 26.2665 13.2138 26.4783 13.3842L44.4235 28.1789C44.6354 28.3539 44.9486 28.3217 45.119 28.1098L59.9275 10.1416C60.1026 9.9297 60.0703 9.61649 59.8584 9.44606L54.1884 4.77552C53.8659 4.50837 53.9949 3.98328 54.4095 3.90498L74.0221 0.114189C74.3399 0.0450984 74.6208 0.280014 74.6208 0.58862Z" fill="#FF6B58"/>
<path d="M74.63 8.60303L74.6392 20.5696C74.6392 20.9887 74.1509 21.219 73.8285 20.9519L68.1585 16.2813C67.9466 16.1063 67.638 16.1385 67.4629 16.3504L46.4455 41.845C46.2751 42.0568 45.9619 42.0845 45.75 41.914L27.8002 27.1148C27.5883 26.9443 27.2751 26.972 27.1001 27.1839L8.29814 50.0023C8.1185 50.2095 7.80528 50.2418 7.59801 50.0714L4.75146 47.7269C6.85643 41.3889 10.136 34.397 14.4288 33.8673C22.4019 32.8862 21.1076 18.5107 28.7536 22.131C36.4043 25.7468 44.2116 42.78 49.7849 32.8079C55.2154 23.0845 65.077 9.50121 74.63 8.60303Z" fill="#DA5849"/>
</svg>
