<svg width="873" height="721" viewBox="0 0 873 721" fill="none" xmlns="http://www.w3.org/2000/svg">
<g opacity="0.08">
<path d="M740.426 0H734.575V121H740.426V0Z" fill="#19223F"/>
<path d="M798 57.5752H677V63.4263H798V57.5752Z" fill="#19223F"/>
<path d="M696.778 15.6479L692.641 19.7852L778.2 105.344L782.337 101.207L696.778 15.6479Z" fill="#19223F"/>
<path d="M778.2 15.646L692.641 101.205L696.778 105.342L782.337 19.7833L778.2 15.646Z" fill="#19223F"/>
<path d="M682.591 34.9837L680.384 40.4023L792.442 86.0556L794.649 80.6369L682.591 34.9837Z" fill="#19223F"/>
<path d="M757.637 3.39307L711.983 115.451L717.402 117.659L763.055 5.60068L757.637 3.39307Z" fill="#19223F"/>
<path d="M792.575 35.1868L680.323 80.3682L682.508 85.7962L794.76 40.6148L792.575 35.1868Z" fill="#19223F"/>
<path d="M717.59 3.32654L712.162 5.51074L757.331 117.762L762.759 115.578L717.59 3.32654Z" fill="#19223F"/>
</g>
<g opacity="0.08">
<path d="M63.4263 526H57.5752V647H63.4263V526Z" fill="#19223F"/>
<path d="M121 583.575H0V589.426H121V583.575Z" fill="#19223F"/>
<path d="M19.7779 541.648L15.6406 545.785L101.2 631.344L105.337 627.207L19.7779 541.648Z" fill="#19223F"/>
<path d="M101.2 541.646L15.6411 627.205L19.7784 631.342L105.337 545.783L101.2 541.646Z" fill="#19223F"/>
<path d="M5.5914 560.984L3.38379 566.402L115.442 612.056L117.649 606.637L5.5914 560.984Z" fill="#19223F"/>
<path d="M80.6367 529.393L34.9834 641.451L40.4021 643.659L86.0554 531.601L80.6367 529.393Z" fill="#19223F"/>
<path d="M115.575 561.187L3.32324 606.368L5.50803 611.796L117.76 566.615L115.575 561.187Z" fill="#19223F"/>
<path d="M40.5901 529.327L35.1621 531.511L80.3314 643.762L85.7594 641.578L40.5901 529.327Z" fill="#19223F"/>
</g>
<path d="M534.5 715C565.152 715 590 690.152 590 659.5C590 628.848 565.152 604 534.5 604C503.848 604 479 628.848 479 659.5C479 690.152 503.848 715 534.5 715Z" stroke="#DAFC05" stroke-width="11" stroke-miterlimit="10"/>
<path opacity="0.1" d="M865.811 191.981C623.123 551.21 382.666 260.904 438.085 146.803C473.865 73.1345 551.477 101.043 540.049 146.814C528.62 192.585 278.986 356.874 164.724 58.8" stroke="#0E6FFF" stroke-width="13" stroke-linecap="round" stroke-linejoin="round"/>
</svg>
