<svg width="420" height="546" viewBox="0 0 420 546" fill="none" xmlns="http://www.w3.org/2000/svg">
<path d="M229.207 429.345C334.147 429.345 419.218 344.274 419.218 239.333C419.218 134.393 334.147 49.3223 229.207 49.3223C124.267 49.3223 39.1958 134.393 39.1958 239.333C39.1958 344.274 124.267 429.345 229.207 429.345Z" fill="#FB8C7F"/>
<path d="M138.56 207.462H37.9785C37.9785 207.462 35.507 183.534 30.5517 167.475C11.0993 104.47 25.7931 87.7103 25.707 86.9233C27.8097 97.3258 28.7442 140.325 32.8756 146.313C39.1343 155.363 55.9923 172.836 74.9528 174.779C93.9133 176.722 112.886 172.197 117.854 165.286C119.231 163.38 120.153 161.044 120.854 158.474C122.698 158.954 127.469 160.159 131.908 161.093C134.724 177.029 138.56 207.462 138.56 207.462Z" fill="#302D93"/>
<path opacity="0.28" d="M132.99 167.537C128.736 167.647 124.026 170.267 117.239 175.234C108.607 181.554 89.6835 185.784 75.1496 181.567C60.6033 177.349 53.5085 174.189 40.5115 175.234C37.2654 175.492 34.3758 174.226 31.892 172.16C31.4739 170.549 31.0313 168.988 30.564 167.488C11.1608 104.655 25.7193 87.8214 25.7193 86.936C27.822 97.3508 28.7565 140.338 32.888 146.314C39.1467 155.364 56.0046 172.836 74.9651 174.779C93.9257 176.722 112.899 172.197 117.866 165.287C119.243 163.381 120.165 161.044 120.866 158.475C122.711 158.954 127.482 160.159 131.921 161.094C132.265 163.049 132.634 165.225 133.003 167.537H132.99Z" fill="#090930"/>
<path d="M114.583 31.9726C114.067 39.4363 111.079 50.7979 106.246 58.8395C104.094 62.43 101.574 65.3564 98.758 66.9795C97.7374 67.582 96.6677 68.0001 95.561 68.2214C94.9339 68.3444 94.3068 68.4059 93.692 68.3936C93.3477 68.3936 93.0034 68.369 92.6715 68.3198C92.3518 68.2829 92.0443 68.2337 91.7246 68.16C90.5811 67.914 89.4745 67.4591 88.417 66.8935C85.6258 65.4056 83.1297 63.0694 80.9779 61.0651C80.7812 60.8807 80.1663 60.3519 79.4163 59.688C77.4981 57.9788 74.5962 55.2737 74.9897 54.5605C75.0512 54.4498 99.5695 11.2783 99.5695 11.2783C99.5695 11.2783 112.222 12.6063 114.497 27.128V27.1525C114.694 28.4313 114.718 30.0667 114.595 31.9603L114.583 31.9726Z" fill="#BC7A5C"/>
<path d="M114.497 27.1646V27.1401C114.325 26.6113 111.411 17.5614 109.21 19.0369C109.21 19.0369 107.132 25.8367 100.516 29.2427C93.9011 32.6487 92.0075 37.5548 91.073 43.9857C90.3475 48.8795 83.6093 52.0519 79.4286 59.7001C78.1129 62.0978 77.0555 64.9382 76.5144 68.4057C74.2397 82.9273 51.5657 77.2588 40.032 84.4397C28.5106 91.6206 21.1329 104.47 21.1329 104.47C21.1329 104.47 21.4403 89.0877 27.4039 76.7178C29.5065 72.3404 32.3101 68.3442 36.0604 65.5407C44.6061 59.1344 45.5529 47.8343 47.6064 38.1819C48.7622 32.7594 50.2869 27.3491 53.2011 22.5782C57.7998 15.053 64.5627 7.49092 72.5797 3.51929C81.7772 -1.04255 92.61 0.51906 101.5 5.0932C104.144 6.44577 107.414 8.46232 110.07 10.9461C112.296 13.0242 114.079 15.4342 114.669 18.0901C115.813 23.193 114.497 27.1646 114.497 27.1646Z" fill="#D8A189"/>
<path opacity="0.71" d="M107.119 48.6089L106.246 58.8515C103.32 63.7453 99.7048 67.4096 95.561 68.2334C94.2453 68.4916 92.9665 68.4424 91.7369 68.1842C93.3969 61.2247 92.9174 46.6538 95.6471 40.3582C99.0162 32.5748 106.677 40.3582 106.677 40.3582L107.132 48.6212L107.119 48.6089Z" fill="#8C5C45"/>
<path d="M132.99 54.4867C133.445 55.6671 132.744 57.2041 129.24 58.4215C127.74 58.9502 125.932 59.4912 124.789 60.6471C123.621 61.8152 122.748 63.0325 121.321 63.9055C120.891 64.176 120.473 64.4465 120.067 64.7416C119.194 65.3687 118.37 66.0819 117.608 66.8689C117.018 67.4714 116.44 68.1231 115.899 68.7748C115.444 69.3281 115.013 69.906 114.595 70.4839C114.337 70.8528 114.079 71.234 113.833 71.6151L93.3723 70.7544C93.3723 70.7544 93.5076 69.8445 93.692 68.4059C93.692 68.2829 93.7166 68.1477 93.7412 68.0247C94.3437 63.4752 95.4626 54.5236 95.3889 51.1668C95.2905 46.5803 96.2496 46.2975 97.7743 42.7563C99.2867 39.2519 102.213 39.3134 102.644 39.8421C102.865 40.1249 102.976 40.4077 103 40.6782C103.086 41.957 101.328 43.0637 101.881 44.3793C102.004 44.6745 103.824 43.1497 103.947 43.0391C104.094 42.8915 104.23 42.744 104.353 42.5964C104.968 41.9201 105.521 41.1947 106.16 40.5307C107.71 38.9568 109.271 37.3829 110.833 35.8213C112.075 34.5794 113.317 33.2637 114.595 31.9849C116.046 30.534 117.546 29.1322 119.157 27.9395C119.305 27.8411 119.44 27.7305 119.588 27.6444C121.211 26.7837 124.272 26.5009 125.711 26.882C126.658 27.128 127.014 28.5174 127.125 29.6732C127.174 30.2635 127.162 30.7922 127.125 31.0873C127.027 31.948 126.928 32.3292 124.641 32.2308C122.354 32.1325 117.19 38.0592 118.038 39.215C118.592 39.9405 120.633 39.2765 122.809 38.4403C124.063 37.9485 125.367 37.4075 126.449 37.014C129.412 35.9688 130.654 35.4893 131.896 37.8747C132.88 39.756 133.322 41.6988 131.97 42.953C132.142 43.0145 132.302 43.1128 132.437 43.2235C132.781 43.5063 133.015 43.9367 133.089 44.5638C133.089 44.613 133.089 44.6745 133.089 44.7236C133.544 48.7567 131.134 48.2403 126.129 51.0684C125.305 51.5357 124.42 52.1996 124.506 52.6177C124.567 52.8513 124.936 53.0112 125.834 52.9989C127.174 52.9989 128.514 52.753 129.855 52.6177C130.986 52.4948 132.511 53.3186 132.929 54.4744H132.978L132.99 54.4867Z" fill="#BC7A5C"/>
<path d="M104.353 42.5714C104.218 42.7313 104.082 42.8788 103.947 43.0141C103.836 43.1247 102.017 44.6495 101.881 44.3543C101.328 43.0387 103.086 41.932 103 40.6655L104.353 42.5714Z" fill="#BC7A5C"/>
<path d="M150.488 35.4277C150.488 35.4277 150.033 35.44 149.283 35.4646" stroke="#146D38" stroke-miterlimit="10"/>
<path d="M167.641 44.9202C167.641 52.0396 166.239 57.831 164.517 57.831C164.198 57.831 163.89 57.6466 163.607 57.2777C164.899 55.6669 165.833 50.7485 165.833 44.9202C165.833 39.0918 164.899 34.1611 163.607 32.5626C163.89 32.206 164.198 32.0093 164.517 32.0093C166.239 32.0093 167.641 37.7761 167.641 44.9202Z" fill="#242270"/>
<path d="M165.821 44.92C165.821 50.736 164.886 55.6667 163.595 57.2775C163.423 57.0808 163.276 56.8349 163.14 56.5397C163.066 56.4045 163.005 56.2569 162.944 56.1094C162.845 55.8758 162.759 55.6175 162.661 55.347C162.661 55.347 162.636 55.2733 162.624 55.2364C162.599 55.138 162.562 55.0273 162.525 54.9167C162.501 54.8429 162.476 54.7691 162.464 54.6953C162.439 54.6216 162.427 54.5478 162.402 54.4617C162.366 54.3019 162.316 54.142 162.28 53.9822V53.9453C162.243 53.7977 162.218 53.6379 162.181 53.4903C162.144 53.3059 162.107 53.1337 162.07 52.937C162.07 52.8878 162.07 52.8386 162.046 52.7895C162.021 52.6542 161.997 52.5066 161.972 52.3714C161.948 52.2361 161.923 52.1009 161.911 51.9656C161.911 51.9287 161.911 51.8795 161.886 51.8304C161.886 51.6828 161.849 51.5475 161.825 51.4C161.8 51.191 161.763 50.9696 161.738 50.736C161.738 50.6745 161.738 50.613 161.714 50.5516C161.689 50.3425 161.665 50.1212 161.64 49.8999C161.616 49.6785 161.603 49.4572 161.579 49.2359C161.579 49.1006 161.554 48.9777 161.554 48.8424C161.554 48.744 161.554 48.6457 161.529 48.5473C161.529 48.3383 161.505 48.1292 161.493 47.9202V47.539C161.493 47.2562 161.468 46.9734 161.456 46.6906C161.456 46.4693 161.456 46.2479 161.456 46.0143V43.8502C161.456 43.6289 161.456 43.3952 161.456 43.1739C161.456 43.0141 161.456 42.8665 161.456 42.719C161.456 42.5837 161.456 42.4607 161.456 42.3255C161.456 42.1533 161.456 41.9812 161.48 41.8091C161.48 41.6738 161.48 41.5508 161.505 41.4279C161.505 41.3418 161.505 41.268 161.505 41.182V40.9606C161.505 40.85 161.505 40.7393 161.529 40.6286C161.529 40.4073 161.566 40.186 161.591 39.9646C161.616 39.6818 161.652 39.399 161.689 39.1408C161.714 38.8949 161.751 38.649 161.788 38.403C161.788 38.2924 161.812 38.1817 161.837 38.0711C161.837 38.0219 161.837 37.9604 161.861 37.9112C161.911 37.5915 161.972 37.2718 162.034 36.9767C162.058 36.8537 162.083 36.7308 162.107 36.6078C162.107 36.5832 162.107 36.5586 162.107 36.5217C162.107 36.4726 162.107 36.4234 162.132 36.3865C162.132 36.2881 162.169 36.1897 162.193 36.1037L162.23 35.9561C162.316 35.5872 162.415 35.2429 162.501 34.9233C162.525 34.8372 162.55 34.7634 162.575 34.6773C162.575 34.665 162.575 34.6404 162.575 34.6281C162.575 34.6281 162.599 34.5544 162.612 34.5175C162.648 34.4068 162.685 34.3085 162.722 34.1978C162.747 34.1363 162.759 34.0748 162.784 34.0256C162.821 33.9396 162.857 33.8412 162.894 33.7551C162.956 33.5953 163.03 33.46 163.091 33.3248C163.239 33.0297 163.386 32.7714 163.546 32.5747C164.837 34.1732 165.772 39.0916 165.772 44.9323L165.821 44.92Z" fill="#302D93"/>
<path d="M160.558 57.831H161.394C160.952 58.3966 160.447 58.704 159.931 58.704C159.169 58.704 158.455 58.04 157.841 56.8596C157.078 55.421 156.488 53.2446 156.119 50.6255C155.886 48.8795 155.75 46.949 155.75 44.9201C155.75 42.8913 155.886 40.9608 156.119 39.2147C156.488 36.5834 157.078 34.4193 157.841 32.9806C158.455 31.8125 159.169 31.1362 159.931 31.1362C160.447 31.1362 160.939 31.4436 161.394 32.0093H160.558C159.98 32.0093 159.451 32.6364 158.996 33.7307C158.05 35.9563 157.435 40.137 157.435 44.9078C157.435 49.6787 158.062 53.8594 158.996 56.085C159.451 57.1916 159.992 57.8064 160.558 57.8064V57.831Z" fill="#242270"/>
<path d="M159.931 58.704H155.443C155.049 53.6503 154.767 52.9125 152.529 53.9454C151.324 54.511 150.979 56.1218 150.93 57.9171C150.93 58.5319 150.93 59.1835 150.967 59.8106C150.352 60.1918 149.553 60.5361 148.582 60.6468C148.151 59.3557 147.709 58.0769 147.426 57.1301C146.602 54.3635 145.09 50.5148 142.79 48.7073C142.63 48.5843 142.421 48.5597 142.249 48.6458C139.433 50.0722 141.868 55.0767 142.053 55.7652C142.655 57.9293 142.458 60.7206 142.262 62.3805C141.536 60.0812 140.356 57.4867 139.224 56.8596C137.232 55.7406 135.855 57.5851 135.954 58.9499C136.04 60.3148 137.232 63.77 137.232 67.053C137.232 70.3361 137.417 70.2377 134.257 69.6967C131.097 69.1434 130.039 64.6922 129.129 63.0445C128.428 61.778 126.633 61.778 125.527 62.4789C124.113 63.3765 125.441 67.2744 126.117 68.381C124.764 66.1431 121.801 65.1348 120.055 64.7291C120.448 64.434 120.866 64.1635 121.309 63.8929C122.735 63.0199 123.608 61.8026 124.777 60.6345C125.92 59.4909 127.74 58.9376 129.228 58.4089C136.101 56.0235 132.191 52.3715 129.892 52.6174C128.564 52.765 127.223 52.9986 125.871 52.9986C123.412 53.0232 124.85 51.7813 126.154 51.0435C131.232 48.1786 133.63 48.7442 133.101 44.5389C132.99 43.6536 132.572 43.1618 131.97 42.9281C133.31 41.6739 132.88 39.7312 131.896 37.8499C130.654 35.4644 129.412 35.944 126.449 36.9891C123.485 38.0466 118.899 40.3337 118.038 39.1901C117.178 38.0466 122.342 32.1199 124.641 32.206C126.928 32.3043 127.027 31.9232 127.125 31.0624C127.223 30.2017 127.125 27.2383 125.699 26.8572C124.26 26.476 121.198 26.7588 119.575 27.6195C119.415 27.7056 119.28 27.8163 119.145 27.9146C116.108 30.1525 113.489 33.1528 110.833 35.7964C109.271 37.358 107.71 38.9319 106.16 40.5058C105.521 41.1575 104.968 41.883 104.353 42.5716C104.218 42.7314 104.082 42.879 103.947 43.0142C103.836 43.1249 102.017 44.6496 101.881 44.3545C101.328 43.0388 103.086 41.9322 103 40.6657C103.062 40.3952 105.017 32.1445 105.164 30.8288C105.312 29.4885 110.193 30.9764 111.829 30.8288C113.452 30.6813 113.378 27.0047 117.227 26.6973C121.075 26.3899 136.101 26.1194 137.06 26.6973C138.019 27.2752 140.024 30.0173 139.569 31.3452C139.335 32.0215 139.815 32.7224 140.528 32.6732L159.599 31.1608C158.947 31.3206 158.345 31.96 157.816 32.9683C157.054 34.407 156.464 36.5834 156.095 39.2024C155.861 40.9485 155.726 42.879 155.726 44.9078C155.726 46.9367 155.861 48.8671 156.095 50.6132C156.464 53.2445 157.054 55.4086 157.816 56.8473C158.431 58.0154 159.144 58.6917 159.906 58.6917H159.931V58.704Z" fill="#090930"/>
<path d="M164.505 57.8309H160.546C159.98 57.8309 159.439 57.2038 158.984 56.1094C158.037 53.8838 157.423 49.7031 157.423 44.9323C157.423 40.1614 158.05 35.9807 158.984 33.7551C159.439 32.6608 159.968 32.0337 160.546 32.0337H164.505C164.013 32.0337 163.546 32.5009 163.14 33.3248C163.066 33.46 163.005 33.6076 162.944 33.7551C162.907 33.8412 162.87 33.9396 162.833 34.0257C162.808 34.0748 162.796 34.1363 162.771 34.1978C162.734 34.2962 162.698 34.4068 162.661 34.5175C162.661 34.5175 162.661 34.579 162.636 34.6159C162.636 34.6159 162.636 34.6528 162.636 34.6773C162.612 34.7634 162.587 34.8372 162.562 34.9233C162.464 35.243 162.378 35.5873 162.292 35.9561L162.255 36.1037C162.255 36.1898 162.218 36.2881 162.193 36.3865C162.193 36.4234 162.169 36.4726 162.169 36.5218C162.169 36.5464 162.169 36.5709 162.169 36.6078C162.144 36.7308 162.12 36.8415 162.095 36.9767C162.034 37.2718 161.984 37.5915 161.923 37.9112C161.923 37.9604 161.923 38.0219 161.898 38.0711C161.898 38.1817 161.874 38.2801 161.849 38.4031C161.812 38.6367 161.788 38.8826 161.751 39.1408C161.714 39.4113 161.689 39.6941 161.652 39.9647C161.652 40.186 161.616 40.4073 161.591 40.6286C161.591 40.7393 161.591 40.85 161.566 40.9606V41.182C161.566 41.268 161.566 41.3418 161.566 41.4279C161.566 41.5631 161.566 41.6861 161.542 41.8091C161.542 41.9812 161.517 42.1534 161.517 42.3255C161.517 42.4608 161.517 42.5837 161.517 42.719C161.517 42.8788 161.517 43.0264 161.517 43.1739C161.517 43.3953 161.517 43.6289 161.517 43.8502V46.0143C161.517 46.248 161.517 46.4693 161.517 46.6906C161.517 46.9734 161.542 47.2562 161.554 47.539V47.9202C161.554 48.1292 161.554 48.3383 161.591 48.5473C161.591 48.6457 161.591 48.7441 161.616 48.8424C161.616 48.9777 161.616 49.1006 161.64 49.2359C161.64 49.4572 161.677 49.6786 161.702 49.8999C161.726 50.1212 161.751 50.3425 161.775 50.5516C161.775 50.6131 161.775 50.6745 161.8 50.736C161.825 50.9573 161.849 51.1787 161.886 51.4C161.911 51.5476 161.935 51.6951 161.948 51.8304C161.948 51.8673 161.948 51.9164 161.972 51.9656C161.972 52.1009 162.009 52.2361 162.034 52.3714C162.058 52.5189 162.083 52.6542 162.107 52.7895C162.107 52.8387 162.107 52.8878 162.132 52.937C162.169 53.1215 162.206 53.3059 162.243 53.4903C162.28 53.6502 162.304 53.7977 162.341 53.9453V53.9822C162.378 54.1543 162.427 54.3142 162.464 54.4617C162.489 54.5478 162.501 54.6216 162.525 54.6954C162.525 54.7691 162.562 54.8429 162.587 54.9167C162.612 55.0273 162.648 55.1257 162.673 55.2364C162.673 55.2364 162.698 55.3102 162.71 55.3348C162.796 55.6053 162.894 55.8635 162.993 56.0971C163.054 56.257 163.116 56.3922 163.189 56.5275C163.595 57.3636 164.062 57.8186 164.554 57.8186L164.505 57.8309Z" fill="#090930"/>
<path opacity="0.71" d="M131.994 42.953L120.584 46.9984C120.584 46.9984 120.584 45.9041 123.387 44.404C126.191 42.9038 129.793 44.3302 130.851 41.0963C131.908 37.8625 131.084 36.1041 128.281 37.2968C126.793 37.9362 124.58 38.2559 122.821 38.4281C124.076 37.9362 125.379 37.3952 126.461 37.0017C129.424 35.9566 130.666 35.477 131.908 37.8625C132.892 39.7438 133.335 41.6865 131.982 42.9407L131.994 42.953Z" fill="#8C5C45"/>
<path d="M131.994 42.9526C132.166 43.0141 132.326 43.1125 132.462 43.2231L131.994 42.9526Z" fill="#BC7A5C"/>
<path opacity="0.71" d="M129.24 58.4211C127.74 58.9498 125.932 59.4908 124.789 60.6467C123.621 61.8148 122.748 63.0321 121.321 63.9051C120.891 64.1756 120.473 64.4461 120.067 64.7412C119.194 65.3683 118.37 66.0815 117.608 66.8685C116.514 67.9874 115.505 69.2047 114.608 70.4835L109.296 70.6926C109.296 70.6926 112.025 63.0444 116.759 62.8722C121.506 62.6878 125.047 56.9455 129.523 56.4906C131.675 56.2693 132.609 55.3593 132.99 54.4863C133.445 55.6668 132.744 57.2038 129.24 58.4211Z" fill="#8C5C45"/>
<path opacity="0.6" d="M110.058 10.9461C104.07 8.85579 96.3849 7.41716 91.7369 11.2904C83.2773 18.3238 87.9006 27.5458 72.1493 32.6979C56.4103 37.8499 56.4103 54.9661 50.1639 63.2413C45.9832 68.7869 34.6094 71.9961 27.3916 76.7178C29.4942 72.3404 32.2977 68.3442 36.048 65.5407C44.5938 59.1344 45.5406 47.8343 47.594 38.1819C48.7499 32.7594 50.2746 27.3491 53.1888 22.5782C57.7875 15.053 64.5503 7.49092 72.5674 3.51929C81.7648 -1.04255 92.5977 0.51906 101.488 5.0932C104.131 6.44577 107.402 8.46232 110.058 10.9461Z" fill="#E5C0B0"/>
<path opacity="0.37" d="M159.931 58.7042H152.307C151.951 58.7042 151.619 58.5566 151.299 58.2984L150.918 57.9172C150.918 57.9172 149.319 57.659 149.27 52.6299C149.221 47.6008 143.565 42.5102 139.581 39.8543C135.695 37.2598 139.384 31.6651 139.581 31.37C139.347 32.0463 139.827 32.7472 140.54 32.698L159.611 31.1855C158.96 31.3454 158.357 31.9848 157.828 32.9931C157.066 34.4317 156.476 36.6081 156.107 39.2272C155.873 40.9732 155.738 42.9037 155.738 44.9326C155.738 46.9614 155.873 48.8919 156.107 50.6379C156.476 53.2693 157.066 55.4334 157.828 56.8721C158.443 58.0402 159.156 58.7165 159.919 58.7165H159.931V58.7042Z" fill="#242270"/>
<path opacity="0.71" d="M126.166 51.0684C125.342 51.5357 124.457 52.1996 124.543 52.6177C124.469 52.4087 123.621 49.765 128.281 48.1788C130.986 47.2443 132.4 45.8057 133.126 44.7236C133.58 48.7567 131.17 48.2403 126.166 51.0684Z" fill="#8C5C45"/>
<path opacity="0.71" d="M127.125 31.0747C127.027 31.9354 126.928 32.3166 124.641 32.2182C122.354 32.1199 117.19 38.0466 118.038 39.2024C116.009 39.9893 118.161 34.0258 120.571 32.0092C121.961 30.8534 124.887 30.091 127.113 29.6606C127.162 30.2509 127.15 30.7796 127.113 31.0747H127.125Z" fill="#8C5C45"/>
<path d="M151.434 68.4055C146.245 71.8853 140.331 76.1643 140.331 77.3447C140.331 78.5251 130.949 85.2634 130.949 85.2634L121.395 81.4393C121.395 81.4393 121.297 75.156 123.94 73.3362C126.584 71.5164 127.211 70.2007 126.129 68.3932C125.453 67.2742 124.113 63.3887 125.539 62.4911C125.822 62.3189 126.129 62.1837 126.473 62.1099C126.818 62.0238 127.162 61.9992 127.506 62.0361C128.17 62.1099 128.785 62.4296 129.129 63.0567C130.039 64.6921 131.097 69.1555 134.257 69.7089C137.417 70.2499 137.232 70.3482 137.232 67.0652C137.232 63.7821 136.052 60.327 135.954 58.9621C135.88 57.8923 136.716 56.5275 138.032 56.5152C138.401 56.5152 138.794 56.6135 139.237 56.8595C139.741 57.1423 140.27 57.8308 140.761 58.7285C141.339 59.7859 141.88 61.1262 142.274 62.3804C142.471 60.7204 142.667 57.9292 142.065 55.7651C141.868 55.0765 139.446 50.072 142.262 48.6457C142.434 48.5596 142.643 48.5842 142.803 48.7072C145.09 50.5147 146.614 54.3634 147.438 57.13C147.721 58.0768 148.164 59.3556 148.594 60.6467C149.283 62.7124 149.897 62.5894 149.897 62.5894C149.861 61.7902 151.041 60.9172 150.979 59.7982C150.943 59.1711 150.918 58.5317 150.943 57.9046C150.992 56.1094 151.336 54.4863 152.541 53.933C152.664 53.8715 152.787 53.8223 152.898 53.7731C154.816 52.9985 155.086 53.9207 155.455 58.6916C155.48 59.0605 155.517 59.4416 155.541 59.8474C155.824 63.5977 156.636 64.9134 151.447 68.3932H151.434V68.4055Z" fill="#BC7A5C"/>
<path opacity="0.71" d="M143.098 65.1716C142.471 68.1227 142.262 67.9751 142.262 67.9751V62.3804C142.458 60.7204 142.655 57.9292 142.052 55.7651C141.856 55.0765 139.433 50.072 142.249 48.6457C142.421 48.5596 142.63 48.5842 142.79 48.7072C141.954 48.744 142.151 51.8427 142.999 53.3674C143.835 54.8921 143.528 58.3719 143.098 59.8105C142.68 61.2369 143.737 62.2328 143.098 65.1839V65.1716Z" fill="#8C5C45"/>
<path opacity="0.71" d="M136.728 70.6926C135.991 70.127 131.97 71.0492 131.638 69.9794C131.318 68.9097 130.15 66.8193 128.281 64.4831C127.494 63.4994 127.359 62.6633 127.494 62.0239C128.158 62.0976 128.773 62.4173 129.117 63.0444C130.027 64.6798 131.084 69.1433 134.244 69.6966C137.405 70.2376 137.22 70.336 137.22 67.053C137.22 63.7699 136.04 60.3147 135.941 58.9498C135.868 57.8801 136.704 56.5152 138.019 56.5029C136.667 57.2161 136.495 61.7288 137.81 64.729C139.126 67.7415 137.478 71.2582 136.728 70.6803V70.6926Z" fill="#8C5C45"/>
<path opacity="0.71" d="M152.307 60.6838C153.316 63.0693 149.873 62.5897 149.873 62.5897C149.836 61.7905 151.016 60.9175 150.955 59.7985C150.918 59.1714 150.893 58.532 150.918 57.9049C150.967 56.1097 151.311 54.4866 152.516 53.9333C152.639 53.8718 152.762 53.8226 152.873 53.7734C151.127 55.2367 151.496 58.7533 152.307 60.6715V60.6838Z" fill="#8C5C45"/>
<path d="M90.0524 69.4014C90.0524 69.4014 90.286 74.8978 90.4213 80.0129C84.5069 78.771 80.3262 76.5331 77.4612 74.3567C76.5513 73.6681 75.789 72.9919 75.1373 72.3402C75.789 71.2212 76.2562 69.9178 76.4898 68.3931C77.0309 64.9256 78.0883 62.0852 79.404 59.6875C80.1664 60.3638 80.7689 60.8802 80.9656 61.0647C83.1174 63.0689 85.6258 65.4175 88.4047 66.893C89.4622 67.4586 90.5688 67.9013 91.7124 68.1595C92.0198 68.221 92.3395 68.2825 92.6592 68.3193C91.2205 68.7866 90.4213 69.1801 90.1508 69.3276C90.077 69.3645 90.0401 69.3891 90.0401 69.3891L90.0524 69.4014Z" fill="#BC7A5C"/>
<path opacity="0.71" d="M92.6714 68.3316C91.2328 68.7989 90.4336 69.1924 90.163 69.3399C88.4785 68.8481 87.3595 67.6554 82.4534 66.4872C78.8507 65.6265 77.7932 71.0737 77.4735 74.3567C76.5636 73.6681 75.8012 72.9919 75.1495 72.3402C75.8012 71.2212 76.2685 69.9178 76.5021 68.3931C77.0431 64.9256 78.1006 62.0852 79.4163 59.6875C80.1786 60.3638 80.7811 60.8802 80.9779 61.0647C83.1297 63.0689 85.6381 65.4175 88.417 66.893C89.4745 67.4586 90.5811 67.9013 91.7246 68.1595C92.032 68.221 92.3517 68.2825 92.6714 68.3193V68.3316Z" fill="#8C5C45"/>
<path d="M155.836 153.876C150.611 161.708 143.897 161.831 140.552 162.311C139.212 162.508 135.683 161.893 131.921 161.094C130.347 160.762 128.724 160.393 127.211 160.036C124.457 159.397 122.047 158.782 120.854 158.474C122.686 151.761 122.969 143.35 125.613 136.182C129.277 126.259 129.056 113.102 125.613 102.318C123.055 94.3381 119.944 87.1695 119.182 79.3123C119.182 79.3123 121.198 79.964 124.1 80.3452C127.273 80.7633 131.502 80.8616 135.29 79.4353L142.532 76.7056L144.438 90.1206C144.438 90.1206 150.193 95.703 149.873 100.093C149.553 104.482 149.787 105.319 150.377 106.265C150.967 107.224 160.238 117.43 160.829 125.029C161.419 132.628 161.062 146.043 155.836 153.888V153.876Z" fill="#302D93"/>
<path opacity="0.28" d="M127.211 160.036C124.457 159.397 122.047 158.782 120.854 158.475C122.686 151.761 122.969 143.35 125.613 136.182C129.277 126.259 129.056 113.102 125.613 102.318C123.055 94.3383 119.944 87.1697 119.182 79.3125C119.182 79.3125 121.198 79.9642 124.1 80.3454C126.855 94.6334 131.048 114.012 134.49 120.111C138.364 126.984 133.101 147.187 127.199 160.049L127.211 160.036Z" fill="#090930"/>
<path d="M267.817 170.144H5.79966C2.59038 170.144 0.0205078 172.713 0.0205078 175.923V539.432C0.0205078 542.641 2.59038 545.211 5.79966 545.211H267.817C271.001 545.211 273.596 542.641 273.596 539.432V175.923C273.596 172.713 271.001 170.144 267.817 170.144ZM257.267 484.628H16.3497V220.201H257.267V484.616V484.628Z" fill="#090930"/>
<path d="M27.9202 209.38C34.3104 209.38 39.4908 204.2 39.4908 197.81C39.4908 191.42 34.3104 186.239 27.9202 186.239C21.5299 186.239 16.3495 191.42 16.3495 197.81C16.3495 204.2 21.5299 209.38 27.9202 209.38Z" fill="#D7E7F5"/>
<path d="M35.3103 503.896C34.6832 506.515 32.4699 508.249 30.6746 509.663L26.3464 513.057C26.2112 513.155 26.0636 513.192 25.9284 513.192C25.7808 513.192 25.621 513.155 25.5103 513.057L21.1821 509.663C19.3868 508.249 17.1613 506.515 16.5219 503.896C16.0669 501.99 16.5219 499.949 17.7392 498.4C18.8704 496.973 20.5058 496.149 22.2272 496.149C23.6044 496.149 24.8832 496.629 25.9284 497.527C26.9612 496.629 28.2523 496.149 29.6049 496.149C31.3386 496.149 32.9863 496.973 34.1052 498.4C35.3102 499.949 35.7652 501.99 35.3103 503.896Z" fill="#FF6B58"/>
<path d="M66.2718 508.605C67.0341 507.142 67.3538 505.494 67.2308 503.835C66.9111 499.543 63.4191 496.076 59.14 495.744C56.5702 495.535 54.0249 496.469 52.1928 498.301C50.3606 500.133 49.4261 502.666 49.6352 505.261C49.9918 509.589 53.533 513.069 57.8612 513.327C58.058 513.352 58.2424 513.352 58.4392 513.352C59.927 513.352 61.3779 512.995 62.6567 512.282C62.7551 512.22 62.8903 512.22 63.001 512.257L66.0504 513.192C66.3332 513.29 66.6406 513.192 66.8743 512.983C67.1079 512.774 67.1817 512.466 67.1079 512.184L66.2718 508.888C66.2349 508.79 66.2472 508.679 66.2964 508.605H66.2718ZM64.9315 509.232L65.5463 511.63L63.3945 510.966C62.9395 510.819 62.4231 510.868 62.005 511.102C60.7877 511.765 59.3737 512.073 57.9596 511.975C54.2831 511.741 51.3074 508.802 51 505.15C50.8279 502.961 51.6148 500.822 53.1518 499.26C54.5659 497.846 56.4718 497.072 58.4515 497.072C58.6482 497.072 58.8326 497.096 59.0417 497.109C62.6444 497.391 65.6078 500.33 65.866 503.933C65.8906 504.142 65.8906 504.339 65.8906 504.548C65.8906 505.753 65.6078 506.909 65.0667 507.978C64.8577 508.359 64.8208 508.802 64.9315 509.232Z" fill="white"/>
<path d="M96.8152 497.625C96.8152 497.625 96.7783 497.515 96.7415 497.453C96.7169 497.416 96.7169 497.404 96.7415 497.428C96.7783 497.465 96.68 497.33 96.6062 497.293C96.4709 497.158 96.3357 497.121 96.1881 497.121L79.8712 497.06C79.6007 497.06 79.3548 497.232 79.2442 497.478C79.1458 497.724 79.2073 498.031 79.3794 498.228L84.9741 503.97L85.1094 504.105C85.22 504.24 85.4168 504.314 85.5889 504.314C85.6996 504.314 85.8225 504.277 85.9086 504.216L86.3636 503.97L88.7613 502.654L94.1962 499.679V499.654L96.5078 498.4C96.6062 498.338 96.68 498.265 96.7538 498.166C96.8521 497.994 96.889 497.785 96.8152 497.613V497.625ZM85.7119 502.802L81.482 498.449L93.5445 498.486L85.7242 502.802H85.7119Z" fill="white"/>
<path d="M96.8152 497.625C96.8152 497.625 96.7783 497.515 96.7414 497.453C96.7168 497.416 96.7168 497.404 96.7414 497.428C96.7783 497.465 96.7045 497.355 96.6799 497.33C96.6553 497.306 96.643 497.293 96.6062 497.293C96.4709 497.158 96.3356 497.121 96.1881 497.121C96.0774 497.121 95.9545 497.146 95.8684 497.195L93.5444 498.474L85.7241 502.79L85.2692 503.036C84.9987 503.183 84.8634 503.49 84.9495 503.798L84.9864 503.97L86.8554 511.753C86.9169 512.024 87.1259 512.233 87.3841 512.27H87.4948C87.7284 512.27 87.9497 512.159 88.0727 511.962L96.7783 498.166C96.8767 497.994 96.9136 497.785 96.8398 497.613H96.8152V497.625ZM94.1961 499.703L87.7653 509.897L86.3512 504.007L88.749 502.691L94.1838 499.691V499.716L94.1961 499.703Z" fill="white"/>
<path d="M256.59 496.482H243.471C243.114 496.482 242.807 496.789 242.807 497.17V511.618C242.807 511.889 242.954 512.134 243.212 512.233C243.446 512.343 243.729 512.307 243.938 512.134L250.037 506.749L256.135 512.134C256.271 512.233 256.418 512.282 256.59 512.282C256.689 512.282 256.787 512.257 256.861 512.221C257.107 512.122 257.267 511.876 257.267 511.606V497.158C257.267 496.777 256.959 496.469 256.603 496.469L256.59 496.482ZM255.902 510.118L250.479 505.347C250.344 505.236 250.172 505.175 250.024 505.175C249.877 505.175 249.705 505.236 249.569 505.347L244.147 510.118V497.871H255.902V510.118Z" fill="white"/>
<path d="M255.914 497.859V510.106L250.492 505.335C250.356 505.224 250.184 505.163 250.037 505.163C249.889 505.163 249.717 505.224 249.582 505.335L244.159 510.106V497.859H255.914Z" fill="white"/>
<!-- start -->
<path d="M50.5574 199.519C50.3484 199.63 50.1024 199.667 49.8073 199.667C49.5368 199.667 49.2909 199.63 49.0819 199.531C48.8728 199.433 48.6761 199.298 48.5285 199.126C48.381 198.953 48.258 198.769 48.172 198.535C48.0982 198.302 48.0613 198.08 48.0613 197.834C48.0613 197.564 48.0982 197.343 48.172 197.109C48.2334 196.863 48.3441 196.666 48.4794 196.482C48.6269 196.31 48.7991 196.162 49.0081 196.064C49.2171 195.965 49.463 195.916 49.7582 195.916C50.0533 195.916 50.2869 195.978 50.5082 196.064C50.7172 196.162 50.914 196.31 51.0984 196.519L51.8854 195.793C51.6149 195.511 51.3075 195.302 50.9509 195.166C50.5943 195.019 50.2008 194.933 49.8073 194.933C49.4139 194.933 48.9835 195.006 48.6392 195.166C48.2949 195.302 47.9875 195.486 47.7416 195.744C47.4957 196.015 47.2989 196.297 47.1637 196.654C47.0284 196.998 46.9547 197.38 46.9547 197.798C46.9547 198.216 47.0284 198.621 47.1637 198.966C47.2989 199.31 47.4834 199.617 47.7539 199.863C47.9998 200.109 48.3072 200.306 48.6515 200.441C48.9958 200.577 49.377 200.65 49.795 200.65C50.2131 200.65 50.582 200.577 50.9263 200.441C51.2829 200.331 51.5903 200.097 51.8608 199.814L51.1353 199.064C50.9386 199.273 50.7541 199.421 50.5574 199.519Z" fill="white"/>
<path d="M55.4143 194.945C55.2422 194.945 55.0701 194.969 54.8979 195.019C54.7258 195.055 54.5782 195.129 54.443 195.215C54.3077 195.314 54.1724 195.412 54.0618 195.523C53.9511 195.633 53.8527 195.769 53.779 195.929H53.7544V195.092H52.7215V200.515H53.7544V197.81C53.7544 197.195 53.8896 196.765 54.1601 196.494C54.4306 196.211 54.8118 196.051 55.3283 196.051C55.4021 196.051 55.5004 196.076 55.5742 196.088C55.648 196.088 55.7463 196.113 55.8201 196.15L55.8816 195.019C55.734 194.982 55.5742 194.957 55.4266 194.957H55.4143V194.945Z" fill="white"/>
<path d="M61.8821 197.798C61.8821 197.441 61.8452 197.097 61.7468 196.765C61.6485 196.42 61.5009 196.113 61.2673 195.855C61.0583 195.572 60.7877 195.363 60.468 195.191C60.1238 195.019 59.718 194.945 59.2507 194.945C58.8327 194.945 58.4638 195.019 58.1195 195.154C57.7752 195.301 57.4678 195.498 57.2219 195.769C56.976 196.015 56.7792 196.322 56.644 196.666C56.4964 197.011 56.4349 197.392 56.4349 197.798C56.4349 198.203 56.4964 198.584 56.6317 198.929C56.7669 199.285 56.9391 199.58 57.185 199.839C57.4309 200.085 57.7137 200.294 58.058 200.429C58.4023 200.576 58.8081 200.662 59.2262 200.662C60.259 200.662 61.0583 200.281 61.6239 199.531L60.8369 198.941C60.6402 199.187 60.4189 199.384 60.1852 199.531C59.9516 199.679 59.6688 199.765 59.3491 199.765C59.1155 199.765 58.8941 199.728 58.6605 199.654C58.4515 199.58 58.2425 199.457 58.0826 199.335C57.9105 199.199 57.7752 199.027 57.6645 198.843C57.5662 198.646 57.517 198.425 57.517 198.191H61.8698V197.798H61.8821ZM57.5416 197.343C57.5416 197.146 57.5785 196.986 57.6768 196.789C57.7506 196.592 57.8736 196.433 57.9965 196.273C58.1441 196.125 58.3162 196.002 58.5253 195.916C58.7343 195.83 58.9679 195.769 59.2262 195.769C59.4844 195.769 59.7057 195.806 59.8901 195.879C60.0869 195.978 60.2467 196.076 60.382 196.224C60.4926 196.359 60.6156 196.531 60.6648 196.715C60.7263 196.912 60.7632 197.121 60.7754 197.343H57.5416Z" fill="white"/>
<path d="M67.5751 200.035V196.752C67.5751 196.507 67.5383 196.273 67.4399 196.064C67.3415 195.855 67.2063 195.646 67.0341 195.486C66.8374 195.314 66.6161 195.179 66.3332 195.08C66.0504 194.97 65.7061 194.933 65.3004 194.933C64.8946 194.933 64.538 194.994 64.1568 195.129C63.7757 195.265 63.4314 195.474 63.1486 195.744L63.7757 196.371C63.8494 196.31 63.9478 196.236 64.0585 196.162C64.1568 196.088 64.2675 196.027 64.3782 195.966C64.4888 195.904 64.6487 195.855 64.7839 195.818C64.9315 195.781 65.1036 195.756 65.3127 195.756C65.5217 195.756 65.7184 195.793 65.8906 195.855C66.0381 195.929 66.1734 196.002 66.2964 196.125C66.3947 196.236 66.4685 196.359 66.53 196.482C66.5915 196.629 66.6038 196.765 66.6038 196.9V197.134H65.8537C65.4356 197.134 65.0545 197.171 64.6856 197.232C64.329 197.306 63.997 197.404 63.7265 197.552C63.456 197.699 63.2469 197.896 63.0994 198.13C62.9272 198.376 62.8535 198.658 62.8535 199.003C62.8535 199.273 62.9149 199.519 63.001 199.703C63.0994 199.913 63.2346 200.085 63.4068 200.22C63.5789 200.355 63.788 200.466 64.0216 200.527C64.2552 200.601 64.4765 200.638 64.747 200.638C65.1528 200.638 65.5094 200.564 65.8291 200.404C66.1365 200.269 66.407 200.023 66.6284 199.654H66.6529C66.6529 199.937 66.6775 200.208 66.6898 200.478H67.5997C67.5751 200.343 67.5751 200.195 67.5629 200.023H67.5751V200.035ZM66.6038 198.253C66.6038 198.425 66.5792 198.609 66.53 198.806C66.4685 199.003 66.3947 199.15 66.2595 199.298C66.1488 199.445 65.989 199.581 65.7799 199.679C65.5832 199.777 65.3373 199.814 65.0544 199.814C64.7102 199.814 64.4274 199.753 64.2183 199.617C64.0093 199.47 63.8986 199.261 63.8986 198.929C63.8986 198.72 63.9724 198.548 64.1077 198.412C64.2429 198.265 64.4151 198.166 64.6241 198.093C64.8331 198.019 65.0667 197.957 65.3127 197.945C65.5832 197.908 65.8291 197.908 66.075 197.908H66.6038V198.253Z" fill="white"/>
<path d="M71.6575 199.63C71.5222 199.667 71.4115 199.667 71.2763 199.667C71.0795 199.667 70.932 199.63 70.8336 199.569C70.723 199.495 70.6369 199.396 70.6 199.286C70.5385 199.15 70.5016 199.015 70.5016 198.88C70.5016 198.732 70.477 198.573 70.477 198.425V195.966H71.9649V195.068H70.477V193.543H69.4442V195.068H68.2637V195.966H69.4442V198.794C69.4442 199.027 69.4688 199.237 69.4811 199.458C69.5056 199.667 69.5548 199.864 69.6778 200.036C69.7762 200.233 69.9237 200.355 70.1573 200.478C70.3664 200.589 70.6738 200.651 71.0672 200.651C71.1779 200.651 71.3378 200.626 71.5222 200.614C71.7189 200.577 71.8665 200.54 72.0017 200.466V199.532C71.8911 199.593 71.7681 199.63 71.6452 199.642L71.6575 199.63Z" fill="white"/>
<path d="M78.5801 196.679C78.4449 196.334 78.2358 196.027 77.9653 195.781C77.7194 195.511 77.412 195.302 77.0554 195.166C76.7111 195.019 76.3299 194.933 75.9242 194.933C75.5184 194.933 75.1372 195.006 74.7806 195.166C74.4363 195.302 74.1289 195.511 73.8707 195.781C73.6248 196.027 73.4158 196.334 73.2559 196.679C73.1207 197.023 73.0469 197.38 73.0469 197.785C73.0469 198.191 73.1207 198.572 73.2559 198.917C73.4035 199.261 73.6125 199.568 73.8707 199.814C74.1412 200.085 74.4486 200.269 74.7806 200.429C75.1372 200.577 75.5307 200.663 75.9242 200.663C76.3176 200.663 76.7111 200.589 77.0554 200.429C77.412 200.281 77.7194 200.085 77.9653 199.814C78.2358 199.568 78.4449 199.261 78.5801 198.917C78.7277 198.572 78.8137 198.191 78.8137 197.785C78.8137 197.38 78.74 197.023 78.5801 196.679ZM77.5841 198.548C77.4858 198.781 77.3751 198.99 77.2276 199.138C77.08 199.31 76.8833 199.445 76.6742 199.544C76.4406 199.642 76.1947 199.679 75.9242 199.679C75.6537 199.679 75.3954 199.642 75.1741 199.544C74.9405 199.445 74.756 199.31 74.5962 199.138C74.4486 198.99 74.3257 198.781 74.2519 198.548C74.1535 198.314 74.1166 198.068 74.1166 197.785C74.1166 197.503 74.1535 197.269 74.2519 197.023C74.3257 196.789 74.4486 196.605 74.5962 196.433C74.7437 196.285 74.9405 196.15 75.1741 196.052C75.3831 195.953 75.6291 195.904 75.9242 195.904C76.1947 195.904 76.4406 195.965 76.6742 196.052C76.8833 196.15 77.08 196.285 77.2276 196.433C77.3751 196.605 77.4981 196.789 77.5841 197.023C77.6579 197.269 77.6948 197.515 77.6948 197.785C77.6948 198.056 77.6579 198.314 77.5841 198.548Z" fill="white"/>
<path d="M82.7731 194.945C82.601 194.945 82.4534 194.969 82.2813 195.019C82.1091 195.055 81.9616 195.129 81.8263 195.215C81.6788 195.314 81.5435 195.412 81.4206 195.523C81.2976 195.633 81.2238 195.769 81.1501 195.929H81.1255V195.092H80.0926V200.515H81.1255V197.81C81.1255 197.195 81.2607 196.765 81.5312 196.494C81.8017 196.211 82.1829 196.051 82.6748 196.051C82.7731 196.051 82.8469 196.076 82.9453 196.088C83.019 196.088 83.0928 196.113 83.1912 196.15L83.2281 195.019C83.0928 194.982 82.9453 194.957 82.7731 194.957V194.945Z" fill="white"/>
<!-- end -->
<path d="M246.692 199.384C247.439 199.384 248.045 198.778 248.045 198.031C248.045 197.284 247.439 196.679 246.692 196.679C245.945 196.679 245.339 197.284 245.339 198.031C245.339 198.778 245.945 199.384 246.692 199.384Z" fill="white"/>
<path d="M251.303 199.384C252.05 199.384 252.656 198.778 252.656 198.031C252.656 197.284 252.05 196.679 251.303 196.679C250.556 196.679 249.951 197.284 249.951 198.031C249.951 198.778 250.556 199.384 251.303 199.384Z" fill="white"/>
<path d="M255.914 199.384C256.661 199.384 257.267 198.778 257.267 198.031C257.267 197.284 256.661 196.679 255.914 196.679C255.167 196.679 254.562 197.284 254.562 198.031C254.562 198.778 255.167 199.384 255.914 199.384Z" fill="white"/>
<path d="M125.613 136.169C122.957 143.338 122.674 151.749 120.854 158.462C120.153 161.032 119.231 163.368 117.854 165.274C112.898 172.172 93.9134 176.697 74.9528 174.767C55.9923 172.836 39.1343 155.351 32.8756 146.301C28.7442 140.326 24.9447 124.009 22.8421 113.606C21.76 108.245 21.1206 104.458 21.1206 104.458C21.1206 104.458 28.4982 91.6085 40.0197 84.4276C50.3361 77.9967 69.5917 81.87 75.1373 72.3405C77.867 75.0211 82.6502 78.3779 90.4213 80.0133C90.286 74.8981 90.0524 69.4018 90.0524 69.4018C90.0524 69.4018 90.8639 68.9099 92.6715 68.332C93.0157 68.3812 93.3477 68.3935 93.692 68.4058C93.4953 69.8444 93.3723 70.7543 93.3723 70.7543L102.103 71.1232L113.255 71.5905L112.296 71.5536C112.53 71.1847 114.313 70.8896 114.558 70.533C114.558 70.5207 114.583 70.5084 114.595 70.4838C115.001 69.9059 115.431 69.3403 115.886 68.787C118.124 69.7707 119.379 70.7052 119.379 70.7052C118.936 73.7054 118.911 76.5458 119.182 79.3124C119.944 87.1696 123.043 94.3505 125.613 102.318C129.056 113.102 129.277 126.259 125.613 136.182V136.169Z" fill="#302D93"/>
<path opacity="0.28" d="M115.899 68.7744C115.85 68.8851 115.468 69.6474 114.571 70.5205C114.214 70.8647 113.796 71.2336 113.267 71.5779C111.325 72.869 108.128 73.9879 103.062 73.2748C102.889 73.2502 102.717 73.2256 102.557 73.2133C96.0037 72.4509 95.6348 75.3528 96.2742 80.7877C96.5693 83.2715 97.0611 86.284 97.2825 89.7146C97.9956 100.818 99.7663 116.2 93.3846 115.856C87.0029 115.499 89.8433 128.976 85.9455 130.747C82.0353 132.517 73.1821 129.677 72.1124 124.771C71.0426 119.865 57.9227 111.589 57.9227 111.589C49.0573 106.622 49.6106 99.4777 49.6106 99.4777C49.6106 99.4777 55.4635 102.945 60.6648 104.458C65.866 105.97 69.1244 112.708 73.4527 114.442C77.7932 116.176 82.0968 124.918 83.3633 122.803C84.6298 120.688 84.7773 116.336 85.0602 113.938C85.343 111.54 87.5932 110.556 88.0112 108.724C88.4293 106.892 87.876 102.244 86.6095 98.7276C85.343 95.211 89.9909 89.5794 90.409 88.5957C90.5934 88.153 90.5442 84.206 90.409 80.013C90.2737 74.8979 90.0401 69.4015 90.0401 69.4015C90.0401 69.4015 90.8516 68.9097 92.6591 68.3318C92.9911 68.2334 93.3354 68.1227 93.7289 68.0121C95.02 67.6432 96.6799 67.2866 98.7457 66.9915C99.3236 66.9177 99.9261 66.8316 100.578 66.7702C101.463 66.6841 102.41 66.598 103.43 66.5365C108.755 66.2168 113.095 67.5448 115.886 68.7867L115.899 68.7744Z" fill="#090930"/>
</svg>
