<svg width="70" height="54" viewBox="0 0 70 54" fill="none" xmlns="http://www.w3.org/2000/svg">
<path d="M69.79 3.70925V39.3646C69.79 41.1793 68.3114 42.6579 66.4967 42.6579H45.7033L36.9743 52.4371L36.9659 52.4455C35.857 53.6889 33.9246 53.6889 32.8157 52.4455L24.0783 42.6663H3.30172C1.47863 42.6663 0 41.1877 0 39.373V3.71764C0 2.14659 1.10057 0.835975 2.57081 0.508322C2.78084 0.457914 2.99928 0.432713 3.22611 0.432713C3.25132 0.424312 3.27652 0.424316 3.29333 0.424316H66.4883C68.3114 0.424316 69.79 1.89456 69.79 3.70925Z" fill="#FF6B58"/>
<path d="M34.8992 20.2179C38.0265 20.2179 40.5617 17.6827 40.5617 14.5554C40.5617 11.4281 38.0265 8.89288 34.8992 8.89288C31.7719 8.89288 29.2367 11.4281 29.2367 14.5554C29.2367 17.6827 31.7719 20.2179 34.8992 20.2179Z" fill="white"/>
<path d="M44.1323 32.5931H25.6661C25.0528 32.5931 24.5655 32.0638 24.6327 31.4505C25.1956 26.2753 29.5727 22.251 34.8992 22.251C40.2256 22.251 44.6027 26.2753 45.1572 31.4505C45.2413 32.0554 44.7456 32.5931 44.1323 32.5931Z" fill="white"/>
<path opacity="0.7" d="M36.9828 52.437C35.8654 53.6804 33.9331 53.6804 32.8242 52.4454L24.0868 42.6663H3.31021C1.48712 42.6663 0.00848389 41.1876 0.00848389 39.3729V3.71761C0.00848389 2.14656 1.10906 0.835944 2.5793 0.508292C2.78933 0.457884 3.00777 0.432683 3.23461 0.432683C3.25981 0.424281 3.28501 0.424286 3.30181 0.424286H4.53681C7.29245 3.6 9.39279 8.43917 8.54426 15.5887C6.55314 32.3746 12.5349 39.499 21.3647 40.0618C28.8503 40.5407 33.8827 44.3801 36.9828 52.437Z" fill="#CA5043"/>
</svg>
