<svg width="266" height="273" viewBox="0 0 266 273" fill="none" xmlns="http://www.w3.org/2000/svg">
<circle cx="70.5714" cy="120.449" r="70.5714" fill="#FFEAE7"/>
<path d="M223.228 0H68.5907C66.6995 0 65.1782 1.52132 65.1782 3.41252V217.954C65.1782 219.845 66.6995 221.367 68.5907 221.367H223.228C225.107 221.367 226.641 219.845 226.641 217.954V3.41252C226.641 1.52132 225.107 0 223.228 0ZM74.8073 135.021V142.867V148.689V185.601H216.994V104.44V93.4745V89.9606V71.3349V67.7076V64.0922V62.4456V60.9004V60.7871V59.3672V54.0515V42.227V29.5374H74.8073V120.405V135.021Z" fill="#090930"/>
<path d="M81.6446 23.1598C85.4173 23.1598 88.4756 20.1015 88.4756 16.3288C88.4756 12.5561 85.4173 9.4978 81.6446 9.4978C77.8719 9.4978 74.8136 12.5561 74.8136 16.3288C74.8136 20.1015 77.8719 23.1598 81.6446 23.1598Z" fill="#D9E9F7"/>
<path d="M86.0055 196.978C85.6356 198.523 84.329 199.543 83.2671 200.378L80.7137 202.383C80.6361 202.437 80.5466 202.46 80.4631 202.46C80.3736 202.46 80.2841 202.437 80.2125 202.383L77.6591 200.378C76.6031 199.543 75.2846 198.523 74.9088 196.978C74.6403 195.85 74.9088 194.645 75.6307 193.732C76.2929 192.885 77.2653 192.402 78.2795 192.402C79.0909 192.402 79.8426 192.682 80.4631 193.213C81.0716 192.682 81.8352 192.402 82.6347 192.402C83.6608 192.402 84.6273 192.885 85.2895 193.732C86.0055 194.645 86.2739 195.85 86.0055 196.978Z" fill="#FF6B58"/>
<path d="M104.279 199.752C104.727 198.887 104.923 197.914 104.84 196.936C104.649 194.401 102.591 192.354 100.067 192.163C98.5459 192.038 97.0484 192.593 95.9686 193.673C94.8888 194.753 94.3339 196.25 94.4592 197.783C94.674 200.337 96.7561 202.389 99.3095 202.544C99.4229 202.556 99.5362 202.556 99.6496 202.556C100.527 202.556 101.386 202.341 102.137 201.924C102.191 201.888 102.275 201.888 102.34 201.912L104.142 202.461C104.309 202.514 104.494 202.461 104.625 202.335C104.756 202.21 104.804 202.031 104.762 201.864L104.267 199.913C104.249 199.865 104.261 199.8 104.279 199.752ZM103.492 200.122L103.85 201.542L102.579 201.148C102.31 201.059 102.006 201.094 101.756 201.226C101.034 201.619 100.204 201.798 99.3692 201.745C97.1976 201.607 95.4376 199.877 95.2586 197.712C95.1572 196.417 95.6166 195.158 96.5294 194.233C97.3646 193.398 98.4862 192.939 99.6615 192.939C99.7749 192.939 99.8882 192.951 100.014 192.963C102.143 193.13 103.885 194.866 104.046 196.996C104.058 197.121 104.058 197.234 104.058 197.354C104.058 198.064 103.891 198.75 103.575 199.382C103.45 199.603 103.426 199.865 103.492 200.122Z" fill="white"/>
<path d="M122.308 193.279C122.308 193.243 122.284 193.213 122.26 193.177C122.272 193.165 122.272 193.165 122.26 193.165C122.249 193.13 122.225 193.112 122.183 193.088C122.105 193.01 122.028 192.986 121.932 192.986L112.303 192.951C112.148 192.951 111.999 193.052 111.933 193.201C111.88 193.35 111.91 193.529 112.011 193.643L115.31 197.031L115.388 197.109C115.453 197.187 115.567 197.234 115.668 197.234C115.734 197.234 115.805 197.21 115.859 197.181L116.127 197.031L117.547 196.256L120.757 194.502V194.49L122.117 193.744C122.171 193.708 122.219 193.667 122.266 193.607C122.332 193.506 122.356 193.38 122.308 193.279ZM115.758 196.327L113.258 193.762L120.375 193.786L115.758 196.327Z" fill="white"/>
<path d="M122.308 193.279C122.308 193.243 122.284 193.213 122.261 193.177C122.272 193.165 122.272 193.165 122.261 193.165C122.249 193.142 122.237 193.118 122.225 193.112C122.213 193.106 122.201 193.088 122.177 193.088C122.099 193.01 122.022 192.986 121.926 192.986C121.861 192.986 121.789 192.998 121.736 193.034L120.363 193.786L115.746 196.333L115.477 196.482C115.322 196.572 115.239 196.751 115.286 196.93L115.31 197.031L116.414 201.625C116.45 201.78 116.569 201.906 116.73 201.929H116.796C116.933 201.929 117.064 201.864 117.136 201.75L122.272 193.607C122.332 193.505 122.356 193.38 122.308 193.279ZM120.763 194.496L116.969 200.51L116.134 197.031L117.553 196.256L120.763 194.49V194.496V194.496Z" fill="white"/>
<path d="M216.606 192.605H208.862C208.647 192.605 208.468 192.784 208.468 193.01V201.536C208.468 201.691 208.558 201.84 208.707 201.894C208.844 201.959 209.011 201.941 209.137 201.84L212.74 198.666L216.343 201.84C216.421 201.894 216.51 201.93 216.612 201.93C216.666 201.93 216.725 201.918 216.767 201.894C216.916 201.84 217.006 201.691 217.006 201.536V193.01C217 192.784 216.821 192.605 216.606 192.605ZM216.2 200.641L213.003 197.825C212.925 197.759 212.824 197.724 212.734 197.724C212.645 197.724 212.543 197.759 212.466 197.825L209.268 200.641V193.41H216.206V200.641H216.2Z" fill="white"/>
<path d="M216.2 193.41V200.641L213.003 197.825C212.925 197.759 212.824 197.724 212.734 197.724C212.645 197.724 212.543 197.759 212.466 197.825L209.268 200.641V193.41H216.2Z" fill="white"/>
<path d="M210.765 17.2535C211.207 17.2535 211.565 16.8956 211.565 16.4541C211.565 16.0126 211.207 15.6547 210.765 15.6547C210.324 15.6547 209.966 16.0126 209.966 16.4541C209.966 16.8956 210.324 17.2535 210.765 17.2535Z" fill="white"/>
<path d="M213.486 17.2535C213.927 17.2535 214.285 16.8956 214.285 16.4541C214.285 16.0126 213.927 15.6547 213.486 15.6547C213.044 15.6547 212.687 16.0126 212.687 16.4541C212.687 16.8956 213.044 17.2535 213.486 17.2535Z" fill="white"/>
<path d="M216.206 17.2535C216.648 17.2535 217.006 16.8956 217.006 16.4541C217.006 16.0126 216.648 15.6547 216.206 15.6547C215.765 15.6547 215.407 16.0126 215.407 16.4541C215.407 16.8956 215.765 17.2535 216.206 17.2535Z" fill="white"/>
<path d="M93.272 14.0618H93.8805V14.557H93.8924C93.97 14.384 94.1012 14.2467 94.2921 14.1394C94.483 14.032 94.6978 13.9783 94.9484 13.9783C95.1035 13.9783 95.2467 14.0021 95.3899 14.0499C95.5331 14.0976 95.6524 14.1692 95.7598 14.2706C95.8671 14.372 95.9507 14.4973 96.0103 14.6524C96.076 14.8075 96.1058 14.9925 96.1058 15.2013V17.2595H95.4973V15.3683C95.4973 15.2192 95.4734 15.0939 95.4376 14.9865C95.3958 14.8791 95.3421 14.7956 95.2765 14.73C95.2109 14.6644 95.1333 14.6166 95.0438 14.5868C94.9544 14.557 94.8649 14.545 94.7694 14.545C94.6441 14.545 94.5248 14.5629 94.4174 14.6047C94.31 14.6465 94.2146 14.7121 94.1311 14.7956C94.0475 14.8851 93.9879 14.9925 93.9401 15.1297C93.8924 15.2669 93.8745 15.422 93.8745 15.607V17.2536H93.266V14.0618H93.272Z" fill="white"/>
<path d="M97.4899 15.8873C97.4899 16.0245 97.5197 16.1558 97.5794 16.2691C97.639 16.3825 97.7226 16.4839 97.818 16.5614C97.9195 16.645 98.0328 16.7046 98.1641 16.7523C98.2953 16.8001 98.4266 16.818 98.5697 16.818C98.7607 16.818 98.9217 16.7762 99.0649 16.6867C99.2081 16.5972 99.3334 16.4839 99.4527 16.3407L99.9121 16.6927C99.578 17.1282 99.1007 17.3489 98.4922 17.3489C98.2416 17.3489 98.0089 17.3072 97.8061 17.2237C97.6033 17.1401 97.4243 17.0208 97.2871 16.8717C97.1439 16.7225 97.0365 16.5435 96.9589 16.3407C96.8814 16.1379 96.8456 15.9111 96.8456 15.6725C96.8456 15.4339 96.8873 15.2131 96.9709 15.0043C97.0544 14.8015 97.1677 14.6225 97.3169 14.4734C97.466 14.3242 97.6391 14.2049 97.8419 14.1214C98.0447 14.0378 98.2655 13.9901 98.5041 13.9901C98.7905 13.9901 99.0291 14.0378 99.226 14.1393C99.4229 14.2407 99.584 14.366 99.7092 14.527C99.8345 14.6881 99.924 14.8671 99.9837 15.0699C100.037 15.2728 100.067 15.4756 100.067 15.6785V15.8932H97.4899V15.8873ZM99.405 15.3981C99.399 15.2609 99.3811 15.1415 99.3393 15.0282C99.3035 14.9148 99.2439 14.8194 99.1663 14.7359C99.0888 14.6523 98.9933 14.5867 98.88 14.539C98.7666 14.4913 98.6294 14.4674 98.4803 14.4674C98.3311 14.4674 98.1939 14.4972 98.0686 14.5509C97.9433 14.6046 97.8419 14.6822 97.7524 14.7717C97.6689 14.8611 97.5973 14.9626 97.5555 15.0699C97.5078 15.1773 97.4839 15.2907 97.4839 15.3981H99.405Z" fill="white"/>
<path d="M102.489 14.8671C102.418 14.7776 102.328 14.7001 102.221 14.6404C102.114 14.5807 101.988 14.5509 101.833 14.5509C101.69 14.5509 101.565 14.5807 101.457 14.6404C101.35 14.7001 101.296 14.7896 101.296 14.9089C101.296 15.0043 101.326 15.0819 101.386 15.1415C101.445 15.2012 101.517 15.2489 101.6 15.2847C101.684 15.3205 101.773 15.3503 101.869 15.3682C101.964 15.3861 102.042 15.404 102.114 15.416C102.245 15.4458 102.364 15.4876 102.483 15.5293C102.597 15.5771 102.698 15.6307 102.782 15.7023C102.865 15.7739 102.931 15.8634 102.979 15.9648C103.026 16.0663 103.05 16.1975 103.05 16.3407C103.05 16.5197 103.008 16.6748 102.937 16.806C102.859 16.9373 102.764 17.0387 102.639 17.1222C102.519 17.2058 102.382 17.2595 102.227 17.2952C102.072 17.331 101.917 17.3489 101.756 17.3489C101.487 17.3489 101.254 17.3072 101.058 17.2296C100.855 17.1461 100.676 16.997 100.521 16.7822L100.98 16.4063C101.081 16.5077 101.189 16.5913 101.308 16.6688C101.427 16.7464 101.577 16.7822 101.756 16.7822C101.833 16.7822 101.911 16.7762 101.988 16.7583C102.066 16.7404 102.137 16.7165 102.197 16.6867C102.257 16.6509 102.304 16.6092 102.346 16.5614C102.382 16.5077 102.406 16.4481 102.406 16.3825C102.406 16.293 102.376 16.2154 102.322 16.1617C102.269 16.1021 102.197 16.0543 102.12 16.0245C102.042 15.9887 101.958 15.9648 101.869 15.941C101.779 15.9231 101.702 15.9052 101.636 15.8932C101.505 15.8634 101.38 15.8276 101.266 15.7859C101.147 15.7441 101.046 15.6904 100.956 15.6248C100.867 15.5592 100.795 15.4697 100.741 15.3682C100.688 15.2668 100.658 15.1356 100.658 14.9805C100.658 14.8134 100.694 14.6702 100.765 14.5449C100.837 14.4197 100.926 14.3182 101.04 14.2347C101.153 14.1512 101.284 14.0915 101.433 14.0498C101.583 14.008 101.726 13.9901 101.875 13.9901C102.09 13.9901 102.298 14.0319 102.495 14.1094C102.692 14.193 102.853 14.3242 102.967 14.5151L102.489 14.8671Z" fill="white"/>
<path d="M103.784 12.1586H104.392V14.5569H104.404C104.482 14.3839 104.613 14.2467 104.804 14.1393C104.995 14.0319 105.21 13.9782 105.46 13.9782C105.615 13.9782 105.759 14.002 105.902 14.0498C106.045 14.0975 106.164 14.1691 106.272 14.2705C106.379 14.3719 106.463 14.4972 106.522 14.6523C106.588 14.8075 106.618 14.9924 106.618 15.2012V17.2595H106.009V15.3682C106.009 15.2191 105.985 15.0938 105.95 14.9864C105.908 14.879 105.854 14.7955 105.788 14.7299C105.723 14.6643 105.645 14.6165 105.556 14.5867C105.466 14.5569 105.377 14.5449 105.281 14.5449C105.156 14.5449 105.037 14.5628 104.929 14.6046C104.822 14.6464 104.727 14.712 104.643 14.7955C104.56 14.885 104.5 14.9924 104.452 15.1296C104.404 15.2668 104.386 15.4219 104.386 15.6069V17.2535H103.778V12.1586H103.784Z" fill="white"/>
<path d="M107.542 14.0618H108.151V14.557H108.163C108.24 14.384 108.372 14.2467 108.563 14.1394C108.754 14.032 108.968 13.9783 109.219 13.9783C109.374 13.9783 109.517 14.0021 109.66 14.0499C109.804 14.0976 109.923 14.1692 110.03 14.2706C110.138 14.372 110.221 14.4973 110.281 14.6524C110.346 14.8075 110.376 14.9925 110.376 15.2013V17.2595H109.768V15.3683C109.768 15.2192 109.744 15.0939 109.708 14.9865C109.666 14.8791 109.613 14.7956 109.547 14.73C109.481 14.6644 109.404 14.6166 109.314 14.5868C109.225 14.557 109.135 14.545 109.04 14.545C108.915 14.545 108.795 14.5629 108.688 14.6047C108.581 14.6465 108.485 14.7121 108.402 14.7956C108.318 14.8851 108.258 14.9925 108.211 15.1297C108.163 15.2669 108.145 15.422 108.145 15.607V17.2536H107.536V14.0618H107.542Z" fill="white"/>
<path d="M111.2 12.9163C111.2 12.797 111.241 12.6896 111.331 12.6001C111.42 12.5106 111.522 12.4689 111.647 12.4689C111.766 12.4689 111.874 12.5106 111.963 12.6001C112.053 12.6896 112.095 12.791 112.095 12.9163C112.095 13.0356 112.053 13.143 111.963 13.2325C111.874 13.322 111.772 13.3638 111.647 13.3638C111.528 13.3638 111.42 13.322 111.331 13.2325C111.241 13.143 111.2 13.0356 111.2 12.9163ZM111.343 14.0618H111.951V17.2655H111.343V14.0618Z" fill="white"/>
<path d="M115.209 14.9148C115.095 14.7955 114.976 14.706 114.857 14.6464C114.731 14.5867 114.582 14.5569 114.415 14.5569C114.248 14.5569 114.105 14.5867 113.98 14.6464C113.854 14.706 113.753 14.7895 113.67 14.8969C113.586 15.0043 113.526 15.1236 113.479 15.2609C113.437 15.3981 113.413 15.5413 113.413 15.6904C113.413 15.8396 113.437 15.9768 113.491 16.114C113.538 16.2452 113.61 16.3646 113.699 16.46C113.789 16.5614 113.896 16.639 114.027 16.6927C114.153 16.7464 114.296 16.7762 114.451 16.7762C114.624 16.7762 114.767 16.7464 114.893 16.6867C115.012 16.6271 115.125 16.5376 115.233 16.4183L115.662 16.8478C115.501 17.0208 115.322 17.1521 115.113 17.2237C114.904 17.3012 114.684 17.337 114.445 17.337C114.201 17.337 113.974 17.2952 113.765 17.2177C113.562 17.1342 113.383 17.0208 113.234 16.8776C113.085 16.7285 112.972 16.5555 112.888 16.3526C112.81 16.1498 112.769 15.9231 112.769 15.6725C112.769 15.4279 112.81 15.1952 112.888 14.9924C112.972 14.7836 113.085 14.6046 113.228 14.4614C113.371 14.3123 113.55 14.1989 113.753 14.1154C113.956 14.0319 114.189 13.9901 114.439 13.9901C114.672 13.9901 114.899 14.0319 115.113 14.1154C115.328 14.1989 115.513 14.3242 115.668 14.4972L115.209 14.9148Z" fill="white"/>
<path d="M116.02 15.6607C116.02 15.428 116.062 15.2073 116.151 15.0044C116.241 14.8016 116.36 14.6226 116.509 14.4734C116.664 14.3183 116.843 14.199 117.052 14.1095C117.261 14.02 117.482 13.9783 117.72 13.9783C117.959 13.9783 118.18 14.02 118.389 14.1095C118.597 14.199 118.776 14.3183 118.932 14.4734C119.087 14.6286 119.206 14.8016 119.289 15.0044C119.379 15.2073 119.421 15.428 119.421 15.6607C119.421 15.8933 119.379 16.1141 119.289 16.3169C119.2 16.5198 119.081 16.6987 118.932 16.8479C118.776 16.997 118.597 17.1164 118.389 17.2059C118.18 17.2953 117.959 17.3371 117.72 17.3371C117.482 17.3371 117.261 17.2953 117.052 17.2059C116.843 17.1164 116.664 16.997 116.509 16.8479C116.354 16.6987 116.235 16.5198 116.151 16.3169C116.068 16.1141 116.02 15.8993 116.02 15.6607ZM116.664 15.6607C116.664 15.8217 116.688 15.9709 116.742 16.1081C116.79 16.2453 116.861 16.3647 116.951 16.4601C117.04 16.5556 117.154 16.6331 117.279 16.6928C117.41 16.7465 117.553 16.7763 117.72 16.7763C117.882 16.7763 118.031 16.7465 118.162 16.6928C118.293 16.6391 118.401 16.5615 118.49 16.4601C118.58 16.3647 118.651 16.2453 118.699 16.1081C118.747 15.9709 118.77 15.8217 118.77 15.6607C118.77 15.4996 118.747 15.3504 118.699 15.2132C118.651 15.076 118.58 14.9567 118.49 14.8612C118.401 14.7658 118.287 14.6882 118.162 14.6286C118.031 14.5749 117.887 14.545 117.72 14.545C117.559 14.545 117.41 14.5749 117.279 14.6286C117.148 14.6823 117.04 14.7598 116.951 14.8612C116.861 14.9567 116.79 15.076 116.742 15.2132C116.688 15.3504 116.664 15.4996 116.664 15.6607Z" fill="white"/>
<path d="M120.232 12.1586H120.84V17.2654H120.232V12.1586Z" fill="white"/>
<path d="M122.266 15.8873C122.266 16.0245 122.296 16.1558 122.356 16.2691C122.416 16.3825 122.499 16.4839 122.595 16.5614C122.696 16.645 122.809 16.7046 122.941 16.7523C123.072 16.8001 123.203 16.818 123.346 16.818C123.537 16.818 123.698 16.7762 123.841 16.6867C123.985 16.5972 124.11 16.4839 124.229 16.3407L124.689 16.6927C124.354 17.1282 123.877 17.3489 123.269 17.3489C123.018 17.3489 122.785 17.3072 122.583 17.2237C122.38 17.1401 122.201 17.0208 122.064 16.8717C121.92 16.7225 121.813 16.5435 121.735 16.3407C121.658 16.1379 121.622 15.9111 121.622 15.6725C121.622 15.4339 121.664 15.2131 121.747 15.0043C121.831 14.8015 121.944 14.6225 122.093 14.4734C122.243 14.3242 122.416 14.2049 122.618 14.1214C122.821 14.0378 123.042 13.9901 123.281 13.9901C123.567 13.9901 123.806 14.0378 124.002 14.1393C124.199 14.2407 124.36 14.366 124.486 14.527C124.611 14.6881 124.7 14.8671 124.76 15.0699C124.814 15.2728 124.844 15.4756 124.844 15.6785V15.8932H122.266V15.8873ZM124.187 15.3981C124.181 15.2609 124.164 15.1415 124.122 15.0282C124.086 14.9148 124.026 14.8194 123.949 14.7359C123.871 14.6523 123.776 14.5867 123.662 14.539C123.549 14.4913 123.412 14.4674 123.263 14.4674C123.114 14.4674 122.976 14.4972 122.851 14.5509C122.726 14.6046 122.624 14.6822 122.535 14.7717C122.451 14.8611 122.38 14.9626 122.338 15.0699C122.29 15.1773 122.266 15.2907 122.266 15.3981H124.187Z" fill="white"/>
<path d="M261.333 206.13H172.284V266.2H261.333V206.13Z" fill="#007CF0"/>
<path d="M263.292 267.547V270.89C263.292 271.631 262.687 272.236 261.946 272.236H171.675C170.933 272.236 170.328 271.636 170.328 270.89V267.547C170.328 266.805 170.933 266.2 171.675 266.2H261.946C262.687 266.2 263.292 266.805 263.292 267.547Z" fill="#005BBE"/>
<path d="M216.856 186V205.181C216.856 208.549 214.126 211.279 210.757 211.279C207.389 211.279 204.659 208.549 204.659 205.181C204.659 205.135 204.659 205.09 204.663 205.044H204.655C204.659 205.09 204.659 205.135 204.659 205.181C204.659 208.549 201.929 211.279 198.565 211.279C195.197 211.279 192.467 208.549 192.467 205.181C192.467 208.549 189.737 211.279 186.369 211.279C183.005 211.279 180.271 208.549 180.271 205.181C180.271 208.549 177.541 211.279 174.177 211.279C170.809 211.279 168.079 208.549 168.079 205.181C168.079 204.85 168.103 204.522 168.157 204.203L168.203 203.951L171.314 186H216.856V186Z" fill="#005BBE"/>
<path d="M216.856 186V205.181C216.856 208.549 219.586 211.279 222.954 211.279C226.322 211.279 229.052 208.549 229.052 205.181C229.052 205.135 229.052 205.09 229.048 205.044H229.056C229.052 205.09 229.052 205.135 229.052 205.181C229.052 208.549 231.782 211.279 235.146 211.279C238.514 211.279 241.244 208.549 241.244 205.181C241.244 208.549 243.974 211.279 247.342 211.279C250.706 211.279 253.441 208.549 253.441 205.181C253.441 208.549 256.171 211.279 259.535 211.279C262.903 211.279 265.633 208.549 265.633 205.181C265.633 204.85 265.608 204.522 265.554 204.203L265.508 203.951L262.397 186H216.856V186Z" fill="#005BBE"/>
<path d="M265.62 187.918C265.62 188.979 264.763 189.836 263.702 189.836H169.918C168.858 189.836 168 188.979 168 187.922C168 187.392 168.215 186.912 168.563 186.568C168.911 186.22 169.388 186.004 169.918 186.004H263.702C264.763 186.004 265.62 186.862 265.62 187.918Z" fill="#007CF0"/>
<path d="M207.129 220.07H182.09V263.064H207.129V220.07Z" fill="#005BBE"/>
<path d="M208.616 263.064H180.598V266.2H208.616V263.064Z" fill="#090930"/>
<path d="M203.475 223.637H185.739V240.801H203.475V223.637Z" fill="#A1CCEA"/>
<path d="M203.475 243.531H185.739V260.694H203.475V243.531Z" fill="#A1CCEA"/>
<path d="M204.858 237.478H202.17V246.849H204.858V237.478Z" fill="#090930"/>
<path d="M255.379 256.025H214.664V260.338H255.379V256.025Z" fill="#090930"/>
<path opacity="0.22" d="M191.349 240.805H185.739V223.641C185.739 223.637 190.818 231.869 191.349 240.805Z" fill="#007CF0"/>
<path opacity="0.22" d="M203.475 253.167V260.694H185.739V243.531H191.361C191.262 245.494 190.893 247.458 190.16 249.335C186.286 259.29 197.994 250.105 203.475 253.167Z" fill="#007CF0"/>
<path d="M255.379 220.049H214.664V253.983H255.379V220.049Z" fill="#005BBE"/>
<path d="M252.417 223.637H217.63V250.395H252.417V223.637Z" fill="#A1CCEA"/>
<path opacity="0.22" d="M252.417 244.943V250.395H217.63V223.637C217.63 223.637 225.605 235.022 224.458 242.155C223.31 249.298 235.167 239.16 243.792 244.778C246.771 246.721 249.77 246.311 252.417 244.943Z" fill="#007CF0"/>
<path opacity="0.22" d="M253.573 246.17V252.463H216.47V221.574C216.47 221.574 224.976 234.711 223.749 242.951C222.523 251.191 235.167 239.496 244.372 245.979C247.554 248.216 250.752 247.744 253.573 246.17Z" fill="#007CF0"/>
</svg>
