<svg width="11" height="8" viewBox="0 0 11 8" fill="none" xmlns="http://www.w3.org/2000/svg">
<path d="M0.159187 4.35963C0.0571558 4.25812 0 4.12165 0 3.97951C0 3.83738 0.0571558 3.7009 0.159187 3.5994L0.93881 2.83917C1.0429 2.73967 1.18286 2.68394 1.32862 2.68394C1.47438 2.68394 1.61434 2.73967 1.71843 2.83917L4.12812 5.18891L9.28157 0.163664C9.33172 0.111976 9.39215 0.0708009 9.45917 0.0426635C9.52619 0.014526 9.59841 0 9.67138 0C9.74435 0 9.81656 0.014526 9.88359 0.0426635C9.95061 0.0708009 10.011 0.111976 10.0612 0.163664L10.8408 0.91401C10.9428 1.01551 11 1.15199 11 1.29412C11 1.43626 10.9428 1.57274 10.8408 1.67424L4.51287 7.84477C4.40877 7.94427 4.26881 8 4.12305 8C3.97729 8 3.83734 7.94427 3.73324 7.84477L0.159187 4.35963Z" fill="white"/>
</svg>
