<svg width="27" height="27" viewBox="0 0 27 27" fill="none" xmlns="http://www.w3.org/2000/svg">
<circle cx="15" cy="15" r="12" fill="#ECE5FF"/>
<path d="M10.9 11.77C10.7943 11.7702 10.6898 11.748 10.5933 11.7049C10.4968 11.6618 10.4104 11.5988 10.34 11.52C10.2704 11.4397 10.2184 11.3457 10.1874 11.2441C10.1564 11.1425 10.1471 11.0355 10.16 10.93C10.16 10.84 11.39 1.79004 19.38 1.79004C19.5625 1.79115 19.7384 1.8588 19.8746 1.9803C20.0108 2.1018 20.0981 2.26882 20.12 2.45004C20.3565 4.80484 19.6559 7.15801 18.17 9.00004C16.57 10.85 14.12 11.77 10.9 11.77ZM18.66 3.32004C13.85 3.74004 12.27 8.32004 11.81 10.24C12.7768 10.2359 13.7333 10.0402 14.6241 9.66428C15.5149 9.28839 16.3224 8.73975 17 8.05004C18.0966 6.72003 18.6849 5.04365 18.66 3.32004Z" fill="#23262F"/>
<path d="M10.9 11.7597H10.81C8.4 11.4597 3.81 9.58968 3.81 4.69968C3.81082 4.51602 3.87812 4.33887 3.99945 4.201C4.12078 4.06312 4.28793 3.97384 4.47 3.94968C6.29444 3.76498 8.11851 4.30359 9.55 5.44968C10.2852 6.1645 10.8543 7.03211 11.2172 7.99115C11.5801 8.95019 11.7278 9.97724 11.65 10.9997C11.6501 11.1054 11.6279 11.2099 11.5849 11.3064C11.5418 11.4029 11.4788 11.4892 11.4 11.5597C11.2624 11.6836 11.0851 11.7545 10.9 11.7597ZM5.38 5.41968C5.77 8.53968 8.63 9.68968 10.11 10.0797C10.0678 8.75299 9.51211 7.49453 8.56 6.56968C7.66004 5.83866 6.53936 5.43338 5.38 5.41968Z" fill="#23262F"/>
<path d="M13.5 22.2104H8.7C7.71495 22.1947 6.77542 21.793 6.08348 21.0917C5.39155 20.3904 5.00249 19.4456 5 18.4604V15.1504C5 14.9515 5.07902 14.7607 5.21967 14.6201C5.36032 14.4794 5.55109 14.4004 5.75 14.4004H16.5C16.6989 14.4004 16.8897 14.4794 17.0303 14.6201C17.171 14.7607 17.25 14.9515 17.25 15.1504V18.4604C17.2474 19.4541 16.8514 20.4064 16.1487 21.1091C15.446 21.8118 14.4938 22.2078 13.5 22.2104ZM6.5 15.9004V18.4604C6.49985 19.0486 6.73003 19.6134 7.14123 20.034C7.55244 20.4545 8.11197 20.6973 8.7 20.7104H13.5C14.0967 20.7104 14.669 20.4733 15.091 20.0514C15.5129 19.6294 15.75 19.0571 15.75 18.4604V15.9004H6.5Z" fill="#23262F"/>
</svg>
