<svg width="126" height="33" viewBox="0 0 126 33" fill="none" xmlns="http://www.w3.org/2000/svg">
<path d="M0.237334 21.691C0.162824 18.2807 2.6124 15.1764 5.97012 14.4261L32.6646 8.46119C35.0234 7.9341 37.4122 7.63108 39.7988 7.5562L118.032 5.10172C121.5 4.99291 124.273 7.63159 124.349 11.1131C124.432 14.9029 121.307 18.1827 117.533 18.2667L63.6735 19.4656L32.0346 24.2028L7.59532 27.8621C3.69333 28.4463 0.32317 25.6198 0.237334 21.691Z" fill="#DAFC05"/>
<path d="M18.2447 23.6526C18.2447 19.9674 21.0273 16.7023 24.6768 16.1052L50.3211 11.9095L119.372 10.4023C122.81 10.3272 125.543 12.9541 125.618 16.4066C125.701 20.2196 122.535 23.5089 118.74 23.5512L77.1626 24.0152C74.9354 24.04 72.7024 24.2314 70.482 24.5876L46.8064 28.3859L25.5592 30.3351C21.5511 30.7028 18.2447 27.6821 18.2447 23.6526Z" fill="#DAFC05"/>
</svg>
