<svg width="210" height="142" viewBox="0 0 210 142" fill="none" xmlns="http://www.w3.org/2000/svg">
<path d="M209.293 1.913L209.317 24.5255L209.354 58.2905C209.354 59.4709 207.977 60.1226 207.067 59.3725L191.058 46.1912C190.455 45.6993 189.595 45.7854 189.103 46.3756L129.786 118.32C129.307 118.91 128.422 118.996 127.831 118.504L77.1839 76.7469C76.5937 76.2673 75.7083 76.3535 75.2165 76.9314L22.1589 141.326C21.6548 141.916 20.7695 142.002 20.1916 141.51L12.1622 134.895L1.09576 125.771C0.505544 125.279 0.419467 124.394 0.899014 123.792L71.4908 38.1864C71.9826 37.5839 72.8679 37.5101 73.4582 38.002L124.106 79.7471C124.708 80.239 125.581 80.1529 126.061 79.5627L167.855 28.866C168.347 28.2635 168.261 27.3905 167.671 26.9109L151.674 13.7295C150.764 12.9795 151.132 11.4916 152.301 11.2703L207.645 0.572718C208.506 0.400573 209.317 1.06456 209.305 1.93758V1.913H209.293Z" fill="#AC9DD5"/>
<path d="M209.317 24.5132L209.354 58.2782C209.354 59.4586 207.977 60.1103 207.067 59.3603L191.058 46.1789C190.455 45.687 189.595 45.7731 189.103 46.3633L129.786 118.308C129.307 118.898 128.422 118.984 127.831 118.492L77.1839 76.7346C76.5937 76.2551 75.7083 76.3411 75.2165 76.9191L22.1589 141.314C21.6548 141.904 20.7695 141.99 20.1916 141.498L12.1622 134.883C18.1012 116.992 27.3479 97.2568 39.4718 95.7812C61.9737 93.0146 58.3094 52.4499 79.9013 62.6556C101.493 72.8614 123.515 120.927 139.242 92.781C154.563 65.373 182.389 27.0462 209.342 24.5132H209.317Z" fill="#9687C0"/>
</svg>
