<svg width="166" height="129" viewBox="0 0 166 129" fill="none" xmlns="http://www.w3.org/2000/svg">
<path d="M69.6679 0.598145H0.391785V36.6994H69.6679V0.598145Z" fill="#007CF3"/>
<path d="M95.1084 47.1509H0.391785V83.2522H95.1084V47.1509Z" fill="#007CF3"/>
<path d="M165.159 92.8311H0.391785V128.908H165.159V92.8311Z" fill="#007CF3"/>
<path d="M69.6679 29.8136V36.6994H0.391785V0.598145C0.391785 0.598145 2.32227 26.5551 15.6389 27.1454C26.9759 27.6249 56.7201 26.0387 69.6679 29.8136Z" fill="#005BBC"/>
<path d="M95.1084 72.9112V83.2522H0.391785V47.1509C0.391785 47.1509 4.84296 73.5629 17.9014 71.6078C30.9352 69.6527 42.014 60.1847 62.241 71.7184C72.2131 77.4115 84.8535 75.9114 95.1084 72.9112Z" fill="#005BBC"/>
<path d="M165.171 115.751V128.92H0.404083V96.2246C2.61738 100.245 7.46203 106.344 8.13831 107.021C15.4422 114.386 25.8201 114.3 35.7061 113.599C58.3432 112.062 81.0048 114.3 103.445 117.189C120.586 119.427 146.543 127.961 162.331 117.14C163.376 116.427 164.335 115.972 165.171 115.751Z" fill="#005BBC"/>
</svg>
