<svg width="125" height="96" viewBox="0 0 125 96" fill="none" xmlns="http://www.w3.org/2000/svg">
<path d="M124.543 6.64346V70.1281C124.543 73.362 121.911 75.9933 118.677 75.9933H81.6662L66.1117 93.4045C64.132 95.6178 60.6891 95.6178 58.7217 93.4045L43.1549 75.9933H6.16831C2.92215 75.9933 0.303101 73.3497 0.303101 70.1281V6.64346C0.303101 3.44648 2.86066 0.852008 6.04535 0.790527H118.677C121.911 0.790527 124.543 3.40959 124.543 6.65575V6.64346Z" fill="#1ED46E"/>
<path opacity="0.33" d="M124.543 61.4962V70.1281C124.543 73.362 121.911 75.9933 118.677 75.9933H81.6662L66.1117 93.4045C64.132 95.6178 60.6891 95.6178 58.7217 93.4045L43.1549 75.9933H6.16831C2.92215 75.9933 0.303101 73.3497 0.303101 70.1281V6.64346C0.303101 3.44648 2.86066 0.852008 6.04535 0.790527C14.4436 9.53304 23.0508 22.5546 20.3088 37.1131C15.4027 63.1562 35.5436 64.6317 51.7621 56.2827C67.9684 47.9214 93.5319 46.4458 107.783 55.7909C113.156 59.3075 119.157 60.8937 124.543 61.4839V61.4962Z" fill="#146D38"/>
</svg>
